<svg width="150" height="96" viewBox="0 0 150 96" fill="none" xmlns="http://www.w3.org/2000/svg">
<path d="M29.9261 26.0625V30H28.9205V21.2727H29.9261V24.4773H30.0114C30.1648 24.1392 30.3949 23.8707 30.7017 23.6719C31.0114 23.4702 31.4233 23.3693 31.9375 23.3693C32.3835 23.3693 32.7741 23.4588 33.1094 23.6378C33.4446 23.8139 33.7045 24.0852 33.8892 24.4517C34.0767 24.8153 34.1705 25.2784 34.1705 25.8409V30H33.1648V25.9091C33.1648 25.3892 33.0298 24.9872 32.7599 24.7031C32.4929 24.4162 32.1222 24.2727 31.6477 24.2727C31.3182 24.2727 31.0227 24.3423 30.7614 24.4815C30.5028 24.6207 30.2983 24.8239 30.1477 25.0909C30 25.358 29.9261 25.6818 29.9261 26.0625ZM38.581 21.2727V30H37.5241V22.3807H37.473L35.3423 23.7955V22.7216L37.5241 21.2727H38.581Z" fill="#269EF4"/>
<path d="M41.9432 26.3352V25.8068C42.4176 25.8068 42.7486 25.7074 42.9361 25.5085C43.1264 25.3097 43.2216 24.9773 43.2216 24.5114V23.1477C43.2216 22.7557 43.2585 22.4162 43.3324 22.1293C43.4091 21.8423 43.5327 21.6051 43.7031 21.4176C43.8736 21.2301 44.1009 21.0909 44.3849 21C44.669 20.9091 45.0199 20.8636 45.4375 20.8636V21.6989C45.108 21.6989 44.848 21.75 44.6577 21.8523C44.4702 21.9545 44.3366 22.1136 44.2571 22.3295C44.1804 22.5426 44.142 22.8153 44.142 23.1477V24.8523C44.142 25.0739 44.1122 25.2756 44.0526 25.4574C43.9957 25.6392 43.8892 25.7955 43.733 25.9261C43.5767 26.0568 43.3537 26.1577 43.0639 26.2287C42.777 26.2997 42.4034 26.3352 41.9432 26.3352ZM45.4375 31.7727C45.0199 31.7727 44.669 31.7273 44.3849 31.6364C44.1009 31.5455 43.8736 31.4062 43.7031 31.2188C43.5327 31.0312 43.4091 30.794 43.3324 30.5071C43.2585 30.2202 43.2216 29.8807 43.2216 29.4886V28.125C43.2216 27.6591 43.1264 27.3267 42.9361 27.1278C42.7486 26.929 42.4176 26.8295 41.9432 26.8295V26.3011C42.4034 26.3011 42.777 26.3366 43.0639 26.4077C43.3537 26.4787 43.5767 26.5795 43.733 26.7102C43.8892 26.8409 43.9957 26.9972 44.0526 27.179C44.1122 27.3608 44.142 27.5625 44.142 27.7841V29.4886C44.142 29.821 44.1804 30.0938 44.2571 30.3068C44.3366 30.5199 44.4702 30.6776 44.6577 30.7798C44.848 30.8849 45.108 30.9375 45.4375 30.9375V31.7727ZM41.9432 26.8295V25.8068H42.9489V26.8295H41.9432ZM31.9034 71.3011V71.8295C31.429 71.8295 31.0966 71.929 30.9062 72.1278C30.7188 72.3267 30.625 72.6591 30.625 73.125V74.4886C30.625 74.8807 30.5866 75.2202 30.5099 75.5071C30.4361 75.794 30.3139 76.0312 30.1435 76.2188C29.973 76.4062 29.7457 76.5455 29.4616 76.6364C29.1776 76.7273 28.8267 76.7727 28.4091 76.7727V75.9375C28.7386 75.9375 28.9972 75.8849 29.1847 75.7798C29.375 75.6776 29.5085 75.5199 29.5852 75.3068C29.6648 75.0938 29.7045 74.821 29.7045 74.4886V72.7841C29.7045 72.5625 29.733 72.3608 29.7898 72.179C29.8494 71.9972 29.9574 71.8409 30.1136 71.7102C30.2699 71.5795 30.4915 71.4787 30.7784 71.4077C31.0682 71.3366 31.4432 71.3011 31.9034 71.3011ZM28.4091 65.8636C28.8267 65.8636 29.1776 65.9091 29.4616 66C29.7457 66.0909 29.973 66.2301 30.1435 66.4176C30.3139 66.6051 30.4361 66.8423 30.5099 67.1293C30.5866 67.4162 30.625 67.7557 30.625 68.1477V69.5114C30.625 69.9773 30.7188 70.3097 30.9062 70.5085C31.0966 70.7074 31.429 70.8068 31.9034 70.8068V71.3352C31.4432 71.3352 31.0682 71.2997 30.7784 71.2287C30.4915 71.1577 30.2699 71.0568 30.1136 70.9261C29.9574 70.7955 29.8494 70.6392 29.7898 70.4574C29.733 70.2756 29.7045 70.0739 29.7045 69.8523V68.1477C29.7045 67.8153 29.6648 67.5426 29.5852 67.3295C29.5085 67.1136 29.375 66.9545 29.1847 66.8523C28.9972 66.75 28.7386 66.6989 28.4091 66.6989V65.8636ZM31.9034 70.8068V71.8295H30.8977V70.8068H31.9034Z" fill="#27D6A1"/>
<path d="M38.3295 45.1364C37.7159 45.1364 37.1875 44.9915 36.7443 44.7017C36.3011 44.4119 35.9602 44.0128 35.7216 43.5043C35.483 42.9957 35.3636 42.4148 35.3636 41.7614C35.3636 41.0966 35.4858 40.5099 35.7301 40.0014C35.9773 39.4901 36.321 39.0909 36.7614 38.804C37.2045 38.5142 37.7216 38.3693 38.3125 38.3693C38.7727 38.3693 39.1875 38.4545 39.5568 38.625C39.9261 38.7955 40.2287 39.0341 40.4645 39.3409C40.7003 39.6477 40.8466 40.0057 40.9034 40.4148H39.8977C39.821 40.1165 39.6506 39.8523 39.3864 39.6222C39.125 39.3892 38.7727 39.2727 38.3295 39.2727C37.9375 39.2727 37.5938 39.375 37.2983 39.5795C37.0057 39.7812 36.777 40.0668 36.6122 40.4361C36.4503 40.8026 36.3693 41.233 36.3693 41.7273C36.3693 42.233 36.4489 42.6733 36.608 43.0483C36.7699 43.4233 36.9972 43.7145 37.2898 43.9219C37.5852 44.1293 37.9318 44.233 38.3295 44.233C38.5909 44.233 38.8281 44.1875 39.0412 44.0966C39.2543 44.0057 39.4347 43.875 39.5824 43.7045C39.7301 43.5341 39.8352 43.3295 39.8977 43.0909H40.9034C40.8466 43.4773 40.706 43.8253 40.4815 44.1349C40.2599 44.4418 39.9659 44.6861 39.5994 44.8679C39.2358 45.0469 38.8125 45.1364 38.3295 45.1364ZM45.0327 45.1364C44.4418 45.1364 43.9233 44.9957 43.4773 44.7145C43.0341 44.4332 42.6875 44.0398 42.4375 43.5341C42.1903 43.0284 42.0668 42.4375 42.0668 41.7614C42.0668 41.0795 42.1903 40.4844 42.4375 39.9759C42.6875 39.4673 43.0341 39.0724 43.4773 38.7912C43.9233 38.5099 44.4418 38.3693 45.0327 38.3693C45.6236 38.3693 46.1406 38.5099 46.5838 38.7912C47.0298 39.0724 47.3764 39.4673 47.6236 39.9759C47.8736 40.4844 47.9986 41.0795 47.9986 41.7614C47.9986 42.4375 47.8736 43.0284 47.6236 43.5341C47.3764 44.0398 47.0298 44.4332 46.5838 44.7145C46.1406 44.9957 45.6236 45.1364 45.0327 45.1364ZM45.0327 44.233C45.4815 44.233 45.8509 44.1179 46.1406 43.8878C46.4304 43.6577 46.6449 43.3551 46.7841 42.9801C46.9233 42.6051 46.9929 42.1989 46.9929 41.7614C46.9929 41.3239 46.9233 40.9162 46.7841 40.5384C46.6449 40.1605 46.4304 39.8551 46.1406 39.6222C45.8509 39.3892 45.4815 39.2727 45.0327 39.2727C44.5838 39.2727 44.2145 39.3892 43.9247 39.6222C43.6349 39.8551 43.4205 40.1605 43.2812 40.5384C43.142 40.9162 43.0724 41.3239 43.0724 41.7614C43.0724 42.1989 43.142 42.6051 43.2812 42.9801C43.4205 43.3551 43.6349 43.6577 43.9247 43.8878C44.2145 44.1179 44.5838 44.233 45.0327 44.233ZM50.5394 36.2727V45H49.5337V36.2727H50.5394ZM55.0405 45.1364C54.4496 45.1364 53.9311 44.9957 53.4851 44.7145C53.0419 44.4332 52.6953 44.0398 52.4453 43.5341C52.1982 43.0284 52.0746 42.4375 52.0746 41.7614C52.0746 41.0795 52.1982 40.4844 52.4453 39.9759C52.6953 39.4673 53.0419 39.0724 53.4851 38.7912C53.9311 38.5099 54.4496 38.3693 55.0405 38.3693C55.6314 38.3693 56.1484 38.5099 56.5916 38.7912C57.0376 39.0724 57.3842 39.4673 57.6314 39.9759C57.8814 40.4844 58.0064 41.0795 58.0064 41.7614C58.0064 42.4375 57.8814 43.0284 57.6314 43.5341C57.3842 44.0398 57.0376 44.4332 56.5916 44.7145C56.1484 44.9957 55.6314 45.1364 55.0405 45.1364ZM55.0405 44.233C55.4893 44.233 55.8587 44.1179 56.1484 43.8878C56.4382 43.6577 56.6527 43.3551 56.7919 42.9801C56.9311 42.6051 57.0007 42.1989 57.0007 41.7614C57.0007 41.3239 56.9311 40.9162 56.7919 40.5384C56.6527 40.1605 56.4382 39.8551 56.1484 39.6222C55.8587 39.3892 55.4893 39.2727 55.0405 39.2727C54.5916 39.2727 54.2223 39.3892 53.9325 39.6222C53.6428 39.8551 53.4283 40.1605 53.2891 40.5384C53.1499 40.9162 53.0803 41.3239 53.0803 41.7614C53.0803 42.1989 53.1499 42.6051 53.2891 42.9801C53.4283 43.3551 53.6428 43.6577 53.9325 43.8878C54.2223 44.1179 54.5916 44.233 55.0405 44.233ZM59.5415 45V38.4545H60.5131V39.4432H60.5813C60.7006 39.1193 60.9165 38.8565 61.229 38.6548C61.5415 38.4531 61.8938 38.3523 62.2859 38.3523C62.3597 38.3523 62.4521 38.3537 62.5629 38.3565C62.6737 38.3594 62.7575 38.3636 62.8143 38.3693V39.392C62.7802 39.3835 62.7021 39.3707 62.5799 39.3537C62.4606 39.3338 62.3342 39.3239 62.2006 39.3239C61.8825 39.3239 61.5984 39.3906 61.3484 39.5241C61.1012 39.6548 60.9052 39.8366 60.7603 40.0696C60.6183 40.2997 60.5472 40.5625 60.5472 40.858V45H59.5415ZM64.7393 45.0682C64.5291 45.0682 64.3487 44.9929 64.1982 44.8423C64.0476 44.6918 63.9723 44.5114 63.9723 44.3011C63.9723 44.0909 64.0476 43.9105 64.1982 43.7599C64.3487 43.6094 64.5291 43.5341 64.7393 43.5341C64.9496 43.5341 65.13 43.6094 65.2805 43.7599C65.4311 43.9105 65.5064 44.0909 65.5064 44.3011C65.5064 44.4403 65.4709 44.5682 65.3999 44.6847C65.3317 44.8011 65.2393 44.8949 65.1229 44.9659C65.0092 45.0341 64.8814 45.0682 64.7393 45.0682ZM64.7393 40.2102C64.5291 40.2102 64.3487 40.1349 64.1982 39.9844C64.0476 39.8338 63.9723 39.6534 63.9723 39.4432C63.9723 39.233 64.0476 39.0526 64.1982 38.902C64.3487 38.7514 64.5291 38.6761 64.7393 38.6761C64.9496 38.6761 65.13 38.7514 65.2805 38.902C65.4311 39.0526 65.5064 39.233 65.5064 39.4432C65.5064 39.5824 65.4709 39.7102 65.3999 39.8267C65.3317 39.9432 65.2393 40.0369 65.1229 40.108C65.0092 40.1761 64.8814 40.2102 64.7393 40.2102ZM70.6861 45V38.4545H71.6577V39.4432H71.7259C71.8452 39.1193 72.0611 38.8565 72.3736 38.6548C72.6861 38.4531 73.0384 38.3523 73.4304 38.3523C73.5043 38.3523 73.5966 38.3537 73.7074 38.3565C73.8182 38.3594 73.902 38.3636 73.9588 38.3693V39.392C73.9247 39.3835 73.8466 39.3707 73.7244 39.3537C73.6051 39.3338 73.4787 39.3239 73.3452 39.3239C73.027 39.3239 72.7429 39.3906 72.4929 39.5241C72.2457 39.6548 72.0497 39.8366 71.9048 40.0696C71.7628 40.2997 71.6918 40.5625 71.6918 40.858V45H70.6861ZM77.696 45.1364C77.0653 45.1364 76.5213 44.9972 76.0639 44.7188C75.6094 44.4375 75.2585 44.0455 75.0114 43.5426C74.767 43.0369 74.6449 42.4489 74.6449 41.7784C74.6449 41.108 74.767 40.517 75.0114 40.0057C75.2585 39.4915 75.6023 39.0909 76.0426 38.804C76.4858 38.5142 77.0028 38.3693 77.5938 38.3693C77.9347 38.3693 78.2713 38.4261 78.6037 38.5398C78.9361 38.6534 79.2386 38.8381 79.5114 39.0938C79.7841 39.3466 80.0014 39.6818 80.1634 40.0994C80.3253 40.517 80.4062 41.0312 80.4062 41.642V42.0682H75.3608V41.1989H79.3835C79.3835 40.8295 79.3097 40.5 79.1619 40.2102C79.017 39.9205 78.8097 39.6918 78.5398 39.5241C78.2727 39.3565 77.9574 39.2727 77.5938 39.2727C77.1932 39.2727 76.8466 39.3722 76.554 39.571C76.2642 39.767 76.0412 40.0227 75.8849 40.3381C75.7287 40.6534 75.6506 40.9915 75.6506 41.3523V41.9318C75.6506 42.4261 75.7358 42.8452 75.9062 43.1889C76.0795 43.5298 76.3196 43.7898 76.6264 43.9688C76.9332 44.1449 77.2898 44.233 77.696 44.233C77.9602 44.233 78.1989 44.196 78.4119 44.1222C78.6278 44.0455 78.8139 43.9318 78.9702 43.7812C79.1264 43.6278 79.2472 43.4375 79.3324 43.2102L80.304 43.483C80.2017 43.8125 80.0298 44.1023 79.7884 44.3523C79.5469 44.5994 79.2486 44.7926 78.8935 44.9318C78.5384 45.0682 78.1392 45.1364 77.696 45.1364ZM84.4077 45.1364C83.8622 45.1364 83.3807 44.9986 82.9631 44.723C82.5455 44.4446 82.2188 44.0526 81.983 43.5469C81.7472 43.0384 81.6293 42.4375 81.6293 41.7443C81.6293 41.0568 81.7472 40.4602 81.983 39.9545C82.2188 39.4489 82.5469 39.0582 82.9673 38.7827C83.3878 38.5071 83.8736 38.3693 84.4247 38.3693C84.8509 38.3693 85.1875 38.4403 85.4347 38.5824C85.6847 38.7216 85.875 38.8807 86.0057 39.0597C86.1392 39.2358 86.2429 39.3807 86.3168 39.4943H86.402V36.2727H87.4077V45H86.4361V43.9943H86.3168C86.2429 44.1136 86.1378 44.2642 86.0014 44.446C85.8651 44.625 85.6705 44.7855 85.4176 44.9276C85.1648 45.0668 84.8281 45.1364 84.4077 45.1364ZM84.544 44.233C84.9474 44.233 85.2884 44.1278 85.5668 43.9176C85.8452 43.7045 86.0568 43.4105 86.2017 43.0355C86.3466 42.6577 86.419 42.2216 86.419 41.7273C86.419 41.2386 86.348 40.8111 86.206 40.4446C86.0639 40.0753 85.8537 39.7884 85.5753 39.5838C85.2969 39.3764 84.9531 39.2727 84.544 39.2727C84.1179 39.2727 83.7628 39.3821 83.4787 39.6009C83.1974 39.8168 82.9858 40.1108 82.8438 40.483C82.7045 40.8523 82.6349 41.267 82.6349 41.7273C82.6349 42.1932 82.706 42.6165 82.848 42.9972C82.9929 43.375 83.206 43.6761 83.4872 43.9006C83.7713 44.1222 84.1236 44.233 84.544 44.233ZM90.8892 43.8068L90.821 44.267C90.7727 44.5909 90.6989 44.9375 90.5994 45.3068C90.5028 45.6761 90.402 46.0241 90.2969 46.3509C90.1918 46.6776 90.1051 46.9375 90.0369 47.1307H89.2699C89.3068 46.9489 89.3551 46.7088 89.4148 46.4105C89.4744 46.1122 89.5341 45.7784 89.5938 45.4091C89.6562 45.0426 89.7074 44.6676 89.7472 44.2841L89.7983 43.8068H90.8892ZM90.2756 40.2102C90.0653 40.2102 89.8849 40.1349 89.7344 39.9844C89.5838 39.8338 89.5085 39.6534 89.5085 39.4432C89.5085 39.233 89.5838 39.0526 89.7344 38.902C89.8849 38.7514 90.0653 38.6761 90.2756 38.6761C90.4858 38.6761 90.6662 38.7514 90.8168 38.902C90.9673 39.0526 91.0426 39.233 91.0426 39.4432C91.0426 39.5824 91.0071 39.7102 90.9361 39.8267C90.8679 39.9432 90.7756 40.0369 90.6591 40.108C90.5455 40.1761 90.4176 40.2102 90.2756 40.2102ZM38.5852 53.4545V54.3068H35.0568V53.4545H38.5852ZM36.1136 60V52.5511C36.1136 52.1761 36.2017 51.8636 36.3778 51.6136C36.554 51.3636 36.7827 51.1761 37.0639 51.0511C37.3452 50.9261 37.642 50.8636 37.9545 50.8636C38.2017 50.8636 38.4034 50.8835 38.5597 50.9233C38.7159 50.9631 38.8324 51 38.9091 51.0341L38.6193 51.9034C38.5682 51.8864 38.4972 51.8651 38.4062 51.8395C38.3182 51.8139 38.2017 51.8011 38.0568 51.8011C37.7244 51.8011 37.4844 51.8849 37.3366 52.0526C37.1918 52.2202 37.1193 52.4659 37.1193 52.7898V60H36.1136ZM42.3842 60.1364C41.7933 60.1364 41.2749 59.9957 40.8288 59.7145C40.3857 59.4332 40.0391 59.0398 39.7891 58.5341C39.5419 58.0284 39.4183 57.4375 39.4183 56.7614C39.4183 56.0795 39.5419 55.4844 39.7891 54.9759C40.0391 54.4673 40.3857 54.0724 40.8288 53.7912C41.2749 53.5099 41.7933 53.3693 42.3842 53.3693C42.9751 53.3693 43.4922 53.5099 43.9354 53.7912C44.3814 54.0724 44.728 54.4673 44.9751 54.9759C45.2251 55.4844 45.3501 56.0795 45.3501 56.7614C45.3501 57.4375 45.2251 58.0284 44.9751 58.5341C44.728 59.0398 44.3814 59.4332 43.9354 59.7145C43.4922 59.9957 42.9751 60.1364 42.3842 60.1364ZM42.3842 59.233C42.8331 59.233 43.2024 59.1179 43.4922 58.8878C43.782 58.6577 43.9964 58.3551 44.1357 57.9801C44.2749 57.6051 44.3445 57.1989 44.3445 56.7614C44.3445 56.3239 44.2749 55.9162 44.1357 55.5384C43.9964 55.1605 43.782 54.8551 43.4922 54.6222C43.2024 54.3892 42.8331 54.2727 42.3842 54.2727C41.9354 54.2727 41.5661 54.3892 41.2763 54.6222C40.9865 54.8551 40.772 55.1605 40.6328 55.5384C40.4936 55.9162 40.424 56.3239 40.424 56.7614C40.424 57.1989 40.4936 57.6051 40.6328 57.9801C40.772 58.3551 40.9865 58.6577 41.2763 58.8878C41.5661 59.1179 41.9354 59.233 42.3842 59.233ZM47.891 56.0625V60H46.8853V53.4545H47.8569V54.4773H47.9421C48.0955 54.1449 48.3285 53.8778 48.641 53.6761C48.9535 53.4716 49.3569 53.3693 49.8512 53.3693C50.2944 53.3693 50.6822 53.4602 51.0146 53.642C51.3469 53.821 51.6055 54.0938 51.7901 54.4602C51.9748 54.8239 52.0671 55.2841 52.0671 55.8409V60H51.0614V55.9091C51.0614 55.3949 50.9279 54.9943 50.6609 54.7074C50.3938 54.4176 50.0273 54.2727 49.5614 54.2727C49.2404 54.2727 48.9535 54.3423 48.7006 54.4815C48.4506 54.6207 48.2532 54.8239 48.1083 55.0909C47.9634 55.358 47.891 55.6818 47.891 56.0625ZM56.7514 53.4545V54.3068H53.3594V53.4545H56.7514ZM54.348 51.8864H55.3537V58.125C55.3537 58.4091 55.3949 58.6222 55.4773 58.7642C55.5625 58.9034 55.6705 58.9972 55.8011 59.0455C55.9347 59.0909 56.0753 59.1136 56.223 59.1136C56.3338 59.1136 56.4247 59.108 56.4957 59.0966C56.5668 59.0824 56.6236 59.071 56.6662 59.0625L56.8707 59.9659C56.8026 59.9915 56.7074 60.017 56.5852 60.0426C56.4631 60.071 56.3082 60.0852 56.1207 60.0852C55.8366 60.0852 55.5582 60.0241 55.2855 59.902C55.0156 59.7798 54.7912 59.5938 54.6122 59.3438C54.4361 59.0938 54.348 58.7784 54.348 58.3977V51.8864ZM61.7798 55.7898V56.7273H57.9616V55.7898H61.7798ZM68.1857 54.9205L67.2823 55.1761C67.2255 55.0256 67.1417 54.8793 67.0309 54.7372C66.9229 54.5923 66.7752 54.473 66.5877 54.3793C66.4002 54.2855 66.1602 54.2386 65.8675 54.2386C65.467 54.2386 65.1332 54.331 64.8661 54.5156C64.6019 54.6974 64.4698 54.929 64.4698 55.2102C64.4698 55.4602 64.5607 55.6577 64.7425 55.8026C64.9244 55.9474 65.2085 56.0682 65.5948 56.1648L66.5664 56.4034C67.1516 56.5455 67.5877 56.7628 67.8746 57.0554C68.1616 57.3452 68.305 57.7187 68.305 58.1761C68.305 58.5511 68.1971 58.8864 67.9812 59.1818C67.7681 59.4773 67.4698 59.7102 67.0863 59.8807C66.7028 60.0511 66.2567 60.1364 65.7482 60.1364C65.0806 60.1364 64.5281 59.9915 64.0906 59.7017C63.6531 59.4119 63.3761 58.9886 63.2596 58.4318L64.2141 58.1932C64.305 58.5455 64.4769 58.8097 64.7298 58.9858C64.9854 59.1619 65.3192 59.25 65.7312 59.25C66.1999 59.25 66.5721 59.1506 66.8477 58.9517C67.1261 58.75 67.2653 58.5085 67.2653 58.2273C67.2653 58 67.1857 57.8097 67.0266 57.6562C66.8675 57.5 66.6232 57.3835 66.2937 57.3068L65.2028 57.0511C64.6033 56.9091 64.163 56.6889 63.8817 56.3906C63.6033 56.0895 63.4641 55.7131 63.4641 55.2614C63.4641 54.892 63.5678 54.5653 63.7752 54.2812C63.9854 53.9972 64.271 53.7741 64.6317 53.6122C64.9954 53.4503 65.4073 53.3693 65.8675 53.3693C66.5153 53.3693 67.0238 53.5114 67.3931 53.7955C67.7653 54.0795 68.0295 54.4545 68.1857 54.9205ZM69.8189 60V53.4545H70.8246V60H69.8189ZM70.3303 52.3636C70.1342 52.3636 69.9652 52.2969 69.8232 52.1634C69.6839 52.0298 69.6143 51.8693 69.6143 51.6818C69.6143 51.4943 69.6839 51.3338 69.8232 51.2003C69.9652 51.0668 70.1342 51 70.3303 51C70.5263 51 70.6939 51.0668 70.8331 51.2003C70.9751 51.3338 71.0462 51.4943 71.0462 51.6818C71.0462 51.8693 70.9751 52.0298 70.8331 52.1634C70.6939 52.2969 70.5263 52.3636 70.3303 52.3636ZM72.479 60V59.233L76.195 54.4602V54.392H72.5984V53.4545H77.4904V54.2557L73.8768 58.9943V59.0625H77.6097V60H72.479ZM81.7156 60.1364C81.0849 60.1364 80.5408 59.9972 80.0835 59.7188C79.6289 59.4375 79.2781 59.0455 79.0309 58.5426C78.7866 58.0369 78.6644 57.4489 78.6644 56.7784C78.6644 56.108 78.7866 55.517 79.0309 55.0057C79.2781 54.4915 79.6218 54.0909 80.0621 53.804C80.5053 53.5142 81.0224 53.3693 81.6133 53.3693C81.9542 53.3693 82.2908 53.4261 82.6232 53.5398C82.9556 53.6534 83.2582 53.8381 83.5309 54.0938C83.8036 54.3466 84.021 54.6818 84.1829 55.0994C84.3448 55.517 84.4258 56.0312 84.4258 56.642V57.0682H79.3803V56.1989H83.4031C83.4031 55.8295 83.3292 55.5 83.1815 55.2102C83.0366 54.9205 82.8292 54.6918 82.5593 54.5241C82.2923 54.3565 81.9769 54.2727 81.6133 54.2727C81.2127 54.2727 80.8661 54.3722 80.5735 54.571C80.2837 54.767 80.0607 55.0227 79.9045 55.3381C79.7482 55.6534 79.6701 55.9915 79.6701 56.3523V56.9318C79.6701 57.4261 79.7553 57.8452 79.9258 58.1889C80.0991 58.5298 80.3391 58.7898 80.646 58.9688C80.9528 59.1449 81.3093 59.233 81.7156 59.233C81.9798 59.233 82.2184 59.196 82.4315 59.1222C82.6474 59.0455 82.8335 58.9318 82.9897 58.7812C83.146 58.6278 83.2667 58.4375 83.3519 58.2102L84.3235 58.483C84.2212 58.8125 84.0494 59.1023 83.8079 59.3523C83.5664 59.5994 83.2681 59.7926 82.913 59.9318C82.5579 60.0682 82.1587 60.1364 81.7156 60.1364ZM86.6886 60.0682C86.4783 60.0682 86.2979 59.9929 86.1474 59.8423C85.9968 59.6918 85.9215 59.5114 85.9215 59.3011C85.9215 59.0909 85.9968 58.9105 86.1474 58.7599C86.2979 58.6094 86.4783 58.5341 86.6886 58.5341C86.8988 58.5341 87.0792 58.6094 87.2298 58.7599C87.3803 58.9105 87.4556 59.0909 87.4556 59.3011C87.4556 59.4403 87.4201 59.5682 87.3491 59.6847C87.2809 59.8011 87.1886 59.8949 87.0721 59.9659C86.9585 60.0341 86.8306 60.0682 86.6886 60.0682ZM86.6886 55.2102C86.4783 55.2102 86.2979 55.1349 86.1474 54.9844C85.9968 54.8338 85.9215 54.6534 85.9215 54.4432C85.9215 54.233 85.9968 54.0526 86.1474 53.902C86.2979 53.7514 86.4783 53.6761 86.6886 53.6761C86.8988 53.6761 87.0792 53.7514 87.2298 53.902C87.3803 54.0526 87.4556 54.233 87.4556 54.4432C87.4556 54.5824 87.4201 54.7102 87.3491 54.8267C87.2809 54.9432 87.1886 55.0369 87.0721 55.108C86.9585 55.1761 86.8306 55.2102 86.6886 55.2102ZM95.6864 51.2727V60H94.6296V52.3807H94.5785L92.4478 53.7955V52.7216L94.6296 51.2727H95.6864ZM97.9918 58.2102V57.3409L101.827 51.2727H102.458V52.6193H102.032L99.1339 57.2045V57.2727H104.299V58.2102H97.9918ZM102.1 60V57.946V57.5412V51.2727H103.105V60H102.1ZM105.913 62.4545V53.4545H106.884V54.4943H107.004C107.077 54.3807 107.18 54.2358 107.31 54.0597C107.444 53.8807 107.634 53.7216 107.881 53.5824C108.131 53.4403 108.469 53.3693 108.896 53.3693C109.447 53.3693 109.933 53.5071 110.353 53.7827C110.773 54.0582 111.102 54.4489 111.337 54.9545C111.573 55.4602 111.691 56.0568 111.691 56.7443C111.691 57.4375 111.573 58.0384 111.337 58.5469C111.102 59.0526 110.775 59.4446 110.357 59.723C109.94 59.9986 109.458 60.1364 108.913 60.1364C108.492 60.1364 108.156 60.0668 107.903 59.9276C107.65 59.7855 107.455 59.625 107.319 59.446C107.183 59.2642 107.077 59.1136 107.004 58.9943H106.918V62.4545H105.913ZM106.901 56.7273C106.901 57.2216 106.974 57.6577 107.119 58.0355C107.263 58.4105 107.475 58.7045 107.754 58.9176C108.032 59.1278 108.373 59.233 108.776 59.233C109.197 59.233 109.548 59.1222 109.829 58.9006C110.113 58.6761 110.326 58.375 110.468 57.9972C110.613 57.6165 110.685 57.1932 110.685 56.7273C110.685 56.267 110.614 55.8523 110.472 55.483C110.333 55.1108 110.121 54.8168 109.837 54.6009C109.556 54.3821 109.202 54.2727 108.776 54.2727C108.367 54.2727 108.023 54.3764 107.745 54.5838C107.467 54.7884 107.256 55.0753 107.114 55.4446C106.972 55.8111 106.901 56.2386 106.901 56.7273ZM113.706 53.4545L115.274 56.1307L116.842 53.4545H118.001L115.887 56.7273L118.001 60H116.842L115.274 57.4602L113.706 60H112.547L114.626 56.7273L112.547 53.4545H113.706ZM120.936 58.8068L120.868 59.267C120.82 59.5909 120.746 59.9375 120.646 60.3068C120.55 60.6761 120.449 61.0241 120.344 61.3509C120.239 61.6776 120.152 61.9375 120.084 62.1307H119.317C119.354 61.9489 119.402 61.7088 119.462 61.4105C119.521 61.1122 119.581 60.7784 119.641 60.4091C119.703 60.0426 119.754 59.6676 119.794 59.2841L119.845 58.8068H120.936ZM120.322 55.2102C120.112 55.2102 119.932 55.1349 119.781 54.9844C119.631 54.8338 119.555 54.6534 119.555 54.4432C119.555 54.233 119.631 54.0526 119.781 53.902C119.932 53.7514 120.112 53.6761 120.322 53.6761C120.533 53.6761 120.713 53.7514 120.864 53.902C121.014 54.0526 121.089 54.233 121.089 54.4432C121.089 54.5824 121.054 54.7102 120.983 54.8267C120.915 54.9432 120.822 55.0369 120.706 55.108C120.592 55.1761 120.464 55.2102 120.322 55.2102Z" fill="#EF1C1C"/>
</svg>
