<svg width="250" height="96" viewBox="0 0 250 96" fill="none" xmlns="http://www.w3.org/2000/svg">
<path d="M78.9261 37.0625V41H77.9205V32.2727H78.9261V35.4773H79.0114C79.1648 35.1392 79.3949 34.8707 79.7017 34.6719C80.0114 34.4702 80.4233 34.3693 80.9375 34.3693C81.3835 34.3693 81.7741 34.4588 82.1094 34.6378C82.4446 34.8139 82.7045 35.0852 82.8892 35.4517C83.0767 35.8153 83.1705 36.2784 83.1705 36.8409V41H82.1648V36.9091C82.1648 36.3892 82.0298 35.9872 81.7599 35.7031C81.4929 35.4162 81.1222 35.2727 80.6477 35.2727C80.3182 35.2727 80.0227 35.3423 79.7614 35.4815C79.5028 35.6207 79.2983 35.8239 79.1477 36.0909C79 36.358 78.9261 36.6818 78.9261 37.0625ZM87.581 32.2727V41H86.5241V33.3807H86.473L84.3423 34.7955V33.7216L86.5241 32.2727H87.581Z" fill="#269EF4"/>
<path d="M90.9432 37.3352V36.8068C91.4176 36.8068 91.7486 36.7074 91.9361 36.5085C92.1264 36.3097 92.2216 35.9773 92.2216 35.5114V34.1477C92.2216 33.7557 92.2585 33.4162 92.3324 33.1293C92.4091 32.8423 92.5327 32.6051 92.7031 32.4176C92.8736 32.2301 93.1009 32.0909 93.3849 32C93.669 31.9091 94.0199 31.8636 94.4375 31.8636V32.6989C94.108 32.6989 93.848 32.75 93.6577 32.8523C93.4702 32.9545 93.3366 33.1136 93.2571 33.3295C93.1804 33.5426 93.142 33.8153 93.142 34.1477V35.8523C93.142 36.0739 93.1122 36.2756 93.0526 36.4574C92.9957 36.6392 92.8892 36.7955 92.733 36.9261C92.5767 37.0568 92.3537 37.1577 92.0639 37.2287C91.777 37.2997 91.4034 37.3352 90.9432 37.3352ZM94.4375 42.7727C94.0199 42.7727 93.669 42.7273 93.3849 42.6364C93.1009 42.5455 92.8736 42.4062 92.7031 42.2188C92.5327 42.0312 92.4091 41.794 92.3324 41.5071C92.2585 41.2202 92.2216 40.8807 92.2216 40.4886V39.125C92.2216 38.6591 92.1264 38.3267 91.9361 38.1278C91.7486 37.929 91.4176 37.8295 90.9432 37.8295V37.3011C91.4034 37.3011 91.777 37.3366 92.0639 37.4077C92.3537 37.4787 92.5767 37.5795 92.733 37.7102C92.8892 37.8409 92.9957 37.9972 93.0526 38.179C93.1122 38.3608 93.142 38.5625 93.142 38.7841V40.4886C93.142 40.821 93.1804 41.0938 93.2571 41.3068C93.3366 41.5199 93.4702 41.6776 93.6577 41.7798C93.848 41.8849 94.108 41.9375 94.4375 41.9375V42.7727ZM90.9432 37.8295V36.8068H91.9489V37.8295H90.9432ZM80.9034 82.3011V82.8295C80.429 82.8295 80.0966 82.929 79.9062 83.1278C79.7188 83.3267 79.625 83.6591 79.625 84.125V85.4886C79.625 85.8807 79.5866 86.2202 79.5099 86.5071C79.4361 86.794 79.3139 87.0312 79.1435 87.2188C78.973 87.4062 78.7457 87.5455 78.4616 87.6364C78.1776 87.7273 77.8267 87.7727 77.4091 87.7727V86.9375C77.7386 86.9375 77.9972 86.8849 78.1847 86.7798C78.375 86.6776 78.5085 86.5199 78.5852 86.3068C78.6648 86.0938 78.7045 85.821 78.7045 85.4886V83.7841C78.7045 83.5625 78.733 83.3608 78.7898 83.179C78.8494 82.9972 78.9574 82.8409 79.1136 82.7102C79.2699 82.5795 79.4915 82.4787 79.7784 82.4077C80.0682 82.3366 80.4432 82.3011 80.9034 82.3011ZM77.4091 76.8636C77.8267 76.8636 78.1776 76.9091 78.4616 77C78.7457 77.0909 78.973 77.2301 79.1435 77.4176C79.3139 77.6051 79.4361 77.8423 79.5099 78.1293C79.5866 78.4162 79.625 78.7557 79.625 79.1477V80.5114C79.625 80.9773 79.7188 81.3097 79.9062 81.5085C80.0966 81.7074 80.429 81.8068 80.9034 81.8068V82.3352C80.4432 82.3352 80.0682 82.2997 79.7784 82.2287C79.4915 82.1577 79.2699 82.0568 79.1136 81.9261C78.9574 81.7955 78.8494 81.6392 78.7898 81.4574C78.733 81.2756 78.7045 81.0739 78.7045 80.8523V79.1477C78.7045 78.8153 78.6648 78.5426 78.5852 78.3295C78.5085 78.1136 78.375 77.9545 78.1847 77.8523C77.9972 77.75 77.7386 77.6989 77.4091 77.6989V76.8636ZM80.9034 81.8068V82.8295H79.8977V81.8068H80.9034Z" fill="#27D6A1"/>
<path d="M87.3295 56.1364C86.7159 56.1364 86.1875 55.9915 85.7443 55.7017C85.3011 55.4119 84.9602 55.0128 84.7216 54.5043C84.483 53.9957 84.3636 53.4148 84.3636 52.7614C84.3636 52.0966 84.4858 51.5099 84.7301 51.0014C84.9773 50.4901 85.321 50.0909 85.7614 49.804C86.2045 49.5142 86.7216 49.3693 87.3125 49.3693C87.7727 49.3693 88.1875 49.4545 88.5568 49.625C88.9261 49.7955 89.2287 50.0341 89.4645 50.3409C89.7003 50.6477 89.8466 51.0057 89.9034 51.4148H88.8977C88.821 51.1165 88.6506 50.8523 88.3864 50.6222C88.125 50.3892 87.7727 50.2727 87.3295 50.2727C86.9375 50.2727 86.5938 50.375 86.2983 50.5795C86.0057 50.7812 85.777 51.0668 85.6122 51.4361C85.4503 51.8026 85.3693 52.233 85.3693 52.7273C85.3693 53.233 85.4489 53.6733 85.608 54.0483C85.7699 54.4233 85.9972 54.7145 86.2898 54.9219C86.5852 55.1293 86.9318 55.233 87.3295 55.233C87.5909 55.233 87.8281 55.1875 88.0412 55.0966C88.2543 55.0057 88.4347 54.875 88.5824 54.7045C88.7301 54.5341 88.8352 54.3295 88.8977 54.0909H89.9034C89.8466 54.4773 89.706 54.8253 89.4815 55.1349C89.2599 55.4418 88.9659 55.6861 88.5994 55.8679C88.2358 56.0469 87.8125 56.1364 87.3295 56.1364ZM94.0327 56.1364C93.4418 56.1364 92.9233 55.9957 92.4773 55.7145C92.0341 55.4332 91.6875 55.0398 91.4375 54.5341C91.1903 54.0284 91.0668 53.4375 91.0668 52.7614C91.0668 52.0795 91.1903 51.4844 91.4375 50.9759C91.6875 50.4673 92.0341 50.0724 92.4773 49.7912C92.9233 49.5099 93.4418 49.3693 94.0327 49.3693C94.6236 49.3693 95.1406 49.5099 95.5838 49.7912C96.0298 50.0724 96.3764 50.4673 96.6236 50.9759C96.8736 51.4844 96.9986 52.0795 96.9986 52.7614C96.9986 53.4375 96.8736 54.0284 96.6236 54.5341C96.3764 55.0398 96.0298 55.4332 95.5838 55.7145C95.1406 55.9957 94.6236 56.1364 94.0327 56.1364ZM94.0327 55.233C94.4815 55.233 94.8509 55.1179 95.1406 54.8878C95.4304 54.6577 95.6449 54.3551 95.7841 53.9801C95.9233 53.6051 95.9929 53.1989 95.9929 52.7614C95.9929 52.3239 95.9233 51.9162 95.7841 51.5384C95.6449 51.1605 95.4304 50.8551 95.1406 50.6222C94.8509 50.3892 94.4815 50.2727 94.0327 50.2727C93.5838 50.2727 93.2145 50.3892 92.9247 50.6222C92.6349 50.8551 92.4205 51.1605 92.2812 51.5384C92.142 51.9162 92.0724 52.3239 92.0724 52.7614C92.0724 53.1989 92.142 53.6051 92.2812 53.9801C92.4205 54.3551 92.6349 54.6577 92.9247 54.8878C93.2145 55.1179 93.5838 55.233 94.0327 55.233ZM99.5394 47.2727V56H98.5337V47.2727H99.5394ZM104.04 56.1364C103.45 56.1364 102.931 55.9957 102.485 55.7145C102.042 55.4332 101.695 55.0398 101.445 54.5341C101.198 54.0284 101.075 53.4375 101.075 52.7614C101.075 52.0795 101.198 51.4844 101.445 50.9759C101.695 50.4673 102.042 50.0724 102.485 49.7912C102.931 49.5099 103.45 49.3693 104.04 49.3693C104.631 49.3693 105.148 49.5099 105.592 49.7912C106.038 50.0724 106.384 50.4673 106.631 50.9759C106.881 51.4844 107.006 52.0795 107.006 52.7614C107.006 53.4375 106.881 54.0284 106.631 54.5341C106.384 55.0398 106.038 55.4332 105.592 55.7145C105.148 55.9957 104.631 56.1364 104.04 56.1364ZM104.04 55.233C104.489 55.233 104.859 55.1179 105.148 54.8878C105.438 54.6577 105.653 54.3551 105.792 53.9801C105.931 53.6051 106.001 53.1989 106.001 52.7614C106.001 52.3239 105.931 51.9162 105.792 51.5384C105.653 51.1605 105.438 50.8551 105.148 50.6222C104.859 50.3892 104.489 50.2727 104.04 50.2727C103.592 50.2727 103.222 50.3892 102.933 50.6222C102.643 50.8551 102.428 51.1605 102.289 51.5384C102.15 51.9162 102.08 52.3239 102.08 52.7614C102.08 53.1989 102.15 53.6051 102.289 53.9801C102.428 54.3551 102.643 54.6577 102.933 54.8878C103.222 55.1179 103.592 55.233 104.04 55.233ZM108.542 56V49.4545H109.513V50.4432H109.581C109.701 50.1193 109.917 49.8565 110.229 49.6548C110.542 49.4531 110.894 49.3523 111.286 49.3523C111.36 49.3523 111.452 49.3537 111.563 49.3565C111.674 49.3594 111.757 49.3636 111.814 49.3693V50.392C111.78 50.3835 111.702 50.3707 111.58 50.3537C111.461 50.3338 111.334 50.3239 111.201 50.3239C110.882 50.3239 110.598 50.3906 110.348 50.5241C110.101 50.6548 109.905 50.8366 109.76 51.0696C109.618 51.2997 109.547 51.5625 109.547 51.858V56H108.542ZM113.739 56.0682C113.529 56.0682 113.349 55.9929 113.198 55.8423C113.048 55.6918 112.972 55.5114 112.972 55.3011C112.972 55.0909 113.048 54.9105 113.198 54.7599C113.349 54.6094 113.529 54.5341 113.739 54.5341C113.95 54.5341 114.13 54.6094 114.281 54.7599C114.431 54.9105 114.506 55.0909 114.506 55.3011C114.506 55.4403 114.471 55.5682 114.4 55.6847C114.332 55.8011 114.239 55.8949 114.123 55.9659C114.009 56.0341 113.881 56.0682 113.739 56.0682ZM113.739 51.2102C113.529 51.2102 113.349 51.1349 113.198 50.9844C113.048 50.8338 112.972 50.6534 112.972 50.4432C112.972 50.233 113.048 50.0526 113.198 49.902C113.349 49.7514 113.529 49.6761 113.739 49.6761C113.95 49.6761 114.13 49.7514 114.281 49.902C114.431 50.0526 114.506 50.233 114.506 50.4432C114.506 50.5824 114.471 50.7102 114.4 50.8267C114.332 50.9432 114.239 51.0369 114.123 51.108C114.009 51.1761 113.881 51.2102 113.739 51.2102ZM119.686 56V49.4545H120.658V50.4432H120.726C120.845 50.1193 121.061 49.8565 121.374 49.6548C121.686 49.4531 122.038 49.3523 122.43 49.3523C122.504 49.3523 122.597 49.3537 122.707 49.3565C122.818 49.3594 122.902 49.3636 122.959 49.3693V50.392C122.925 50.3835 122.847 50.3707 122.724 50.3537C122.605 50.3338 122.479 50.3239 122.345 50.3239C122.027 50.3239 121.743 50.3906 121.493 50.5241C121.246 50.6548 121.05 50.8366 120.905 51.0696C120.763 51.2997 120.692 51.5625 120.692 51.858V56H119.686ZM126.696 56.1364C126.065 56.1364 125.521 55.9972 125.064 55.7188C124.609 55.4375 124.259 55.0455 124.011 54.5426C123.767 54.0369 123.645 53.4489 123.645 52.7784C123.645 52.108 123.767 51.517 124.011 51.0057C124.259 50.4915 124.602 50.0909 125.043 49.804C125.486 49.5142 126.003 49.3693 126.594 49.3693C126.935 49.3693 127.271 49.4261 127.604 49.5398C127.936 49.6534 128.239 49.8381 128.511 50.0938C128.784 50.3466 129.001 50.6818 129.163 51.0994C129.325 51.517 129.406 52.0312 129.406 52.642V53.0682H124.361V52.1989H128.384C128.384 51.8295 128.31 51.5 128.162 51.2102C128.017 50.9205 127.81 50.6918 127.54 50.5241C127.273 50.3565 126.957 50.2727 126.594 50.2727C126.193 50.2727 125.847 50.3722 125.554 50.571C125.264 50.767 125.041 51.0227 124.885 51.3381C124.729 51.6534 124.651 51.9915 124.651 52.3523V52.9318C124.651 53.4261 124.736 53.8452 124.906 54.1889C125.08 54.5298 125.32 54.7898 125.626 54.9688C125.933 55.1449 126.29 55.233 126.696 55.233C126.96 55.233 127.199 55.196 127.412 55.1222C127.628 55.0455 127.814 54.9318 127.97 54.7812C128.126 54.6278 128.247 54.4375 128.332 54.2102L129.304 54.483C129.202 54.8125 129.03 55.1023 128.788 55.3523C128.547 55.5994 128.249 55.7926 127.893 55.9318C127.538 56.0682 127.139 56.1364 126.696 56.1364ZM133.408 56.1364C132.862 56.1364 132.381 55.9986 131.963 55.723C131.545 55.4446 131.219 55.0526 130.983 54.5469C130.747 54.0384 130.629 53.4375 130.629 52.7443C130.629 52.0568 130.747 51.4602 130.983 50.9545C131.219 50.4489 131.547 50.0582 131.967 49.7827C132.388 49.5071 132.874 49.3693 133.425 49.3693C133.851 49.3693 134.188 49.4403 134.435 49.5824C134.685 49.7216 134.875 49.8807 135.006 50.0597C135.139 50.2358 135.243 50.3807 135.317 50.4943H135.402V47.2727H136.408V56H135.436V54.9943H135.317C135.243 55.1136 135.138 55.2642 135.001 55.446C134.865 55.625 134.67 55.7855 134.418 55.9276C134.165 56.0668 133.828 56.1364 133.408 56.1364ZM133.544 55.233C133.947 55.233 134.288 55.1278 134.567 54.9176C134.845 54.7045 135.057 54.4105 135.202 54.0355C135.347 53.6577 135.419 53.2216 135.419 52.7273C135.419 52.2386 135.348 51.8111 135.206 51.4446C135.064 51.0753 134.854 50.7884 134.575 50.5838C134.297 50.3764 133.953 50.2727 133.544 50.2727C133.118 50.2727 132.763 50.3821 132.479 50.6009C132.197 50.8168 131.986 51.1108 131.844 51.483C131.705 51.8523 131.635 52.267 131.635 52.7273C131.635 53.1932 131.706 53.6165 131.848 53.9972C131.993 54.375 132.206 54.6761 132.487 54.9006C132.771 55.1222 133.124 55.233 133.544 55.233ZM139.889 54.8068L139.821 55.267C139.773 55.5909 139.699 55.9375 139.599 56.3068C139.503 56.6761 139.402 57.0241 139.297 57.3509C139.192 57.6776 139.105 57.9375 139.037 58.1307H138.27C138.307 57.9489 138.355 57.7088 138.415 57.4105C138.474 57.1122 138.534 56.7784 138.594 56.4091C138.656 56.0426 138.707 55.6676 138.747 55.2841L138.798 54.8068H139.889ZM139.276 51.2102C139.065 51.2102 138.885 51.1349 138.734 50.9844C138.584 50.8338 138.509 50.6534 138.509 50.4432C138.509 50.233 138.584 50.0526 138.734 49.902C138.885 49.7514 139.065 49.6761 139.276 49.6761C139.486 49.6761 139.666 49.7514 139.817 49.902C139.967 50.0526 140.043 50.233 140.043 50.4432C140.043 50.5824 140.007 50.7102 139.936 50.8267C139.868 50.9432 139.776 51.0369 139.659 51.108C139.545 51.1761 139.418 51.2102 139.276 51.2102ZM87.5852 64.4545V65.3068H84.0568V64.4545H87.5852ZM85.1136 71V63.5511C85.1136 63.1761 85.2017 62.8636 85.3778 62.6136C85.554 62.3636 85.7827 62.1761 86.0639 62.0511C86.3452 61.9261 86.642 61.8636 86.9545 61.8636C87.2017 61.8636 87.4034 61.8835 87.5597 61.9233C87.7159 61.9631 87.8324 62 87.9091 62.0341L87.6193 62.9034C87.5682 62.8864 87.4972 62.8651 87.4062 62.8395C87.3182 62.8139 87.2017 62.8011 87.0568 62.8011C86.7244 62.8011 86.4844 62.8849 86.3366 63.0526C86.1918 63.2202 86.1193 63.4659 86.1193 63.7898V71H85.1136ZM91.3842 71.1364C90.7933 71.1364 90.2749 70.9957 89.8288 70.7145C89.3857 70.4332 89.0391 70.0398 88.7891 69.5341C88.5419 69.0284 88.4183 68.4375 88.4183 67.7614C88.4183 67.0795 88.5419 66.4844 88.7891 65.9759C89.0391 65.4673 89.3857 65.0724 89.8288 64.7912C90.2749 64.5099 90.7933 64.3693 91.3842 64.3693C91.9751 64.3693 92.4922 64.5099 92.9354 64.7912C93.3814 65.0724 93.728 65.4673 93.9751 65.9759C94.2251 66.4844 94.3501 67.0795 94.3501 67.7614C94.3501 68.4375 94.2251 69.0284 93.9751 69.5341C93.728 70.0398 93.3814 70.4332 92.9354 70.7145C92.4922 70.9957 91.9751 71.1364 91.3842 71.1364ZM91.3842 70.233C91.8331 70.233 92.2024 70.1179 92.4922 69.8878C92.782 69.6577 92.9964 69.3551 93.1357 68.9801C93.2749 68.6051 93.3445 68.1989 93.3445 67.7614C93.3445 67.3239 93.2749 66.9162 93.1357 66.5384C92.9964 66.1605 92.782 65.8551 92.4922 65.6222C92.2024 65.3892 91.8331 65.2727 91.3842 65.2727C90.9354 65.2727 90.5661 65.3892 90.2763 65.6222C89.9865 65.8551 89.772 66.1605 89.6328 66.5384C89.4936 66.9162 89.424 67.3239 89.424 67.7614C89.424 68.1989 89.4936 68.6051 89.6328 68.9801C89.772 69.3551 89.9865 69.6577 90.2763 69.8878C90.5661 70.1179 90.9354 70.233 91.3842 70.233ZM96.891 67.0625V71H95.8853V64.4545H96.8569V65.4773H96.9421C97.0955 65.1449 97.3285 64.8778 97.641 64.6761C97.9535 64.4716 98.3569 64.3693 98.8512 64.3693C99.2944 64.3693 99.6822 64.4602 100.015 64.642C100.347 64.821 100.605 65.0938 100.79 65.4602C100.975 65.8239 101.067 66.2841 101.067 66.8409V71H100.061V66.9091C100.061 66.3949 99.9279 65.9943 99.6609 65.7074C99.3938 65.4176 99.0273 65.2727 98.5614 65.2727C98.2404 65.2727 97.9535 65.3423 97.7006 65.4815C97.4506 65.6207 97.2532 65.8239 97.1083 66.0909C96.9634 66.358 96.891 66.6818 96.891 67.0625ZM105.751 64.4545V65.3068H102.359V64.4545H105.751ZM103.348 62.8864H104.354V69.125C104.354 69.4091 104.395 69.6222 104.477 69.7642C104.563 69.9034 104.67 69.9972 104.801 70.0455C104.935 70.0909 105.075 70.1136 105.223 70.1136C105.334 70.1136 105.425 70.108 105.496 70.0966C105.567 70.0824 105.624 70.071 105.666 70.0625L105.871 70.9659C105.803 70.9915 105.707 71.017 105.585 71.0426C105.463 71.071 105.308 71.0852 105.121 71.0852C104.837 71.0852 104.558 71.0241 104.286 70.902C104.016 70.7798 103.791 70.5938 103.612 70.3438C103.436 70.0938 103.348 69.7784 103.348 69.3977V62.8864ZM110.78 66.7898V67.7273H106.962V66.7898H110.78ZM117.186 65.9205L116.282 66.1761C116.225 66.0256 116.142 65.8793 116.031 65.7372C115.923 65.5923 115.775 65.473 115.588 65.3793C115.4 65.2855 115.16 65.2386 114.868 65.2386C114.467 65.2386 114.133 65.331 113.866 65.5156C113.602 65.6974 113.47 65.929 113.47 66.2102C113.47 66.4602 113.561 66.6577 113.743 66.8026C113.924 66.9474 114.208 67.0682 114.595 67.1648L115.566 67.4034C116.152 67.5455 116.588 67.7628 116.875 68.0554C117.162 68.3452 117.305 68.7187 117.305 69.1761C117.305 69.5511 117.197 69.8864 116.981 70.1818C116.768 70.4773 116.47 70.7102 116.086 70.8807C115.703 71.0511 115.257 71.1364 114.748 71.1364C114.081 71.1364 113.528 70.9915 113.091 70.7017C112.653 70.4119 112.376 69.9886 112.26 69.4318L113.214 69.1932C113.305 69.5455 113.477 69.8097 113.73 69.9858C113.985 70.1619 114.319 70.25 114.731 70.25C115.2 70.25 115.572 70.1506 115.848 69.9517C116.126 69.75 116.265 69.5085 116.265 69.2273C116.265 69 116.186 68.8097 116.027 68.6562C115.868 68.5 115.623 68.3835 115.294 68.3068L114.203 68.0511C113.603 67.9091 113.163 67.6889 112.882 67.3906C112.603 67.0895 112.464 66.7131 112.464 66.2614C112.464 65.892 112.568 65.5653 112.775 65.2812C112.985 64.9972 113.271 64.7741 113.632 64.6122C113.995 64.4503 114.407 64.3693 114.868 64.3693C115.515 64.3693 116.024 64.5114 116.393 64.7955C116.765 65.0795 117.029 65.4545 117.186 65.9205ZM118.819 71V64.4545H119.825V71H118.819ZM119.33 63.3636C119.134 63.3636 118.965 63.2969 118.823 63.1634C118.684 63.0298 118.614 62.8693 118.614 62.6818C118.614 62.4943 118.684 62.3338 118.823 62.2003C118.965 62.0668 119.134 62 119.33 62C119.526 62 119.694 62.0668 119.833 62.2003C119.975 62.3338 120.046 62.4943 120.046 62.6818C120.046 62.8693 119.975 63.0298 119.833 63.1634C119.694 63.2969 119.526 63.3636 119.33 63.3636ZM121.479 71V70.233L125.195 65.4602V65.392H121.598V64.4545H126.49V65.2557L122.877 69.9943V70.0625H126.61V71H121.479ZM130.716 71.1364C130.085 71.1364 129.541 70.9972 129.083 70.7188C128.629 70.4375 128.278 70.0455 128.031 69.5426C127.787 69.0369 127.664 68.4489 127.664 67.7784C127.664 67.108 127.787 66.517 128.031 66.0057C128.278 65.4915 128.622 65.0909 129.062 64.804C129.505 64.5142 130.022 64.3693 130.613 64.3693C130.954 64.3693 131.291 64.4261 131.623 64.5398C131.956 64.6534 132.258 64.8381 132.531 65.0938C132.804 65.3466 133.021 65.6818 133.183 66.0994C133.345 66.517 133.426 67.0312 133.426 67.642V68.0682H128.38V67.1989H132.403C132.403 66.8295 132.329 66.5 132.181 66.2102C132.037 65.9205 131.829 65.6918 131.559 65.5241C131.292 65.3565 130.977 65.2727 130.613 65.2727C130.213 65.2727 129.866 65.3722 129.574 65.571C129.284 65.767 129.061 66.0227 128.904 66.3381C128.748 66.6534 128.67 66.9915 128.67 67.3523V67.9318C128.67 68.4261 128.755 68.8452 128.926 69.1889C129.099 69.5298 129.339 69.7898 129.646 69.9688C129.953 70.1449 130.309 70.233 130.716 70.233C130.98 70.233 131.218 70.196 131.431 70.1222C131.647 70.0455 131.833 69.9318 131.99 69.7812C132.146 69.6278 132.267 69.4375 132.352 69.2102L133.324 69.483C133.221 69.8125 133.049 70.1023 132.808 70.3523C132.566 70.5994 132.268 70.7926 131.913 70.9318C131.558 71.0682 131.159 71.1364 130.716 71.1364ZM135.689 71.0682C135.478 71.0682 135.298 70.9929 135.147 70.8423C134.997 70.6918 134.922 70.5114 134.922 70.3011C134.922 70.0909 134.997 69.9105 135.147 69.7599C135.298 69.6094 135.478 69.5341 135.689 69.5341C135.899 69.5341 136.079 69.6094 136.23 69.7599C136.38 69.9105 136.456 70.0909 136.456 70.3011C136.456 70.4403 136.42 70.5682 136.349 70.6847C136.281 70.8011 136.189 70.8949 136.072 70.9659C135.958 71.0341 135.831 71.0682 135.689 71.0682ZM135.689 66.2102C135.478 66.2102 135.298 66.1349 135.147 65.9844C134.997 65.8338 134.922 65.6534 134.922 65.4432C134.922 65.233 134.997 65.0526 135.147 64.902C135.298 64.7514 135.478 64.6761 135.689 64.6761C135.899 64.6761 136.079 64.7514 136.23 64.902C136.38 65.0526 136.456 65.233 136.456 65.4432C136.456 65.5824 136.42 65.7102 136.349 65.8267C136.281 65.9432 136.189 66.0369 136.072 66.108C135.958 66.1761 135.831 66.2102 135.689 66.2102ZM144.686 62.2727V71H143.63V63.3807H143.578L141.448 64.7955V63.7216L143.63 62.2727H144.686ZM146.992 69.2102V68.3409L150.827 62.2727H151.458V63.6193H151.032L148.134 68.2045V68.2727H153.299V69.2102H146.992ZM151.1 71V68.946V68.5412V62.2727H152.105V71H151.1ZM154.913 73.4545V64.4545H155.884V65.4943H156.004C156.077 65.3807 156.18 65.2358 156.31 65.0597C156.444 64.8807 156.634 64.7216 156.881 64.5824C157.131 64.4403 157.469 64.3693 157.896 64.3693C158.447 64.3693 158.933 64.5071 159.353 64.7827C159.773 65.0582 160.102 65.4489 160.337 65.9545C160.573 66.4602 160.691 67.0568 160.691 67.7443C160.691 68.4375 160.573 69.0384 160.337 69.5469C160.102 70.0526 159.775 70.4446 159.357 70.723C158.94 70.9986 158.458 71.1364 157.913 71.1364C157.492 71.1364 157.156 71.0668 156.903 70.9276C156.65 70.7855 156.455 70.625 156.319 70.446C156.183 70.2642 156.077 70.1136 156.004 69.9943H155.918V73.4545H154.913ZM155.901 67.7273C155.901 68.2216 155.974 68.6577 156.119 69.0355C156.263 69.4105 156.475 69.7045 156.754 69.9176C157.032 70.1278 157.373 70.233 157.776 70.233C158.197 70.233 158.548 70.1222 158.829 69.9006C159.113 69.6761 159.326 69.375 159.468 68.9972C159.613 68.6165 159.685 68.1932 159.685 67.7273C159.685 67.267 159.614 66.8523 159.472 66.483C159.333 66.1108 159.121 65.8168 158.837 65.6009C158.556 65.3821 158.202 65.2727 157.776 65.2727C157.367 65.2727 157.023 65.3764 156.745 65.5838C156.467 65.7884 156.256 66.0753 156.114 66.4446C155.972 66.8111 155.901 67.2386 155.901 67.7273ZM162.706 64.4545L164.274 67.1307L165.842 64.4545H167.001L164.887 67.7273L167.001 71H165.842L164.274 68.4602L162.706 71H161.547L163.626 67.7273L161.547 64.4545H162.706ZM169.936 69.8068L169.868 70.267C169.82 70.5909 169.746 70.9375 169.646 71.3068C169.55 71.6761 169.449 72.0241 169.344 72.3509C169.239 72.6776 169.152 72.9375 169.084 73.1307H168.317C168.354 72.9489 168.402 72.7088 168.462 72.4105C168.521 72.1122 168.581 71.7784 168.641 71.4091C168.703 71.0426 168.754 70.6676 168.794 70.2841L168.845 69.8068H169.936ZM169.322 66.2102C169.112 66.2102 168.932 66.1349 168.781 65.9844C168.631 65.8338 168.555 65.6534 168.555 65.4432C168.555 65.233 168.631 65.0526 168.781 64.902C168.932 64.7514 169.112 64.6761 169.322 64.6761C169.533 64.6761 169.713 64.7514 169.864 64.902C170.014 65.0526 170.089 65.233 170.089 65.4432C170.089 65.5824 170.054 65.7102 169.983 65.8267C169.915 65.9432 169.822 66.0369 169.706 66.108C169.592 66.1761 169.464 66.2102 169.322 66.2102Z" fill="#EF1C1C"/>
<path d="M41.7045 11.6136L41.1023 11.7841C41.0644 11.6837 41.0085 11.5862 40.9347 11.4915C40.8627 11.3949 40.7642 11.3153 40.6392 11.2528C40.5142 11.1903 40.3542 11.1591 40.1591 11.1591C39.892 11.1591 39.6695 11.2206 39.4915 11.3438C39.3153 11.465 39.2273 11.6193 39.2273 11.8068C39.2273 11.9735 39.2879 12.1051 39.4091 12.2017C39.5303 12.2983 39.7197 12.3788 39.9773 12.4432L40.625 12.6023C41.0152 12.697 41.3059 12.8419 41.4972 13.0369C41.6884 13.2301 41.7841 13.4792 41.7841 13.7841C41.7841 14.0341 41.7121 14.2576 41.5682 14.4545C41.4261 14.6515 41.2273 14.8068 40.9716 14.9205C40.7159 15.0341 40.4186 15.0909 40.0795 15.0909C39.6345 15.0909 39.2661 14.9943 38.9744 14.8011C38.6828 14.608 38.4981 14.3258 38.4205 13.9545L39.0568 13.7955C39.1174 14.0303 39.232 14.2064 39.4006 14.3239C39.571 14.4413 39.7936 14.5 40.0682 14.5C40.3807 14.5 40.6288 14.4337 40.8125 14.3011C40.9981 14.1667 41.0909 14.0057 41.0909 13.8182C41.0909 13.6667 41.0379 13.5398 40.9318 13.4375C40.8258 13.3333 40.6629 13.2557 40.4432 13.2045L39.7159 13.0341C39.3163 12.9394 39.0227 12.7926 38.8352 12.5938C38.6496 12.393 38.5568 12.142 38.5568 11.8409C38.5568 11.5947 38.6259 11.3769 38.7642 11.1875C38.9044 10.9981 39.0947 10.8494 39.3352 10.7415C39.5777 10.6335 39.8523 10.5795 40.1591 10.5795C40.5909 10.5795 40.9299 10.6742 41.1761 10.8636C41.4242 11.053 41.6004 11.303 41.7045 11.6136ZM44.6229 15.0909C44.2024 15.0909 43.8397 14.9981 43.5348 14.8125C43.2318 14.625 42.9979 14.3636 42.8331 14.0284C42.6702 13.6913 42.5888 13.2992 42.5888 12.8523C42.5888 12.4053 42.6702 12.0114 42.8331 11.6705C42.9979 11.3277 43.227 11.0606 43.5206 10.8693C43.8161 10.6761 44.1607 10.5795 44.5547 10.5795C44.782 10.5795 45.0064 10.6174 45.228 10.6932C45.4496 10.7689 45.6513 10.892 45.8331 11.0625C46.0149 11.2311 46.1598 11.4545 46.2678 11.733C46.3757 12.0114 46.4297 12.3542 46.4297 12.7614V13.0455H43.0661V12.4659H45.7479C45.7479 12.2197 45.6986 12 45.6001 11.8068C45.5036 11.6136 45.3653 11.4612 45.1854 11.3494C45.0073 11.2377 44.7971 11.1818 44.5547 11.1818C44.2876 11.1818 44.0566 11.2481 43.8615 11.3807C43.6683 11.5114 43.5196 11.6818 43.4155 11.892C43.3113 12.1023 43.2592 12.3277 43.2592 12.5682V12.9545C43.2592 13.2841 43.3161 13.5634 43.4297 13.7926C43.5452 14.0199 43.7053 14.1932 43.9098 14.3125C44.1143 14.4299 44.352 14.4886 44.6229 14.4886C44.799 14.4886 44.9581 14.464 45.1001 14.4148C45.2441 14.3636 45.3681 14.2879 45.4723 14.1875C45.5765 14.0852 45.657 13.9583 45.7138 13.8068L46.3615 13.9886C46.2933 14.2083 46.1787 14.4015 46.0178 14.5682C45.8568 14.733 45.6579 14.8617 45.4212 14.9545C45.1844 15.0455 44.9183 15.0909 44.6229 15.0909ZM48.12 9.18182V15H47.4496V9.18182H48.12ZM51.1776 15.0909C50.7571 15.0909 50.3944 14.9981 50.0895 14.8125C49.7865 14.625 49.5526 14.3636 49.3878 14.0284C49.2249 13.6913 49.1435 13.2992 49.1435 12.8523C49.1435 12.4053 49.2249 12.0114 49.3878 11.6705C49.5526 11.3277 49.7817 11.0606 50.0753 10.8693C50.3707 10.6761 50.7154 10.5795 51.1094 10.5795C51.3366 10.5795 51.5611 10.6174 51.7827 10.6932C52.0043 10.7689 52.206 10.892 52.3878 11.0625C52.5696 11.2311 52.7145 11.4545 52.8224 11.733C52.9304 12.0114 52.9844 12.3542 52.9844 12.7614V13.0455H49.6207V12.4659H52.3026C52.3026 12.2197 52.2533 12 52.1548 11.8068C52.0582 11.6136 51.92 11.4612 51.7401 11.3494C51.562 11.2377 51.3518 11.1818 51.1094 11.1818C50.8423 11.1818 50.6113 11.2481 50.4162 11.3807C50.223 11.5114 50.0743 11.6818 49.9702 11.892C49.866 12.1023 49.8139 12.3277 49.8139 12.5682V12.9545C49.8139 13.2841 49.8707 13.5634 49.9844 13.7926C50.0999 14.0199 50.2599 14.1932 50.4645 14.3125C50.669 14.4299 50.9067 14.4886 51.1776 14.4886C51.3537 14.4886 51.5128 14.464 51.6548 14.4148C51.7988 14.3636 51.9228 14.2879 52.027 14.1875C52.1312 14.0852 52.2116 13.9583 52.2685 13.8068L52.9162 13.9886C52.848 14.2083 52.7334 14.4015 52.5724 14.5682C52.4115 14.733 52.2126 14.8617 51.9759 14.9545C51.7391 15.0455 51.473 15.0909 51.1776 15.0909ZM55.777 15.0909C55.3679 15.0909 55.0156 14.9943 54.7202 14.8011C54.4247 14.608 54.1974 14.3419 54.0384 14.0028C53.8793 13.6638 53.7997 13.2765 53.7997 12.8409C53.7997 12.3977 53.8812 12.0066 54.044 11.6676C54.2088 11.3267 54.438 11.0606 54.7315 10.8693C55.027 10.6761 55.3717 10.5795 55.7656 10.5795C56.0724 10.5795 56.349 10.6364 56.5952 10.75C56.8414 10.8636 57.0431 11.0227 57.2003 11.2273C57.3575 11.4318 57.455 11.6705 57.4929 11.9432H56.8224C56.7713 11.7443 56.6577 11.5682 56.4815 11.4148C56.3073 11.2595 56.0724 11.1818 55.777 11.1818C55.5156 11.1818 55.2865 11.25 55.0895 11.3864C54.8944 11.5208 54.742 11.7112 54.6321 11.9574C54.5241 12.2017 54.4702 12.4886 54.4702 12.8182C54.4702 13.1553 54.5232 13.4489 54.6293 13.6989C54.7372 13.9489 54.8887 14.143 55.0838 14.2812C55.2808 14.4195 55.5118 14.4886 55.777 14.4886C55.9512 14.4886 56.1094 14.4583 56.2514 14.3977C56.3935 14.3371 56.5137 14.25 56.6122 14.1364C56.7107 14.0227 56.7808 13.8864 56.8224 13.7273H57.4929C57.455 13.9848 57.3613 14.2169 57.2116 14.4233C57.0639 14.6278 56.8679 14.7907 56.6236 14.9119C56.3812 15.0312 56.099 15.0909 55.777 15.0909ZM60.3707 10.6364V11.2045H58.1094V10.6364H60.3707ZM58.7685 9.59091H59.4389V13.75C59.4389 13.9394 59.4664 14.0814 59.5213 14.1761C59.5781 14.2689 59.6501 14.3314 59.7372 14.3636C59.8262 14.3939 59.92 14.4091 60.0185 14.4091C60.0923 14.4091 60.1529 14.4053 60.2003 14.3977C60.2476 14.3883 60.2855 14.3807 60.3139 14.375L60.4503 14.9773C60.4048 14.9943 60.3414 15.0114 60.2599 15.0284C60.1785 15.0473 60.0753 15.0568 59.9503 15.0568C59.7609 15.0568 59.5753 15.0161 59.3935 14.9347C59.2135 14.8532 59.0639 14.7292 58.9446 14.5625C58.8272 14.3958 58.7685 14.1856 58.7685 13.9318V9.59091ZM63.1051 15.0909C62.7112 15.0909 62.3655 14.9972 62.0682 14.8097C61.7727 14.6222 61.5417 14.3598 61.375 14.0227C61.2102 13.6856 61.1278 13.2917 61.1278 12.8409C61.1278 12.3864 61.2102 11.9896 61.375 11.6506C61.5417 11.3116 61.7727 11.0483 62.0682 10.8608C62.3655 10.6733 62.7112 10.5795 63.1051 10.5795C63.4991 10.5795 63.8438 10.6733 64.1392 10.8608C64.4366 11.0483 64.6676 11.3116 64.8324 11.6506C64.9991 11.9896 65.0824 12.3864 65.0824 12.8409C65.0824 13.2917 64.9991 13.6856 64.8324 14.0227C64.6676 14.3598 64.4366 14.6222 64.1392 14.8097C63.8438 14.9972 63.4991 15.0909 63.1051 15.0909ZM63.1051 14.4886C63.4044 14.4886 63.6506 14.4119 63.8438 14.2585C64.0369 14.1051 64.1799 13.9034 64.2727 13.6534C64.3655 13.4034 64.4119 13.1326 64.4119 12.8409C64.4119 12.5492 64.3655 12.2775 64.2727 12.0256C64.1799 11.7737 64.0369 11.5701 63.8438 11.4148C63.6506 11.2595 63.4044 11.1818 63.1051 11.1818C62.8059 11.1818 62.5597 11.2595 62.3665 11.4148C62.1733 11.5701 62.0303 11.7737 61.9375 12.0256C61.8447 12.2775 61.7983 12.5492 61.7983 12.8409C61.7983 13.1326 61.8447 13.4034 61.9375 13.6534C62.0303 13.9034 62.1733 14.1051 62.3665 14.2585C62.5597 14.4119 62.8059 14.4886 63.1051 14.4886ZM66.1058 15V10.6364H66.7536V11.2955H66.799C66.8786 11.0795 67.0225 10.9044 67.2308 10.7699C67.4392 10.6354 67.674 10.5682 67.9354 10.5682C67.9846 10.5682 68.0462 10.5691 68.12 10.571C68.1939 10.5729 68.2498 10.5758 68.2876 10.5795V11.2614C68.2649 11.2557 68.2128 11.2472 68.1314 11.2358C68.0518 11.2225 67.9676 11.2159 67.8786 11.2159C67.6664 11.2159 67.477 11.2604 67.3104 11.3494C67.1456 11.4366 67.0149 11.5578 66.9183 11.7131C66.8236 11.8665 66.7763 12.0417 66.7763 12.2386V15H66.1058Z" fill="#269EF4"/>
<path d="M222.705 60.6136L222.102 60.7841C222.064 60.6837 222.009 60.5862 221.935 60.4915C221.863 60.3949 221.764 60.3153 221.639 60.2528C221.514 60.1903 221.354 60.1591 221.159 60.1591C220.892 60.1591 220.67 60.2206 220.491 60.3438C220.315 60.465 220.227 60.6193 220.227 60.8068C220.227 60.9735 220.288 61.1051 220.409 61.2017C220.53 61.2983 220.72 61.3788 220.977 61.4432L221.625 61.6023C222.015 61.697 222.306 61.8419 222.497 62.0369C222.688 62.2301 222.784 62.4792 222.784 62.7841C222.784 63.0341 222.712 63.2576 222.568 63.4545C222.426 63.6515 222.227 63.8068 221.972 63.9205C221.716 64.0341 221.419 64.0909 221.08 64.0909C220.634 64.0909 220.266 63.9943 219.974 63.8011C219.683 63.608 219.498 63.3258 219.42 62.9545L220.057 62.7955C220.117 63.0303 220.232 63.2064 220.401 63.3239C220.571 63.4413 220.794 63.5 221.068 63.5C221.381 63.5 221.629 63.4337 221.812 63.3011C221.998 63.1667 222.091 63.0057 222.091 62.8182C222.091 62.6667 222.038 62.5398 221.932 62.4375C221.826 62.3333 221.663 62.2557 221.443 62.2045L220.716 62.0341C220.316 61.9394 220.023 61.7926 219.835 61.5938C219.65 61.393 219.557 61.142 219.557 60.8409C219.557 60.5947 219.626 60.3769 219.764 60.1875C219.904 59.9981 220.095 59.8494 220.335 59.7415C220.578 59.6335 220.852 59.5795 221.159 59.5795C221.591 59.5795 221.93 59.6742 222.176 59.8636C222.424 60.053 222.6 60.303 222.705 60.6136ZM225.566 64.0909C225.157 64.0909 224.805 63.9943 224.509 63.8011C224.214 63.608 223.987 63.3419 223.827 63.0028C223.668 62.6638 223.589 62.2765 223.589 61.8409C223.589 61.3977 223.67 61.0066 223.833 60.6676C223.998 60.3267 224.227 60.0606 224.521 59.8693C224.816 59.6761 225.161 59.5795 225.555 59.5795C225.862 59.5795 226.138 59.6364 226.384 59.75C226.63 59.8636 226.832 60.0227 226.989 60.2273C227.147 60.4318 227.244 60.6705 227.282 60.9432H226.612C226.56 60.7443 226.447 60.5682 226.271 60.4148C226.096 60.2595 225.862 60.1818 225.566 60.1818C225.305 60.1818 225.076 60.25 224.879 60.3864C224.683 60.5208 224.531 60.7112 224.421 60.9574C224.313 61.2017 224.259 61.4886 224.259 61.8182C224.259 62.1553 224.312 62.4489 224.418 62.6989C224.526 62.9489 224.678 63.143 224.873 63.2812C225.07 63.4195 225.301 63.4886 225.566 63.4886C225.74 63.4886 225.898 63.4583 226.04 63.3977C226.183 63.3371 226.303 63.25 226.401 63.1364C226.5 63.0227 226.57 62.8864 226.612 62.7273H227.282C227.244 62.9848 227.15 63.2169 227.001 63.4233C226.853 63.6278 226.657 63.7907 226.413 63.9119C226.17 64.0312 225.888 64.0909 225.566 64.0909ZM230.035 64.0909C229.641 64.0909 229.295 63.9972 228.998 63.8097C228.702 63.6222 228.471 63.3598 228.305 63.0227C228.14 62.6856 228.058 62.2917 228.058 61.8409C228.058 61.3864 228.14 60.9896 228.305 60.6506C228.471 60.3116 228.702 60.0483 228.998 59.8608C229.295 59.6733 229.641 59.5795 230.035 59.5795C230.429 59.5795 230.773 59.6733 231.069 59.8608C231.366 60.0483 231.597 60.3116 231.762 60.6506C231.929 60.9896 232.012 61.3864 232.012 61.8409C232.012 62.2917 231.929 62.6856 231.762 63.0227C231.597 63.3598 231.366 63.6222 231.069 63.8097C230.773 63.9972 230.429 64.0909 230.035 64.0909ZM230.035 63.4886C230.334 63.4886 230.58 63.4119 230.773 63.2585C230.967 63.1051 231.11 62.9034 231.202 62.6534C231.295 62.4034 231.342 62.1326 231.342 61.8409C231.342 61.5492 231.295 61.2775 231.202 61.0256C231.11 60.7737 230.967 60.5701 230.773 60.4148C230.58 60.2595 230.334 60.1818 230.035 60.1818C229.736 60.1818 229.489 60.2595 229.296 60.4148C229.103 60.5701 228.96 60.7737 228.867 61.0256C228.774 61.2775 228.728 61.5492 228.728 61.8409C228.728 62.1326 228.774 62.4034 228.867 62.6534C228.96 62.9034 229.103 63.1051 229.296 63.2585C229.489 63.4119 229.736 63.4886 230.035 63.4886ZM233.036 65.6364V59.6364H233.683V60.3295H233.763C233.812 60.2538 233.88 60.1572 233.967 60.0398C234.056 59.9205 234.183 59.8144 234.348 59.7216C234.515 59.6269 234.74 59.5795 235.024 59.5795C235.392 59.5795 235.715 59.6714 235.996 59.8551C236.276 60.0388 236.495 60.2992 236.652 60.6364C236.809 60.9735 236.888 61.3712 236.888 61.8295C236.888 62.2917 236.809 62.6922 236.652 63.0312C236.495 63.3684 236.277 63.6297 235.999 63.8153C235.72 63.9991 235.399 64.0909 235.036 64.0909C234.755 64.0909 234.531 64.0445 234.362 63.9517C234.194 63.857 234.064 63.75 233.973 63.6307C233.882 63.5095 233.812 63.4091 233.763 63.3295H233.706V65.6364H233.036ZM233.695 61.8182C233.695 62.1477 233.743 62.4384 233.839 62.6903C233.936 62.9403 234.077 63.1364 234.263 63.2784C234.448 63.4186 234.676 63.4886 234.945 63.4886C235.225 63.4886 235.459 63.4148 235.646 63.267C235.836 63.1174 235.978 62.9167 236.072 62.6648C236.169 62.411 236.217 62.1288 236.217 61.8182C236.217 61.5114 236.17 61.2348 236.075 60.9886C235.982 60.7405 235.841 60.5445 235.652 60.4006C235.464 60.2547 235.229 60.1818 234.945 60.1818C234.672 60.1818 234.443 60.2509 234.257 60.3892C234.071 60.5256 233.931 60.7169 233.837 60.9631C233.742 61.2074 233.695 61.4924 233.695 61.8182ZM239.74 64.0909C239.32 64.0909 238.957 63.9981 238.652 63.8125C238.349 63.625 238.115 63.3636 237.95 63.0284C237.787 62.6913 237.706 62.2992 237.706 61.8523C237.706 61.4053 237.787 61.0114 237.95 60.6705C238.115 60.3277 238.344 60.0606 238.638 59.8693C238.933 59.6761 239.278 59.5795 239.672 59.5795C239.899 59.5795 240.124 59.6174 240.345 59.6932C240.567 59.7689 240.768 59.892 240.95 60.0625C241.132 60.2311 241.277 60.4545 241.385 60.733C241.493 61.0114 241.547 61.3542 241.547 61.7614V62.0455H238.183V61.4659H240.865C240.865 61.2197 240.816 61 240.717 60.8068C240.621 60.6136 240.482 60.4612 240.303 60.3494C240.125 60.2377 239.914 60.1818 239.672 60.1818C239.405 60.1818 239.174 60.2481 238.979 60.3807C238.786 60.5114 238.637 60.6818 238.533 60.892C238.429 61.1023 238.376 61.3277 238.376 61.5682V61.9545C238.376 62.2841 238.433 62.5634 238.547 62.7926C238.662 63.0199 238.822 63.1932 239.027 63.3125C239.232 63.4299 239.469 63.4886 239.74 63.4886C239.916 63.4886 240.075 63.464 240.217 63.4148C240.361 63.3636 240.485 63.2879 240.589 63.1875C240.694 63.0852 240.774 62.9583 240.831 62.8068L241.479 62.9886C241.411 63.2083 241.296 63.4015 241.135 63.5682C240.974 63.733 240.775 63.8617 240.538 63.9545C240.302 64.0455 240.036 64.0909 239.74 64.0909Z" fill="#27D6A1"/>
<path d="M8.61364 63.6364V57.6364H9.26136V58.3295H9.34091C9.39015 58.2538 9.45833 58.1572 9.54545 58.0398C9.63447 57.9205 9.76136 57.8144 9.92614 57.7216C10.0928 57.6269 10.3182 57.5795 10.6023 57.5795C10.9697 57.5795 11.2936 57.6714 11.5739 57.8551C11.8542 58.0388 12.0729 58.2992 12.2301 58.6364C12.3873 58.9735 12.4659 59.3712 12.4659 59.8295C12.4659 60.2917 12.3873 60.6922 12.2301 61.0312C12.0729 61.3684 11.8551 61.6297 11.5767 61.8153C11.2983 61.9991 10.9773 62.0909 10.6136 62.0909C10.3333 62.0909 10.1089 62.0445 9.94034 61.9517C9.77178 61.857 9.64205 61.75 9.55114 61.6307C9.46023 61.5095 9.39015 61.4091 9.34091 61.3295H9.28409V63.6364H8.61364ZM9.27273 59.8182C9.27273 60.1477 9.32102 60.4384 9.41761 60.6903C9.5142 60.9403 9.6553 61.1364 9.84091 61.2784C10.0265 61.4186 10.2538 61.4886 10.5227 61.4886C10.803 61.4886 11.0369 61.4148 11.2244 61.267C11.4138 61.1174 11.5559 60.9167 11.6506 60.6648C11.7472 60.411 11.7955 60.1288 11.7955 59.8182C11.7955 59.5114 11.7481 59.2348 11.6534 58.9886C11.5606 58.7405 11.4195 58.5445 11.2301 58.4006C11.0426 58.2547 10.8068 58.1818 10.5227 58.1818C10.25 58.1818 10.0208 58.2509 9.83523 58.3892C9.64962 58.5256 9.50947 58.7169 9.41477 58.9631C9.32008 59.2074 9.27273 59.4924 9.27273 59.8182ZM13.4886 62V57.6364H14.1364V58.2955H14.1818C14.2614 58.0795 14.4053 57.9044 14.6136 57.7699C14.822 57.6354 15.0568 57.5682 15.3182 57.5682C15.3674 57.5682 15.429 57.5691 15.5028 57.571C15.5767 57.5729 15.6326 57.5758 15.6705 57.5795V58.2614C15.6477 58.2557 15.5956 58.2472 15.5142 58.2358C15.4347 58.2225 15.3504 58.2159 15.2614 58.2159C15.0492 58.2159 14.8598 58.2604 14.6932 58.3494C14.5284 58.4366 14.3977 58.5578 14.3011 58.7131C14.2064 58.8665 14.1591 59.0417 14.1591 59.2386V62H13.4886ZM18.1051 62.0909C17.7112 62.0909 17.3655 61.9972 17.0682 61.8097C16.7727 61.6222 16.5417 61.3598 16.375 61.0227C16.2102 60.6856 16.1278 60.2917 16.1278 59.8409C16.1278 59.3864 16.2102 58.9896 16.375 58.6506C16.5417 58.3116 16.7727 58.0483 17.0682 57.8608C17.3655 57.6733 17.7112 57.5795 18.1051 57.5795C18.4991 57.5795 18.8438 57.6733 19.1392 57.8608C19.4366 58.0483 19.6676 58.3116 19.8324 58.6506C19.9991 58.9896 20.0824 59.3864 20.0824 59.8409C20.0824 60.2917 19.9991 60.6856 19.8324 61.0227C19.6676 61.3598 19.4366 61.6222 19.1392 61.8097C18.8438 61.9972 18.4991 62.0909 18.1051 62.0909ZM18.1051 61.4886C18.4044 61.4886 18.6506 61.4119 18.8438 61.2585C19.0369 61.1051 19.1799 60.9034 19.2727 60.6534C19.3655 60.4034 19.4119 60.1326 19.4119 59.8409C19.4119 59.5492 19.3655 59.2775 19.2727 59.0256C19.1799 58.7737 19.0369 58.5701 18.8438 58.4148C18.6506 58.2595 18.4044 58.1818 18.1051 58.1818C17.8059 58.1818 17.5597 58.2595 17.3665 58.4148C17.1733 58.5701 17.0303 58.7737 16.9375 59.0256C16.8447 59.2775 16.7983 59.5492 16.7983 59.8409C16.7983 60.1326 16.8447 60.4034 16.9375 60.6534C17.0303 60.9034 17.1733 61.1051 17.3665 61.2585C17.5597 61.4119 17.8059 61.4886 18.1051 61.4886ZM21.1058 63.6364V57.6364H21.7536V58.3295H21.8331C21.8823 58.2538 21.9505 58.1572 22.0376 58.0398C22.1267 57.9205 22.2536 57.8144 22.4183 57.7216C22.585 57.6269 22.8104 57.5795 23.0945 57.5795C23.4619 57.5795 23.7857 57.6714 24.0661 57.8551C24.3464 58.0388 24.5651 58.2992 24.7223 58.6364C24.8795 58.9735 24.9581 59.3712 24.9581 59.8295C24.9581 60.2917 24.8795 60.6922 24.7223 61.0312C24.5651 61.3684 24.3473 61.6297 24.0689 61.8153C23.7905 61.9991 23.4695 62.0909 23.1058 62.0909C22.8255 62.0909 22.6011 62.0445 22.4325 61.9517C22.264 61.857 22.1342 61.75 22.0433 61.6307C21.9524 61.5095 21.8823 61.4091 21.8331 61.3295H21.7763V63.6364H21.1058ZM21.7649 59.8182C21.7649 60.1477 21.8132 60.4384 21.9098 60.6903C22.0064 60.9403 22.1475 61.1364 22.3331 61.2784C22.5187 61.4186 22.746 61.4886 23.0149 61.4886C23.2952 61.4886 23.5291 61.4148 23.7166 61.267C23.906 61.1174 24.0481 60.9167 24.1428 60.6648C24.2393 60.411 24.2876 60.1288 24.2876 59.8182C24.2876 59.5114 24.2403 59.2348 24.1456 58.9886C24.0528 58.7405 23.9117 58.5445 23.7223 58.4006C23.5348 58.2547 23.299 58.1818 23.0149 58.1818C22.7422 58.1818 22.513 58.2509 22.3274 58.3892C22.1418 58.5256 22.0017 58.7169 21.907 58.9631C21.8123 59.2074 21.7649 59.4924 21.7649 59.8182ZM27.8104 62.0909C27.3899 62.0909 27.0272 61.9981 26.7223 61.8125C26.4193 61.625 26.1854 61.3636 26.0206 61.0284C25.8577 60.6913 25.7763 60.2992 25.7763 59.8523C25.7763 59.4053 25.8577 59.0114 26.0206 58.6705C26.1854 58.3277 26.4145 58.0606 26.7081 57.8693C27.0036 57.6761 27.3482 57.5795 27.7422 57.5795C27.9695 57.5795 28.1939 57.6174 28.4155 57.6932C28.6371 57.7689 28.8388 57.892 29.0206 58.0625C29.2024 58.2311 29.3473 58.4545 29.4553 58.733C29.5632 59.0114 29.6172 59.3542 29.6172 59.7614V60.0455H26.2536V59.4659H28.9354C28.9354 59.2197 28.8861 59 28.7876 58.8068C28.6911 58.6136 28.5528 58.4612 28.3729 58.3494C28.1948 58.2377 27.9846 58.1818 27.7422 58.1818C27.4751 58.1818 27.2441 58.2481 27.049 58.3807C26.8558 58.5114 26.7071 58.6818 26.603 58.892C26.4988 59.1023 26.4467 59.3277 26.4467 59.5682V59.9545C26.4467 60.2841 26.5036 60.5634 26.6172 60.7926C26.7327 61.0199 26.8928 61.1932 27.0973 61.3125C27.3018 61.4299 27.5395 61.4886 27.8104 61.4886C27.9865 61.4886 28.1456 61.464 28.2876 61.4148C28.4316 61.3636 28.5556 61.2879 28.6598 61.1875C28.764 61.0852 28.8445 60.9583 28.9013 60.8068L29.549 60.9886C29.4808 61.2083 29.3662 61.4015 29.2053 61.5682C29.0443 61.733 28.8454 61.8617 28.6087 61.9545C28.3719 62.0455 28.1058 62.0909 27.8104 62.0909ZM30.6371 62V57.6364H31.2848V58.2955H31.3303C31.4098 58.0795 31.5537 57.9044 31.7621 57.7699C31.9704 57.6354 32.2053 57.5682 32.4666 57.5682C32.5159 57.5682 32.5774 57.5691 32.6513 57.571C32.7251 57.5729 32.781 57.5758 32.8189 57.5795V58.2614C32.7962 58.2557 32.7441 58.2472 32.6626 58.2358C32.5831 58.2225 32.4988 58.2159 32.4098 58.2159C32.1977 58.2159 32.0083 58.2604 31.8416 58.3494C31.6768 58.4366 31.5462 58.5578 31.4496 58.7131C31.3549 58.8665 31.3075 59.0417 31.3075 59.2386V62H30.6371ZM35.7848 57.6364V58.2045H33.5234V57.6364H35.7848ZM34.1825 56.5909H34.853V60.75C34.853 60.9394 34.8804 61.0814 34.9354 61.1761C34.9922 61.2689 35.0642 61.3314 35.1513 61.3636C35.2403 61.3939 35.334 61.4091 35.4325 61.4091C35.5064 61.4091 35.567 61.4053 35.6143 61.3977C35.6617 61.3883 35.6996 61.3807 35.728 61.375L35.8643 61.9773C35.8189 61.9943 35.7554 62.0114 35.674 62.0284C35.5926 62.0473 35.4893 62.0568 35.3643 62.0568C35.175 62.0568 34.9893 62.0161 34.8075 61.9347C34.6276 61.8532 34.478 61.7292 34.3587 61.5625C34.2412 61.3958 34.1825 61.1856 34.1825 60.9318V56.5909ZM36.7933 62V57.6364H37.4638V62H36.7933ZM37.1342 56.9091C37.0036 56.9091 36.8909 56.8646 36.7962 56.7756C36.7034 56.6866 36.657 56.5795 36.657 56.4545C36.657 56.3295 36.7034 56.2225 36.7962 56.1335C36.8909 56.0445 37.0036 56 37.1342 56C37.2649 56 37.3767 56.0445 37.4695 56.1335C37.5642 56.2225 37.6115 56.3295 37.6115 56.4545C37.6115 56.5795 37.5642 56.6866 37.4695 56.7756C37.3767 56.8646 37.2649 56.9091 37.1342 56.9091ZM40.5213 62.0909C40.1009 62.0909 39.7382 61.9981 39.4332 61.8125C39.1302 61.625 38.8963 61.3636 38.7315 61.0284C38.5687 60.6913 38.4872 60.2992 38.4872 59.8523C38.4872 59.4053 38.5687 59.0114 38.7315 58.6705C38.8963 58.3277 39.1255 58.0606 39.419 57.8693C39.7145 57.6761 40.0592 57.5795 40.4531 57.5795C40.6804 57.5795 40.9048 57.6174 41.1264 57.6932C41.348 57.7689 41.5497 57.892 41.7315 58.0625C41.9134 58.2311 42.0582 58.4545 42.1662 58.733C42.2741 59.0114 42.3281 59.3542 42.3281 59.7614V60.0455H38.9645V59.4659H41.6463C41.6463 59.2197 41.5971 59 41.4986 58.8068C41.402 58.6136 41.2637 58.4612 41.0838 58.3494C40.9058 58.2377 40.6955 58.1818 40.4531 58.1818C40.1861 58.1818 39.955 58.2481 39.7599 58.3807C39.5668 58.5114 39.4181 58.6818 39.3139 58.892C39.2098 59.1023 39.1577 59.3277 39.1577 59.5682V59.9545C39.1577 60.2841 39.2145 60.5634 39.3281 60.7926C39.4437 61.0199 39.6037 61.1932 39.8082 61.3125C40.0128 61.4299 40.2505 61.4886 40.5213 61.4886C40.6974 61.4886 40.8565 61.464 40.9986 61.4148C41.1425 61.3636 41.2666 61.2879 41.3707 61.1875C41.4749 61.0852 41.5554 60.9583 41.6122 60.8068L42.2599 60.9886C42.1918 61.2083 42.0772 61.4015 41.9162 61.5682C41.7552 61.733 41.5563 61.8617 41.3196 61.9545C41.0829 62.0455 40.8168 62.0909 40.5213 62.0909ZM46.4389 58.6136L45.8366 58.7841C45.7988 58.6837 45.7429 58.5862 45.669 58.4915C45.5971 58.3949 45.4986 58.3153 45.3736 58.2528C45.2486 58.1903 45.0885 58.1591 44.8935 58.1591C44.6264 58.1591 44.4039 58.2206 44.2259 58.3438C44.0497 58.465 43.9616 58.6193 43.9616 58.8068C43.9616 58.9735 44.0223 59.1051 44.1435 59.2017C44.2647 59.2983 44.4541 59.3788 44.7116 59.4432L45.3594 59.6023C45.7495 59.697 46.0402 59.8419 46.2315 60.0369C46.4228 60.2301 46.5185 60.4792 46.5185 60.7841C46.5185 61.0341 46.4465 61.2576 46.3026 61.4545C46.1605 61.6515 45.9616 61.8068 45.706 61.9205C45.4503 62.0341 45.1529 62.0909 44.8139 62.0909C44.3688 62.0909 44.0005 61.9943 43.7088 61.8011C43.4171 61.608 43.2325 61.3258 43.1548 60.9545L43.7912 60.7955C43.8518 61.0303 43.9664 61.2064 44.1349 61.3239C44.3054 61.4413 44.5279 61.5 44.8026 61.5C45.1151 61.5 45.3632 61.4337 45.5469 61.3011C45.7325 61.1667 45.8253 61.0057 45.8253 60.8182C45.8253 60.6667 45.7723 60.5398 45.6662 60.4375C45.5601 60.3333 45.3973 60.2557 45.1776 60.2045L44.4503 60.0341C44.0507 59.9394 43.7571 59.7926 43.5696 59.5938C43.384 59.393 43.2912 59.142 43.2912 58.8409C43.2912 58.5947 43.3603 58.3769 43.4986 58.1875C43.6387 57.9981 43.8291 57.8494 44.0696 57.7415C44.312 57.6335 44.5866 57.5795 44.8935 57.5795C45.3253 57.5795 45.6643 57.6742 45.9105 57.8636C46.1586 58.053 46.3348 58.303 46.4389 58.6136Z" fill="#EF1C1C"/>
<path d="M74.0981 31.4903C74.3688 31.4361 74.5444 31.1727 74.4903 30.9019L73.6078 26.4893C73.5536 26.2185 73.2902 26.0429 73.0194 26.0971C72.7486 26.1513 72.573 26.4147 72.6272 26.6854L73.4117 30.6078L69.4893 31.3922C69.2185 31.4464 69.0429 31.7098 69.0971 31.9806C69.1513 32.2514 69.4147 32.427 69.6854 32.3728L74.0981 31.4903ZM52.7226 17.416L73.7227 31.416L74.2774 30.584L53.2774 16.584L52.7226 17.416Z" fill="#269EF4"/>
<path d="M76.9201 52.7711C77.0699 52.539 77.0031 52.2296 76.7711 52.0799L72.9897 49.6403C72.7577 49.4906 72.4482 49.5573 72.2985 49.7894C72.1488 50.0214 72.2156 50.3309 72.4476 50.4806L75.8088 52.6491L73.6403 56.0103C73.4906 56.2423 73.5573 56.5518 73.7894 56.7015C74.0214 56.8512 74.3309 56.7845 74.4806 56.5524L76.9201 52.7711ZM51.1054 58.4888L76.6054 52.9888L76.3946 52.0113L50.8946 57.5112L51.1054 58.4888Z" fill="#EF1C1C"/>
<path d="M77.2668 67.9229C77.5003 67.7756 77.5702 67.4668 77.4229 67.2333L75.0221 63.4272C74.8748 63.1936 74.5661 63.1237 74.3325 63.271C74.0989 63.4184 74.029 63.7271 74.1763 63.9607L76.3104 67.3439L72.9272 69.4779C72.6936 69.6252 72.6237 69.934 72.771 70.1675C72.9183 70.4011 73.2271 70.471 73.4607 70.3237L77.2668 67.9229ZM50.3896 61.9877L76.8896 67.9877L77.1104 67.0124L50.6104 61.0123L50.3896 61.9877Z" fill="#EF1C1C"/>
<path d="M111.646 36.6464C111.451 36.8417 111.451 37.1583 111.646 37.3536L114.828 40.5355C115.024 40.7308 115.34 40.7308 115.536 40.5355C115.731 40.3403 115.731 40.0237 115.536 39.8284L112.707 37L115.536 34.1716C115.731 33.9763 115.731 33.6597 115.536 33.4645C115.34 33.2692 115.024 33.2692 114.828 33.4645L111.646 36.6464ZM212 36.5L112 36.5V37.5L212 37.5V36.5Z" fill="#27D6A1"/>
<path d="M111.646 82.6464C111.451 82.8417 111.451 83.1583 111.646 83.3536L114.828 86.5355C115.024 86.7308 115.34 86.7308 115.536 86.5355C115.731 86.3403 115.731 86.0237 115.536 85.8284L112.707 83L115.536 80.1716C115.731 79.9763 115.731 79.6597 115.536 79.4645C115.34 79.2692 115.024 79.2692 114.828 79.4645L111.646 82.6464ZM212 82.5L112 82.5V83.5L212 83.5V82.5Z" fill="#27D6A1"/>
<line x1="212.5" y1="36" x2="212.5" y2="83" stroke="#27D6A1"/>
</svg>
