<svg width="500" height="250" viewBox="0 0 500 250" fill="none" xmlns="http://www.w3.org/2000/svg">
<rect width="500" height="250" rx="12" fill="#334155"/>
<path d="M42 25.5H80C83.0376 25.5 85.5 27.9624 85.5 31V74.5H36.5V31C36.5 27.9624 38.9624 25.5 42 25.5Z" fill="#15353E" stroke="#E76F5F"/>
<path d="M49.5057 57V55.7216L54.3068 50.4659C54.8703 49.8504 55.3343 49.3153 55.6989 48.8608C56.0634 48.4015 56.3333 47.9706 56.5085 47.5682C56.6884 47.161 56.7784 46.7348 56.7784 46.2898C56.7784 45.7784 56.6553 45.3357 56.4091 44.9616C56.1676 44.5876 55.8362 44.2988 55.4148 44.0952C54.9934 43.8916 54.5199 43.7898 53.9943 43.7898C53.4356 43.7898 52.9479 43.9058 52.5312 44.1378C52.1193 44.3651 51.7997 44.6847 51.5724 45.0966C51.3499 45.5085 51.2386 45.9915 51.2386 46.5455H49.5625C49.5625 45.6932 49.759 44.9451 50.152 44.3011C50.545 43.6572 51.08 43.1553 51.7571 42.7955C52.4389 42.4356 53.2036 42.2557 54.0511 42.2557C54.9034 42.2557 55.6586 42.4356 56.3168 42.7955C56.9749 43.1553 57.491 43.6406 57.8651 44.2514C58.2391 44.8622 58.4261 45.5417 58.4261 46.2898C58.4261 46.8248 58.3291 47.348 58.1349 47.8594C57.9455 48.366 57.6141 48.9318 57.1406 49.5568C56.6719 50.1771 56.0208 50.9347 55.1875 51.8295L51.9205 55.3239V55.4375H58.6818V57H49.5057ZM66.3594 57.1989C65.2893 57.1989 64.3778 56.9077 63.625 56.3253C62.8722 55.7382 62.2969 54.8883 61.8991 53.7756C61.5014 52.6581 61.3026 51.3087 61.3026 49.7273C61.3026 48.1553 61.5014 46.813 61.8991 45.7003C62.3016 44.5829 62.8793 43.7306 63.6321 43.1435C64.3897 42.5516 65.2988 42.2557 66.3594 42.2557C67.42 42.2557 68.3267 42.5516 69.0795 43.1435C69.8371 43.7306 70.4148 44.5829 70.8125 45.7003C71.215 46.813 71.4162 48.1553 71.4162 49.7273C71.4162 51.3087 71.2173 52.6581 70.8196 53.7756C70.4219 54.8883 69.8466 55.7382 69.0938 56.3253C68.3409 56.9077 67.4295 57.1989 66.3594 57.1989ZM66.3594 55.6364C67.42 55.6364 68.2438 55.125 68.831 54.1023C69.4181 53.0795 69.7116 51.6212 69.7116 49.7273C69.7116 48.4678 69.5767 47.3954 69.3068 46.5099C69.0417 45.6245 68.6581 44.9498 68.1562 44.4858C67.6591 44.0218 67.0601 43.7898 66.3594 43.7898C65.3082 43.7898 64.4867 44.3082 63.8949 45.3452C63.303 46.3774 63.0071 47.8381 63.0071 49.7273C63.0071 50.9867 63.1397 52.0568 63.4048 52.9375C63.67 53.8182 64.0511 54.4882 64.5483 54.9474C65.0502 55.4067 65.6539 55.6364 66.3594 55.6364Z" fill="white"/>
<rect x="36.5" y="75.5" width="49" height="49" fill="#15353E" stroke="#E76F5F"/>
<path d="M60.0511 107.199C59.2178 107.199 58.4673 107.033 57.7997 106.702C57.1321 106.37 56.5971 105.916 56.1946 105.338C55.7921 104.76 55.572 104.102 55.5341 103.364H57.2386C57.3049 104.022 57.6032 104.566 58.1335 104.997C58.6686 105.423 59.3078 105.636 60.0511 105.636C60.6477 105.636 61.178 105.497 61.642 105.217C62.1108 104.938 62.4777 104.554 62.7429 104.067C63.0128 103.574 63.1477 103.018 63.1477 102.398C63.1477 101.763 63.008 101.197 62.7287 100.7C62.4541 100.198 62.0753 99.803 61.5923 99.5142C61.1094 99.2254 60.5578 99.0786 59.9375 99.0739C59.4924 99.0691 59.0355 99.1378 58.5668 99.2798C58.098 99.4171 57.7121 99.5947 57.4091 99.8125L55.7614 99.6136L56.642 92.4545H64.1989V94.017H58.1193L57.608 98.3068H57.6932C57.9915 98.0701 58.3655 97.8736 58.8153 97.7173C59.2652 97.5611 59.7339 97.483 60.2216 97.483C61.1117 97.483 61.9048 97.696 62.6009 98.1222C63.3016 98.5436 63.8509 99.1212 64.2486 99.8551C64.651 100.589 64.8523 101.427 64.8523 102.369C64.8523 103.297 64.6439 104.126 64.2273 104.855C63.8153 105.58 63.2472 106.152 62.5227 106.574C61.7983 106.991 60.9744 107.199 60.0511 107.199Z" fill="white"/>
<rect x="36.5" y="125.5" width="49" height="49" fill="#15353E" stroke="#E76F5F"/>
<path d="M49.5057 157V155.722L54.3068 150.466C54.8703 149.85 55.3343 149.315 55.6989 148.861C56.0634 148.402 56.3333 147.971 56.5085 147.568C56.6884 147.161 56.7784 146.735 56.7784 146.29C56.7784 145.778 56.6553 145.336 56.4091 144.962C56.1676 144.588 55.8362 144.299 55.4148 144.095C54.9934 143.892 54.5199 143.79 53.9943 143.79C53.4356 143.79 52.9479 143.906 52.5312 144.138C52.1193 144.365 51.7997 144.685 51.5724 145.097C51.3499 145.509 51.2386 145.991 51.2386 146.545H49.5625C49.5625 145.693 49.759 144.945 50.152 144.301C50.545 143.657 51.08 143.155 51.7571 142.795C52.4389 142.436 53.2036 142.256 54.0511 142.256C54.9034 142.256 55.6586 142.436 56.3168 142.795C56.9749 143.155 57.491 143.641 57.8651 144.251C58.2391 144.862 58.4261 145.542 58.4261 146.29C58.4261 146.825 58.3291 147.348 58.1349 147.859C57.9455 148.366 57.6141 148.932 57.1406 149.557C56.6719 150.177 56.0208 150.935 55.1875 151.83L51.9205 155.324V155.438H58.6818V157H49.5057ZM60.9616 154.017V152.568L67.3537 142.455H68.4048V144.699H67.6946L62.8651 152.341V152.455H71.473V154.017H60.9616ZM67.8082 157V153.577V152.902V142.455H69.4844V157H67.8082Z" fill="white"/>
<path d="M36.5 175.5H85.5V219C85.5 222.038 83.0376 224.5 80 224.5H42C38.9624 224.5 36.5 222.038 36.5 219V175.5Z" fill="#15353E" stroke="#E76F5F"/>
<path d="M54.1364 192.256C54.733 192.26 55.3295 192.374 55.9261 192.597C56.5227 192.819 57.0672 193.188 57.5597 193.705C58.0521 194.216 58.4474 194.914 58.7457 195.8C59.044 196.685 59.1932 197.795 59.1932 199.131C59.1932 200.423 59.0701 201.571 58.8239 202.575C58.5824 203.574 58.232 204.417 57.7727 205.104C57.3182 205.79 56.7642 206.311 56.1108 206.666C55.4621 207.021 54.7282 207.199 53.9091 207.199C53.0947 207.199 52.3679 207.038 51.7287 206.716C51.0942 206.389 50.5734 205.937 50.1662 205.359C49.7637 204.777 49.5057 204.102 49.392 203.335H51.125C51.2812 204.003 51.5914 204.554 52.0554 204.99C52.5241 205.421 53.142 205.636 53.9091 205.636C55.0313 205.636 55.9167 205.146 56.5653 204.166C57.2188 203.186 57.5455 201.801 57.5455 200.011H57.4318C57.1667 200.409 56.8518 200.752 56.4872 201.041C56.1226 201.33 55.7178 201.553 55.2727 201.709C54.8277 201.865 54.3542 201.943 53.8523 201.943C53.0189 201.943 52.2543 201.737 51.5582 201.325C50.867 200.909 50.313 200.338 49.8963 199.614C49.4844 198.884 49.2784 198.051 49.2784 197.114C49.2784 196.223 49.4773 195.409 49.875 194.67C50.2775 193.927 50.8409 193.335 51.5653 192.895C52.2945 192.455 53.1515 192.241 54.1364 192.256ZM54.1364 193.818C53.5398 193.818 53.0024 193.967 52.5241 194.266C52.0507 194.559 51.6742 194.957 51.3949 195.459C51.1203 195.956 50.983 196.508 50.983 197.114C50.983 197.72 51.1155 198.271 51.3807 198.768C51.6506 199.261 52.0175 199.654 52.4815 199.947C52.9503 200.236 53.483 200.381 54.0795 200.381C54.5294 200.381 54.9484 200.293 55.3366 200.118C55.7249 199.938 56.0634 199.694 56.3523 199.386C56.6458 199.074 56.8755 198.721 57.0412 198.328C57.2069 197.93 57.2898 197.516 57.2898 197.085C57.2898 196.517 57.1525 195.984 56.8778 195.487C56.608 194.99 56.2339 194.588 55.7557 194.28C55.2822 193.972 54.7424 193.818 54.1364 193.818ZM66.6168 192.256C67.2134 192.26 67.81 192.374 68.4066 192.597C69.0032 192.819 69.5477 193.188 70.0401 193.705C70.5326 194.216 70.9279 194.914 71.2262 195.8C71.5245 196.685 71.6737 197.795 71.6737 199.131C71.6737 200.423 71.5505 201.571 71.3043 202.575C71.0629 203.574 70.7125 204.417 70.2532 205.104C69.7987 205.79 69.2447 206.311 68.5913 206.666C67.9426 207.021 67.2087 207.199 66.3896 207.199C65.5752 207.199 64.8484 207.038 64.2092 206.716C63.5747 206.389 63.0539 205.937 62.6467 205.359C62.2442 204.777 61.9862 204.102 61.8725 203.335H63.6055C63.7617 204.003 64.0719 204.554 64.5359 204.99C65.0046 205.421 65.6225 205.636 66.3896 205.636C67.5117 205.636 68.3971 205.146 69.0458 204.166C69.6992 203.186 70.0259 201.801 70.0259 200.011H69.9123C69.6471 200.409 69.3323 200.752 68.9677 201.041C68.6031 201.33 68.1983 201.553 67.7532 201.709C67.3081 201.865 66.8346 201.943 66.3327 201.943C65.4994 201.943 64.7347 201.737 64.0387 201.325C63.3474 200.909 62.7934 200.338 62.3768 199.614C61.9648 198.884 61.7589 198.051 61.7589 197.114C61.7589 196.223 61.9577 195.409 62.3555 194.67C62.7579 193.927 63.3214 193.335 64.0458 192.895C64.775 192.455 65.632 192.241 66.6168 192.256ZM66.6168 193.818C66.0202 193.818 65.4828 193.967 65.0046 194.266C64.5311 194.559 64.1547 194.957 63.8754 195.459C63.6007 195.956 63.4634 196.508 63.4634 197.114C63.4634 197.72 63.596 198.271 63.8612 198.768C64.131 199.261 64.498 199.654 64.962 199.947C65.4308 200.236 65.9634 200.381 66.56 200.381C67.0098 200.381 67.4289 200.293 67.8171 200.118C68.2054 199.938 68.5439 199.694 68.8327 199.386C69.1263 199.074 69.3559 198.721 69.5217 198.328C69.6874 197.93 69.7702 197.516 69.7702 197.085C69.7702 196.517 69.6329 195.984 69.3583 195.487C69.0884 194.99 68.7144 194.588 68.2362 194.28C67.7627 193.972 67.2229 193.818 66.6168 193.818Z" fill="white"/>
<path d="M416 52.5H454C457.038 52.5 459.5 54.9624 459.5 58V101.5H410.5V58C410.5 54.9624 412.962 52.5 416 52.5Z" fill="#15353E" stroke="#E76F5F"/>
<path d="M423.506 84V82.7216L428.307 77.4659C428.87 76.8504 429.334 76.3153 429.699 75.8608C430.063 75.4015 430.333 74.9706 430.509 74.5682C430.688 74.161 430.778 73.7348 430.778 73.2898C430.778 72.7784 430.655 72.3357 430.409 71.9616C430.168 71.5876 429.836 71.2988 429.415 71.0952C428.993 70.8916 428.52 70.7898 427.994 70.7898C427.436 70.7898 426.948 70.9058 426.531 71.1378C426.119 71.3651 425.8 71.6847 425.572 72.0966C425.35 72.5085 425.239 72.9915 425.239 73.5455H423.562C423.562 72.6932 423.759 71.9451 424.152 71.3011C424.545 70.6572 425.08 70.1553 425.757 69.7955C426.439 69.4356 427.204 69.2557 428.051 69.2557C428.903 69.2557 429.659 69.4356 430.317 69.7955C430.975 70.1553 431.491 70.6406 431.865 71.2514C432.239 71.8622 432.426 72.5417 432.426 73.2898C432.426 73.8248 432.329 74.348 432.135 74.8594C431.946 75.366 431.614 75.9318 431.141 76.5568C430.672 77.1771 430.021 77.9347 429.188 78.8295L425.92 82.3239V82.4375H432.682V84H423.506ZM440.359 84.1989C439.289 84.1989 438.378 83.9077 437.625 83.3253C436.872 82.7382 436.297 81.8883 435.899 80.7756C435.501 79.6581 435.303 78.3087 435.303 76.7273C435.303 75.1553 435.501 73.813 435.899 72.7003C436.302 71.5829 436.879 70.7306 437.632 70.1435C438.39 69.5516 439.299 69.2557 440.359 69.2557C441.42 69.2557 442.327 69.5516 443.08 70.1435C443.837 70.7306 444.415 71.5829 444.812 72.7003C445.215 73.813 445.416 75.1553 445.416 76.7273C445.416 78.3087 445.217 79.6581 444.82 80.7756C444.422 81.8883 443.847 82.7382 443.094 83.3253C442.341 83.9077 441.429 84.1989 440.359 84.1989ZM440.359 82.6364C441.42 82.6364 442.244 82.125 442.831 81.1023C443.418 80.0795 443.712 78.6212 443.712 76.7273C443.712 75.4678 443.577 74.3954 443.307 73.5099C443.042 72.6245 442.658 71.9498 442.156 71.4858C441.659 71.0218 441.06 70.7898 440.359 70.7898C439.308 70.7898 438.487 71.3082 437.895 72.3452C437.303 73.3774 437.007 74.8381 437.007 76.7273C437.007 77.9867 437.14 79.0568 437.405 79.9375C437.67 80.8182 438.051 81.4882 438.548 81.9474C439.05 82.4067 439.654 82.6364 440.359 82.6364Z" fill="white"/>
<rect x="410.5" y="102.5" width="49" height="49" fill="#15353E" stroke="#E76F5F"/>
<path d="M423.506 134V132.722L428.307 127.466C428.87 126.85 429.334 126.315 429.699 125.861C430.063 125.402 430.333 124.971 430.509 124.568C430.688 124.161 430.778 123.735 430.778 123.29C430.778 122.778 430.655 122.336 430.409 121.962C430.168 121.588 429.836 121.299 429.415 121.095C428.993 120.892 428.52 120.79 427.994 120.79C427.436 120.79 426.948 120.906 426.531 121.138C426.119 121.365 425.8 121.685 425.572 122.097C425.35 122.509 425.239 122.991 425.239 123.545H423.562C423.562 122.693 423.759 121.945 424.152 121.301C424.545 120.657 425.08 120.155 425.757 119.795C426.439 119.436 427.204 119.256 428.051 119.256C428.903 119.256 429.659 119.436 430.317 119.795C430.975 120.155 431.491 120.641 431.865 121.251C432.239 121.862 432.426 122.542 432.426 123.29C432.426 123.825 432.329 124.348 432.135 124.859C431.946 125.366 431.614 125.932 431.141 126.557C430.672 127.177 430.021 127.935 429.188 128.83L425.92 132.324V132.438H432.682V134H423.506ZM434.962 131.017V129.568L441.354 119.455H442.405V121.699H441.695L436.865 129.341V129.455H445.473V131.017H434.962ZM441.808 134V130.577V129.902V119.455H443.484V134H441.808Z" fill="white"/>
<path d="M410.5 152.5H459.5V196C459.5 199.038 457.038 201.5 454 201.5H416C412.962 201.5 410.5 199.038 410.5 196V152.5Z" fill="#15353E" stroke="#E76F5F"/>
<path d="M428.136 169.256C428.733 169.26 429.33 169.374 429.926 169.597C430.523 169.819 431.067 170.188 431.56 170.705C432.052 171.216 432.447 171.914 432.746 172.8C433.044 173.685 433.193 174.795 433.193 176.131C433.193 177.423 433.07 178.571 432.824 179.575C432.582 180.574 432.232 181.417 431.773 182.104C431.318 182.79 430.764 183.311 430.111 183.666C429.462 184.021 428.728 184.199 427.909 184.199C427.095 184.199 426.368 184.038 425.729 183.716C425.094 183.389 424.573 182.937 424.166 182.359C423.764 181.777 423.506 181.102 423.392 180.335H425.125C425.281 181.003 425.591 181.554 426.055 181.99C426.524 182.421 427.142 182.636 427.909 182.636C429.031 182.636 429.917 182.146 430.565 181.166C431.219 180.186 431.545 178.801 431.545 177.011H431.432C431.167 177.409 430.852 177.752 430.487 178.041C430.123 178.33 429.718 178.553 429.273 178.709C428.828 178.865 428.354 178.943 427.852 178.943C427.019 178.943 426.254 178.737 425.558 178.325C424.867 177.909 424.313 177.338 423.896 176.614C423.484 175.884 423.278 175.051 423.278 174.114C423.278 173.223 423.477 172.409 423.875 171.67C424.277 170.927 424.841 170.335 425.565 169.895C426.295 169.455 427.152 169.241 428.136 169.256ZM428.136 170.818C427.54 170.818 427.002 170.967 426.524 171.266C426.051 171.559 425.674 171.957 425.395 172.459C425.12 172.956 424.983 173.508 424.983 174.114C424.983 174.72 425.116 175.271 425.381 175.768C425.651 176.261 426.018 176.654 426.482 176.947C426.95 177.236 427.483 177.381 428.08 177.381C428.529 177.381 428.948 177.293 429.337 177.118C429.725 176.938 430.063 176.694 430.352 176.386C430.646 176.074 430.875 175.721 431.041 175.328C431.207 174.93 431.29 174.516 431.29 174.085C431.29 173.517 431.152 172.984 430.878 172.487C430.608 171.99 430.234 171.588 429.756 171.28C429.282 170.972 428.742 170.818 428.136 170.818ZM440.617 169.256C441.213 169.26 441.81 169.374 442.407 169.597C443.003 169.819 443.548 170.188 444.04 170.705C444.533 171.216 444.928 171.914 445.226 172.8C445.525 173.685 445.674 174.795 445.674 176.131C445.674 177.423 445.551 178.571 445.304 179.575C445.063 180.574 444.712 181.417 444.253 182.104C443.799 182.79 443.245 183.311 442.591 183.666C441.943 184.021 441.209 184.199 440.39 184.199C439.575 184.199 438.848 184.038 438.209 183.716C437.575 183.389 437.054 182.937 436.647 182.359C436.244 181.777 435.986 181.102 435.873 180.335H437.605C437.762 181.003 438.072 181.554 438.536 181.99C439.005 182.421 439.623 182.636 440.39 182.636C441.512 182.636 442.397 182.146 443.046 181.166C443.699 180.186 444.026 178.801 444.026 177.011H443.912C443.647 177.409 443.332 177.752 442.968 178.041C442.603 178.33 442.198 178.553 441.753 178.709C441.308 178.865 440.835 178.943 440.333 178.943C439.499 178.943 438.735 178.737 438.039 178.325C437.347 177.909 436.793 177.338 436.377 176.614C435.965 175.884 435.759 175.051 435.759 174.114C435.759 173.223 435.958 172.409 436.355 171.67C436.758 170.927 437.321 170.335 438.046 169.895C438.775 169.455 439.632 169.241 440.617 169.256ZM440.617 170.818C440.02 170.818 439.483 170.967 439.005 171.266C438.531 171.559 438.155 171.957 437.875 172.459C437.601 172.956 437.463 173.508 437.463 174.114C437.463 174.72 437.596 175.271 437.861 175.768C438.131 176.261 438.498 176.654 438.962 176.947C439.431 177.236 439.963 177.381 440.56 177.381C441.01 177.381 441.429 177.293 441.817 177.118C442.205 176.938 442.544 176.694 442.833 176.386C443.126 176.074 443.356 175.721 443.522 175.328C443.687 174.93 443.77 174.516 443.77 174.085C443.77 173.517 443.633 172.984 443.358 172.487C443.088 171.99 442.714 171.588 442.236 171.28C441.763 170.972 441.223 170.818 440.617 170.818Z" fill="white"/>
<path d="M101.024 115.18C100.568 115.18 100.196 115.03 99.908 114.73C99.62 114.418 99.476 114.058 99.476 113.65C99.476 113.218 99.62 112.852 99.908 112.552C100.196 112.252 100.568 112.102 101.024 112.102C101.456 112.102 101.816 112.252 102.104 112.552C102.404 112.852 102.554 113.218 102.554 113.65C102.554 114.07 102.404 114.43 102.104 114.73C101.816 115.03 101.456 115.18 101.024 115.18ZM114.109 104.164C113.641 104.164 113.251 104.014 112.939 103.714C112.639 103.402 112.489 103.036 112.489 102.616C112.489 102.172 112.639 101.8 112.939 101.5C113.251 101.188 113.641 101.032 114.109 101.032C114.577 101.032 114.961 101.188 115.261 101.5C115.573 101.8 115.729 102.172 115.729 102.616C115.729 103.036 115.573 103.402 115.261 103.714C114.961 104.014 114.577 104.164 114.109 104.164ZM106.189 115V107.638H104.677V105.46H106.189V104.704C106.189 104.356 106.237 103.978 106.333 103.57C106.429 103.162 106.597 102.772 106.837 102.4C107.089 102.028 107.437 101.728 107.881 101.5C108.325 101.26 108.895 101.14 109.591 101.14C109.975 101.14 110.287 101.17 110.527 101.23C110.779 101.278 110.905 101.302 110.905 101.302V103.228C110.905 103.228 110.833 103.216 110.689 103.192C110.545 103.168 110.395 103.156 110.239 103.156C109.747 103.156 109.405 103.3 109.213 103.588C109.021 103.876 108.925 104.248 108.925 104.704V105.46H115.477V115H112.741V107.638H108.925V115H106.189ZM117.997 115V101.32H120.733V115H117.997ZM127.449 115.18C126.705 115.18 126.111 115.072 125.667 114.856C125.223 114.628 124.887 114.346 124.659 114.01C124.431 113.662 124.281 113.296 124.209 112.912C124.137 112.528 124.101 112.174 124.101 111.85V107.638H122.481V105.46H124.101V103.102H126.837V105.46H128.871V107.638H126.837V111.778C126.837 112.174 126.939 112.48 127.143 112.696C127.359 112.912 127.713 113.02 128.205 113.02C128.421 113.02 128.619 113.002 128.799 112.966C128.979 112.93 129.069 112.912 129.069 112.912V115.018C129.069 115.018 128.907 115.042 128.583 115.09C128.259 115.15 127.881 115.18 127.449 115.18ZM135.507 115.18C134.667 115.18 133.941 115.042 133.329 114.766C132.717 114.478 132.213 114.1 131.817 113.632C131.421 113.152 131.121 112.618 130.917 112.03C130.725 111.442 130.629 110.836 130.629 110.212C130.629 109.612 130.719 109.024 130.899 108.448C131.091 107.86 131.379 107.326 131.763 106.846C132.159 106.366 132.657 105.988 133.257 105.712C133.869 105.424 134.589 105.28 135.417 105.28C136.293 105.28 137.067 105.472 137.739 105.856C138.423 106.24 138.957 106.81 139.341 107.566C139.725 108.31 139.917 109.216 139.917 110.284V110.95H133.383C133.419 111.526 133.617 112.024 133.977 112.444C134.349 112.864 134.859 113.074 135.507 113.074C135.879 113.074 136.179 113.02 136.407 112.912C136.647 112.792 136.833 112.66 136.965 112.516C137.097 112.36 137.187 112.222 137.235 112.102C137.283 111.982 137.307 111.922 137.307 111.922H139.827C139.827 111.922 139.797 112.036 139.737 112.264C139.689 112.48 139.581 112.75 139.413 113.074C139.245 113.398 138.999 113.722 138.675 114.046C138.363 114.37 137.949 114.64 137.433 114.856C136.917 115.072 136.275 115.18 135.507 115.18ZM133.383 109.294H137.289C137.253 108.634 137.055 108.142 136.695 107.818C136.335 107.494 135.891 107.332 135.363 107.332C134.835 107.332 134.385 107.506 134.013 107.854C133.641 108.19 133.431 108.67 133.383 109.294ZM141.882 115V105.46H144.6V106.846H144.69C144.798 106.594 144.948 106.348 145.14 106.108C145.332 105.868 145.596 105.67 145.932 105.514C146.268 105.358 146.7 105.28 147.228 105.28C147.492 105.28 147.702 105.298 147.858 105.334C148.014 105.358 148.092 105.37 148.092 105.37V108.07C148.092 108.07 148.002 108.052 147.822 108.016C147.654 107.98 147.432 107.962 147.156 107.962C146.304 107.962 145.668 108.196 145.248 108.664C144.828 109.12 144.618 109.87 144.618 110.914V115H141.882ZM156.061 119.05C154.957 118.918 153.985 118.57 153.145 118.006C152.305 117.442 151.597 116.716 151.021 115.828C150.445 114.952 150.007 113.974 149.707 112.894C149.419 111.814 149.275 110.698 149.275 109.546C149.275 108.394 149.419 107.278 149.707 106.198C150.007 105.118 150.445 104.14 151.021 103.264C151.597 102.376 152.305 101.65 153.145 101.086C153.985 100.522 154.957 100.174 156.061 100.042V102.526C155.473 102.634 154.933 102.904 154.441 103.336C153.949 103.756 153.523 104.29 153.163 104.938C152.815 105.586 152.539 106.306 152.335 107.098C152.143 107.89 152.047 108.706 152.047 109.546C152.047 110.386 152.143 111.202 152.335 111.994C152.539 112.786 152.815 113.506 153.163 114.154C153.523 114.802 153.949 115.336 154.441 115.756C154.933 116.188 155.473 116.458 156.061 116.566V119.05ZM168.365 119.05C167.261 118.918 166.289 118.57 165.449 118.006C164.609 117.442 163.901 116.716 163.325 115.828C162.749 114.952 162.311 113.974 162.011 112.894C161.723 111.814 161.579 110.698 161.579 109.546C161.579 108.394 161.723 107.278 162.011 106.198C162.311 105.118 162.749 104.14 163.325 103.264C163.901 102.376 164.609 101.65 165.449 101.086C166.289 100.522 167.261 100.174 168.365 100.042V102.526C167.777 102.634 167.237 102.904 166.745 103.336C166.253 103.756 165.827 104.29 165.467 104.938C165.119 105.586 164.843 106.306 164.639 107.098C164.447 107.89 164.351 108.706 164.351 109.546C164.351 110.386 164.447 111.202 164.639 111.994C164.843 112.786 165.119 113.506 165.467 114.154C165.827 114.802 166.253 115.336 166.745 115.756C167.237 116.188 167.777 116.458 168.365 116.566V119.05ZM171.68 104.164C171.2 104.164 170.81 104.014 170.51 103.714C170.21 103.402 170.06 103.036 170.06 102.616C170.06 102.172 170.21 101.8 170.51 101.5C170.81 101.188 171.2 101.032 171.68 101.032C172.136 101.032 172.52 101.188 172.832 101.5C173.144 101.8 173.3 102.172 173.3 102.616C173.3 103.036 173.144 103.402 172.832 103.714C172.52 104.014 172.136 104.164 171.68 104.164ZM170.312 115V105.46H173.048V115H170.312ZM179.832 115.18C179.088 115.18 178.494 115.072 178.05 114.856C177.606 114.628 177.27 114.346 177.042 114.01C176.814 113.662 176.664 113.296 176.592 112.912C176.52 112.528 176.484 112.174 176.484 111.85V107.638H174.864V105.46H176.484V103.102H179.22V105.46H181.254V107.638H179.22V111.778C179.22 112.174 179.322 112.48 179.526 112.696C179.742 112.912 180.096 113.02 180.588 113.02C180.804 113.02 181.002 113.002 181.182 112.966C181.362 112.93 181.452 112.912 181.452 112.912V115.018C181.452 115.018 181.29 115.042 180.966 115.09C180.642 115.15 180.264 115.18 179.832 115.18ZM187.89 115.18C187.05 115.18 186.324 115.042 185.712 114.766C185.1 114.478 184.596 114.1 184.2 113.632C183.804 113.152 183.504 112.618 183.3 112.03C183.108 111.442 183.012 110.836 183.012 110.212C183.012 109.612 183.102 109.024 183.282 108.448C183.474 107.86 183.762 107.326 184.146 106.846C184.542 106.366 185.04 105.988 185.64 105.712C186.252 105.424 186.972 105.28 187.8 105.28C188.676 105.28 189.45 105.472 190.122 105.856C190.806 106.24 191.34 106.81 191.724 107.566C192.108 108.31 192.3 109.216 192.3 110.284V110.95H185.766C185.802 111.526 186 112.024 186.36 112.444C186.732 112.864 187.242 113.074 187.89 113.074C188.262 113.074 188.562 113.02 188.79 112.912C189.03 112.792 189.216 112.66 189.348 112.516C189.48 112.36 189.57 112.222 189.618 112.102C189.666 111.982 189.69 111.922 189.69 111.922H192.21C192.21 111.922 192.18 112.036 192.12 112.264C192.072 112.48 191.964 112.75 191.796 113.074C191.628 113.398 191.382 113.722 191.058 114.046C190.746 114.37 190.332 114.64 189.816 114.856C189.3 115.072 188.658 115.18 187.89 115.18ZM185.766 109.294H189.672C189.636 108.634 189.438 108.142 189.078 107.818C188.718 107.494 188.274 107.332 187.746 107.332C187.218 107.332 186.768 107.506 186.396 107.854C186.024 108.19 185.814 108.67 185.766 109.294ZM194.159 115V105.46H196.895V106.756H196.985C197.189 106.408 197.495 106.078 197.903 105.766C198.311 105.442 198.869 105.28 199.577 105.28C200.297 105.28 200.873 105.448 201.305 105.784C201.749 106.12 202.073 106.534 202.277 107.026H202.313C202.469 106.75 202.673 106.48 202.925 106.216C203.189 105.94 203.513 105.718 203.897 105.55C204.293 105.37 204.755 105.28 205.283 105.28C205.943 105.28 206.489 105.43 206.921 105.73C207.353 106.03 207.671 106.426 207.875 106.918C208.091 107.398 208.199 107.914 208.199 108.466V115H205.463V109.15C205.463 108.682 205.343 108.298 205.103 107.998C204.875 107.686 204.527 107.53 204.059 107.53C203.699 107.53 203.405 107.62 203.177 107.8C202.961 107.98 202.799 108.214 202.691 108.502C202.595 108.778 202.547 109.066 202.547 109.366V115H199.811V109.15C199.811 108.682 199.691 108.298 199.451 107.998C199.223 107.686 198.875 107.53 198.407 107.53C198.047 107.53 197.753 107.62 197.525 107.8C197.309 107.98 197.147 108.214 197.039 108.502C196.943 108.778 196.895 109.066 196.895 109.366V115H194.159ZM210.782 117.61L212.258 115.162C211.85 115.126 211.508 114.964 211.232 114.676C210.968 114.388 210.836 114.04 210.836 113.632C210.836 113.188 210.986 112.822 211.286 112.534C211.586 112.246 211.958 112.102 212.402 112.102C212.846 112.102 213.224 112.246 213.536 112.534C213.848 112.822 214.004 113.212 214.004 113.704C214.004 113.98 213.938 114.28 213.806 114.604C213.674 114.916 213.458 115.294 213.158 115.738C212.87 116.194 212.492 116.752 212.024 117.412L211.898 117.61H210.782ZM222.287 104.164C221.807 104.164 221.417 104.014 221.117 103.714C220.817 103.402 220.667 103.036 220.667 102.616C220.667 102.172 220.817 101.8 221.117 101.5C221.417 101.188 221.807 101.032 222.287 101.032C222.743 101.032 223.127 101.188 223.439 101.5C223.751 101.8 223.907 102.172 223.907 102.616C223.907 103.036 223.751 103.402 223.439 103.714C223.127 104.014 222.743 104.164 222.287 104.164ZM220.919 115V105.46H223.655V115H220.919ZM225.993 115V105.46H228.729V106.828H228.819C228.927 106.636 229.083 106.42 229.287 106.18C229.503 105.94 229.785 105.73 230.133 105.55C230.493 105.37 230.949 105.28 231.501 105.28C232.245 105.28 232.851 105.454 233.319 105.802C233.787 106.138 234.129 106.576 234.345 107.116C234.561 107.644 234.669 108.202 234.669 108.79V115H231.933V109.258C231.933 108.802 231.807 108.4 231.555 108.052C231.315 107.704 230.925 107.53 230.385 107.53C229.977 107.53 229.653 107.626 229.413 107.818C229.173 108.01 228.999 108.256 228.891 108.556C228.783 108.856 228.729 109.174 228.729 109.51V115H225.993ZM240.714 115.18C240.006 115.18 239.388 115.042 238.86 114.766C238.344 114.478 237.912 114.1 237.564 113.632C237.216 113.152 236.952 112.618 236.772 112.03C236.604 111.442 236.52 110.842 236.52 110.23C236.52 109.618 236.604 109.018 236.772 108.43C236.952 107.842 237.216 107.314 237.564 106.846C237.912 106.366 238.344 105.988 238.86 105.712C239.388 105.424 240.006 105.28 240.714 105.28C241.326 105.28 241.83 105.382 242.226 105.586C242.622 105.778 242.922 105.988 243.126 106.216C243.342 106.444 243.474 106.6 243.522 106.684H243.666V101.32H246.402V115H243.666V113.776H243.522C243.474 113.86 243.342 114.016 243.126 114.244C242.922 114.472 242.622 114.688 242.226 114.892C241.83 115.084 241.326 115.18 240.714 115.18ZM241.506 112.966C241.998 112.966 242.406 112.834 242.73 112.57C243.066 112.294 243.312 111.946 243.468 111.526C243.636 111.106 243.72 110.674 243.72 110.23C243.72 109.786 243.636 109.354 243.468 108.934C243.312 108.514 243.066 108.172 242.73 107.908C242.406 107.632 241.998 107.494 241.506 107.494C241.014 107.494 240.6 107.632 240.264 107.908C239.94 108.172 239.694 108.514 239.526 108.934C239.37 109.354 239.292 109.786 239.292 110.23C239.292 110.674 239.37 111.106 239.526 111.526C239.694 111.946 239.94 112.294 240.264 112.57C240.6 112.834 241.014 112.966 241.506 112.966ZM253.316 115.18C252.476 115.18 251.75 115.042 251.138 114.766C250.526 114.478 250.022 114.1 249.626 113.632C249.23 113.152 248.93 112.618 248.726 112.03C248.534 111.442 248.438 110.836 248.438 110.212C248.438 109.612 248.528 109.024 248.708 108.448C248.9 107.86 249.188 107.326 249.572 106.846C249.968 106.366 250.466 105.988 251.066 105.712C251.678 105.424 252.398 105.28 253.226 105.28C254.102 105.28 254.876 105.472 255.548 105.856C256.232 106.24 256.766 106.81 257.15 107.566C257.534 108.31 257.726 109.216 257.726 110.284V110.95H251.192C251.228 111.526 251.426 112.024 251.786 112.444C252.158 112.864 252.668 113.074 253.316 113.074C253.688 113.074 253.988 113.02 254.216 112.912C254.456 112.792 254.642 112.66 254.774 112.516C254.906 112.36 254.996 112.222 255.044 112.102C255.092 111.982 255.116 111.922 255.116 111.922H257.636C257.636 111.922 257.606 112.036 257.546 112.264C257.498 112.48 257.39 112.75 257.222 113.074C257.054 113.398 256.808 113.722 256.484 114.046C256.172 114.37 255.758 114.64 255.242 114.856C254.726 115.072 254.084 115.18 253.316 115.18ZM251.192 109.294H255.098C255.062 108.634 254.864 108.142 254.504 107.818C254.144 107.494 253.7 107.332 253.172 107.332C252.644 107.332 252.194 107.506 251.822 107.854C251.45 108.19 251.24 108.67 251.192 109.294ZM258.822 115L261.72 110.248L258.822 105.46H261.666L263.556 108.61L265.482 105.46H268.326L265.32 110.248L268.308 115H265.482L263.556 111.85L261.684 115H258.822ZM269.719 100.042C270.811 100.174 271.777 100.522 272.617 101.086C273.469 101.65 274.177 102.376 274.741 103.264C275.317 104.14 275.749 105.118 276.037 106.198C276.337 107.278 276.487 108.394 276.487 109.546C276.487 110.698 276.337 111.814 276.037 112.894C275.749 113.974 275.317 114.952 274.741 115.828C274.177 116.716 273.469 117.442 272.617 118.006C271.777 118.57 270.811 118.918 269.719 119.05V116.566C270.307 116.458 270.841 116.188 271.321 115.756C271.813 115.336 272.239 114.802 272.599 114.154C272.959 113.506 273.235 112.786 273.427 111.994C273.619 111.202 273.715 110.386 273.715 109.546C273.715 108.706 273.619 107.89 273.427 107.098C273.235 106.306 272.959 105.586 272.599 104.938C272.239 104.29 271.813 103.756 271.321 103.336C270.841 102.904 270.307 102.634 269.719 102.526V100.042ZM279.297 108.592V106.36H288.657V108.592H279.297ZM279.297 112.678V110.446H288.657V112.678H279.297ZM292.076 113.092V110.824L296.738 108.88L292.076 106.972V104.704L299.726 108.106V109.69L292.076 113.092ZM307.039 118.834C305.875 118.834 304.981 118.522 304.357 117.898C303.745 117.286 303.438 116.398 303.438 115.234V111.526C303.438 110.782 303.066 110.41 302.323 110.41H301.531V108.088H302.323C303.066 108.088 303.438 107.71 303.438 106.954V103.246C303.438 102.094 303.745 101.212 304.357 100.6C304.981 99.976 305.875 99.664 307.039 99.664H308.983V102.004H307.363C306.607 102.004 306.229 102.376 306.229 103.12V106.954C306.229 107.578 306.133 108.064 305.941 108.412C305.749 108.748 305.365 109.006 304.789 109.186V109.294C305.365 109.486 305.749 109.756 305.941 110.104C306.133 110.452 306.229 110.932 306.229 111.544V115.36C306.229 116.104 306.607 116.476 307.363 116.476H308.983V118.834H307.039ZM119.786 138V128.46H122.504V129.846H122.594C122.702 129.594 122.852 129.348 123.044 129.108C123.236 128.868 123.5 128.67 123.836 128.514C124.172 128.358 124.604 128.28 125.132 128.28C125.396 128.28 125.606 128.298 125.762 128.334C125.918 128.358 125.996 128.37 125.996 128.37V131.07C125.996 131.07 125.906 131.052 125.726 131.016C125.558 130.98 125.336 130.962 125.06 130.962C124.208 130.962 123.572 131.196 123.152 131.664C122.732 132.12 122.522 132.87 122.522 133.914V138H119.786ZM131.851 138.18C131.011 138.18 130.285 138.042 129.673 137.766C129.061 137.478 128.557 137.1 128.161 136.632C127.765 136.152 127.465 135.618 127.261 135.03C127.069 134.442 126.973 133.836 126.973 133.212C126.973 132.612 127.063 132.024 127.243 131.448C127.435 130.86 127.723 130.326 128.107 129.846C128.503 129.366 129.001 128.988 129.601 128.712C130.213 128.424 130.933 128.28 131.761 128.28C132.637 128.28 133.411 128.472 134.083 128.856C134.767 129.24 135.301 129.81 135.685 130.566C136.069 131.31 136.261 132.216 136.261 133.284V133.95H129.727C129.763 134.526 129.961 135.024 130.321 135.444C130.693 135.864 131.203 136.074 131.851 136.074C132.223 136.074 132.523 136.02 132.751 135.912C132.991 135.792 133.177 135.66 133.309 135.516C133.441 135.36 133.531 135.222 133.579 135.102C133.627 134.982 133.651 134.922 133.651 134.922H136.171C136.171 134.922 136.141 135.036 136.081 135.264C136.033 135.48 135.925 135.75 135.757 136.074C135.589 136.398 135.343 136.722 135.019 137.046C134.707 137.37 134.293 137.64 133.777 137.856C133.261 138.072 132.619 138.18 131.851 138.18ZM129.727 132.294H133.633C133.597 131.634 133.399 131.142 133.039 130.818C132.679 130.494 132.235 130.332 131.707 130.332C131.179 130.332 130.729 130.506 130.357 130.854C129.985 131.19 129.775 131.67 129.727 132.294ZM142.496 138.18C141.752 138.18 141.158 138.072 140.714 137.856C140.27 137.628 139.934 137.346 139.706 137.01C139.478 136.662 139.328 136.296 139.256 135.912C139.184 135.528 139.148 135.174 139.148 134.85V130.638H137.528V128.46H139.148V126.102H141.884V128.46H143.918V130.638H141.884V134.778C141.884 135.174 141.986 135.48 142.19 135.696C142.406 135.912 142.76 136.02 143.252 136.02C143.468 136.02 143.666 136.002 143.846 135.966C144.026 135.93 144.116 135.912 144.116 135.912V138.018C144.116 138.018 143.954 138.042 143.63 138.09C143.306 138.15 142.928 138.18 142.496 138.18ZM148.912 138.18C148.24 138.18 147.682 138.036 147.238 137.748C146.806 137.46 146.482 137.076 146.266 136.596C146.05 136.104 145.942 135.552 145.942 134.94V128.46H148.66V134.4C148.66 134.856 148.78 135.228 149.02 135.516C149.26 135.792 149.614 135.93 150.082 135.93C150.478 135.93 150.79 135.834 151.018 135.642C151.258 135.45 151.432 135.204 151.54 134.904C151.648 134.604 151.702 134.286 151.702 133.95V128.46H154.438V138H151.702V136.65H151.594C151.39 137.022 151.072 137.37 150.64 137.694C150.22 138.018 149.644 138.18 148.912 138.18ZM156.524 138V128.46H159.242V129.846H159.332C159.44 129.594 159.59 129.348 159.782 129.108C159.974 128.868 160.238 128.67 160.574 128.514C160.91 128.358 161.342 128.28 161.87 128.28C162.134 128.28 162.344 128.298 162.5 128.334C162.656 128.358 162.734 128.37 162.734 128.37V131.07C162.734 131.07 162.644 131.052 162.464 131.016C162.296 130.98 162.074 130.962 161.798 130.962C160.946 130.962 160.31 131.196 159.89 131.664C159.47 132.12 159.26 132.87 159.26 133.914V138H156.524ZM164.241 138V128.46H166.977V129.828H167.067C167.175 129.636 167.331 129.42 167.535 129.18C167.751 128.94 168.033 128.73 168.381 128.55C168.741 128.37 169.197 128.28 169.749 128.28C170.493 128.28 171.099 128.454 171.567 128.802C172.035 129.138 172.377 129.576 172.593 130.116C172.809 130.644 172.917 131.202 172.917 131.79V138H170.181V132.258C170.181 131.802 170.055 131.4 169.803 131.052C169.563 130.704 169.173 130.53 168.633 130.53C168.225 130.53 167.901 130.626 167.661 130.818C167.421 131.01 167.247 131.256 167.139 131.556C167.031 131.856 166.977 132.174 166.977 132.51V138H164.241ZM180.768 127.164C180.288 127.164 179.898 127.014 179.598 126.714C179.298 126.402 179.148 126.036 179.148 125.616C179.148 125.172 179.298 124.8 179.598 124.5C179.898 124.188 180.288 124.032 180.768 124.032C181.224 124.032 181.608 124.188 181.92 124.5C182.232 124.8 182.388 125.172 182.388 125.616C182.388 126.036 182.232 126.402 181.92 126.714C181.608 127.014 181.224 127.164 180.768 127.164ZM179.4 138V128.46H182.136V138H179.4ZM188.92 138.18C188.176 138.18 187.582 138.072 187.138 137.856C186.694 137.628 186.358 137.346 186.13 137.01C185.902 136.662 185.752 136.296 185.68 135.912C185.608 135.528 185.572 135.174 185.572 134.85V130.638H183.952V128.46H185.572V126.102H188.308V128.46H190.342V130.638H188.308V134.778C188.308 135.174 188.41 135.48 188.614 135.696C188.83 135.912 189.184 136.02 189.676 136.02C189.892 136.02 190.09 136.002 190.27 135.966C190.45 135.93 190.54 135.912 190.54 135.912V138.018C190.54 138.018 190.378 138.042 190.054 138.09C189.73 138.15 189.352 138.18 188.92 138.18ZM196.978 138.18C196.138 138.18 195.412 138.042 194.8 137.766C194.188 137.478 193.684 137.1 193.288 136.632C192.892 136.152 192.592 135.618 192.388 135.03C192.196 134.442 192.1 133.836 192.1 133.212C192.1 132.612 192.19 132.024 192.37 131.448C192.562 130.86 192.85 130.326 193.234 129.846C193.63 129.366 194.128 128.988 194.728 128.712C195.34 128.424 196.06 128.28 196.888 128.28C197.764 128.28 198.538 128.472 199.21 128.856C199.894 129.24 200.428 129.81 200.812 130.566C201.196 131.31 201.388 132.216 201.388 133.284V133.95H194.854C194.89 134.526 195.088 135.024 195.448 135.444C195.82 135.864 196.33 136.074 196.978 136.074C197.35 136.074 197.65 136.02 197.878 135.912C198.118 135.792 198.304 135.66 198.436 135.516C198.568 135.36 198.658 135.222 198.706 135.102C198.754 134.982 198.778 134.922 198.778 134.922H201.298C201.298 134.922 201.268 135.036 201.208 135.264C201.16 135.48 201.052 135.75 200.884 136.074C200.716 136.398 200.47 136.722 200.146 137.046C199.834 137.37 199.42 137.64 198.904 137.856C198.388 138.072 197.746 138.18 196.978 138.18ZM194.854 132.294H198.76C198.724 131.634 198.526 131.142 198.166 130.818C197.806 130.494 197.362 130.332 196.834 130.332C196.306 130.332 195.856 130.506 195.484 130.854C195.112 131.19 194.902 131.67 194.854 132.294ZM203.247 138V128.46H205.983V129.756H206.073C206.277 129.408 206.583 129.078 206.991 128.766C207.399 128.442 207.957 128.28 208.665 128.28C209.385 128.28 209.961 128.448 210.393 128.784C210.837 129.12 211.161 129.534 211.365 130.026H211.401C211.557 129.75 211.761 129.48 212.013 129.216C212.277 128.94 212.601 128.718 212.985 128.55C213.381 128.37 213.843 128.28 214.371 128.28C215.031 128.28 215.577 128.43 216.009 128.73C216.441 129.03 216.759 129.426 216.963 129.918C217.179 130.398 217.287 130.914 217.287 131.466V138H214.551V132.15C214.551 131.682 214.431 131.298 214.191 130.998C213.963 130.686 213.615 130.53 213.147 130.53C212.787 130.53 212.493 130.62 212.265 130.8C212.049 130.98 211.887 131.214 211.779 131.502C211.683 131.778 211.635 132.066 211.635 132.366V138H208.899V132.15C208.899 131.682 208.779 131.298 208.539 130.998C208.311 130.686 207.963 130.53 207.495 130.53C207.135 130.53 206.841 130.62 206.613 130.8C206.397 130.98 206.235 131.214 206.127 131.502C206.031 131.778 205.983 132.066 205.983 132.366V138H203.247ZM223.82 136.092V133.824L228.482 131.88L223.82 129.972V127.704L231.47 131.106V132.69L223.82 136.092ZM243.093 138.18C242.193 138.18 241.425 138.036 240.789 137.748C240.153 137.46 239.631 137.094 239.223 136.65C238.827 136.206 238.533 135.744 238.341 135.264C238.161 134.772 238.071 134.322 238.071 133.914H240.645C240.645 133.914 240.663 134.016 240.699 134.22C240.747 134.424 240.849 134.658 241.005 134.922C241.161 135.186 241.401 135.42 241.725 135.624C242.049 135.828 242.487 135.93 243.039 135.93C243.591 135.93 244.047 135.816 244.407 135.588C244.767 135.348 245.037 135.048 245.217 134.688C245.397 134.328 245.487 133.95 245.487 133.554C245.487 133.146 245.397 132.762 245.217 132.402C245.037 132.03 244.767 131.73 244.407 131.502C244.059 131.262 243.621 131.142 243.093 131.142C242.685 131.142 242.349 131.208 242.085 131.34C241.821 131.46 241.611 131.604 241.455 131.772C241.299 131.928 241.185 132.072 241.113 132.204C241.053 132.324 241.023 132.384 241.023 132.384H238.287L239.457 124.68H247.305V127.092H241.347L240.879 130.134H240.951C241.011 130.074 241.131 129.954 241.311 129.774C241.503 129.594 241.791 129.426 242.175 129.27C242.559 129.102 243.069 129.018 243.705 129.018C244.665 129.018 245.481 129.234 246.153 129.666C246.825 130.098 247.329 130.656 247.665 131.34C248.013 132.012 248.187 132.726 248.187 133.482C248.187 134.07 248.079 134.64 247.863 135.192C247.659 135.744 247.347 136.248 246.927 136.704C246.507 137.148 245.979 137.508 245.343 137.784C244.707 138.048 243.957 138.18 243.093 138.18ZM100.664 145.664C101.828 145.664 102.716 145.976 103.328 146.6C103.952 147.212 104.264 148.094 104.264 149.246V152.954C104.264 153.71 104.636 154.088 105.38 154.088H106.172V156.41H105.38C104.636 156.41 104.264 156.782 104.264 157.526V161.234C104.264 162.398 103.952 163.286 103.328 163.898C102.716 164.522 101.828 164.834 100.664 164.834H98.72V162.476H100.34C101.096 162.476 101.474 162.104 101.474 161.36V157.544C101.474 156.908 101.57 156.422 101.762 156.086C101.954 155.75 102.338 155.486 102.914 155.294V155.186C102.338 154.994 101.954 154.724 101.762 154.376C101.57 154.028 101.474 153.554 101.474 152.954V149.12C101.474 148.376 101.096 148.004 100.34 148.004H98.72V145.664H100.664ZM111.463 146.042C112.555 146.174 113.521 146.522 114.361 147.086C115.213 147.65 115.921 148.376 116.485 149.264C117.061 150.14 117.493 151.118 117.781 152.198C118.081 153.278 118.231 154.394 118.231 155.546C118.231 156.698 118.081 157.814 117.781 158.894C117.493 159.974 117.061 160.952 116.485 161.828C115.921 162.716 115.213 163.442 114.361 164.006C113.521 164.57 112.555 164.918 111.463 165.05V162.566C112.051 162.458 112.585 162.188 113.065 161.756C113.557 161.336 113.983 160.802 114.343 160.154C114.703 159.506 114.979 158.786 115.171 157.994C115.363 157.202 115.459 156.386 115.459 155.546C115.459 154.706 115.363 153.89 115.171 153.098C114.979 152.306 114.703 151.586 114.343 150.938C113.983 150.29 113.557 149.756 113.065 149.336C112.585 148.904 112.051 148.634 111.463 148.526V146.042Z" fill="#E76F5F"/>
<path d="M352.497 135.835L369.007 128.473C370.331 127.882 370.331 126.118 369.007 125.528L352.497 118.165C351.002 117.498 349.45 118.979 350.191 120.367L353.343 126.271C353.588 126.73 353.588 127.27 353.343 127.729L350.191 133.633C349.45 135.021 351.002 136.502 352.497 135.835Z" fill="#E76F5F"/>
</svg>
