<svg width="525" height="238" viewBox="0 0 525 238" fill="none" xmlns="http://www.w3.org/2000/svg">
<g filter="url(#filter0_d_133_16)">
<rect x="4" width="517" height="230" rx="4" fill="white"/>
<rect x="4.5" y="0.5" width="516" height="229" rx="3.5" stroke="#B3B3B3" stroke-opacity="0.51"/>
<rect x="4" y="33" width="171.943" height="75" fill="#588796"/>
<path d="M75.5795 75.1364C74.9659 75.1364 74.4375 74.9915 73.9943 74.7017C73.5511 74.4119 73.2102 74.0128 72.9716 73.5043C72.733 72.9957 72.6136 72.4148 72.6136 71.7614C72.6136 71.0966 72.7358 70.5099 72.9801 70.0014C73.2273 69.4901 73.571 69.0909 74.0114 68.804C74.4545 68.5142 74.9716 68.3693 75.5625 68.3693C76.0227 68.3693 76.4375 68.4545 76.8068 68.625C77.1761 68.7955 77.4787 69.0341 77.7145 69.3409C77.9503 69.6477 78.0966 70.0057 78.1534 70.4148H77.1477C77.071 70.1165 76.9006 69.8523 76.6364 69.6222C76.375 69.3892 76.0227 69.2727 75.5795 69.2727C75.1875 69.2727 74.8438 69.375 74.5483 69.5795C74.2557 69.7812 74.027 70.0668 73.8622 70.4361C73.7003 70.8026 73.6193 71.233 73.6193 71.7273C73.6193 72.233 73.6989 72.6733 73.858 73.0483C74.0199 73.4233 74.2472 73.7145 74.5398 73.9219C74.8352 74.1293 75.1818 74.233 75.5795 74.233C75.8409 74.233 76.0781 74.1875 76.2912 74.0966C76.5043 74.0057 76.6847 73.875 76.8324 73.7045C76.9801 73.5341 77.0852 73.3295 77.1477 73.0909H78.1534C78.0966 73.4773 77.956 73.8253 77.7315 74.1349C77.5099 74.4418 77.2159 74.6861 76.8494 74.8679C76.4858 75.0469 76.0625 75.1364 75.5795 75.1364ZM82.2827 75.1364C81.6918 75.1364 81.1733 74.9957 80.7273 74.7145C80.2841 74.4332 79.9375 74.0398 79.6875 73.5341C79.4403 73.0284 79.3168 72.4375 79.3168 71.7614C79.3168 71.0795 79.4403 70.4844 79.6875 69.9759C79.9375 69.4673 80.2841 69.0724 80.7273 68.7912C81.1733 68.5099 81.6918 68.3693 82.2827 68.3693C82.8736 68.3693 83.3906 68.5099 83.8338 68.7912C84.2798 69.0724 84.6264 69.4673 84.8736 69.9759C85.1236 70.4844 85.2486 71.0795 85.2486 71.7614C85.2486 72.4375 85.1236 73.0284 84.8736 73.5341C84.6264 74.0398 84.2798 74.4332 83.8338 74.7145C83.3906 74.9957 82.8736 75.1364 82.2827 75.1364ZM82.2827 74.233C82.7315 74.233 83.1009 74.1179 83.3906 73.8878C83.6804 73.6577 83.8949 73.3551 84.0341 72.9801C84.1733 72.6051 84.2429 72.1989 84.2429 71.7614C84.2429 71.3239 84.1733 70.9162 84.0341 70.5384C83.8949 70.1605 83.6804 69.8551 83.3906 69.6222C83.1009 69.3892 82.7315 69.2727 82.2827 69.2727C81.8338 69.2727 81.4645 69.3892 81.1747 69.6222C80.8849 69.8551 80.6705 70.1605 80.5312 70.5384C80.392 70.9162 80.3224 71.3239 80.3224 71.7614C80.3224 72.1989 80.392 72.6051 80.5312 72.9801C80.6705 73.3551 80.8849 73.6577 81.1747 73.8878C81.4645 74.1179 81.8338 74.233 82.2827 74.233ZM87.7894 66.2727V75H86.7837V66.2727H87.7894ZM93.3814 70.7898V71.7273H89.5632V70.7898H93.3814ZM97.9421 75.1193C97.3796 75.1193 96.8782 75.0227 96.4379 74.8295C96.0004 74.6364 95.6523 74.3679 95.3938 74.0241C95.1381 73.6776 94.9989 73.2756 94.9762 72.8182H96.0501C96.0728 73.0994 96.1694 73.3423 96.3398 73.5469C96.5103 73.7486 96.7333 73.9048 97.0089 74.0156C97.2844 74.1264 97.5898 74.1818 97.9251 74.1818C98.3001 74.1818 98.6325 74.1165 98.9222 73.9858C99.212 73.8551 99.4393 73.6733 99.604 73.4403C99.7688 73.2074 99.8512 72.9375 99.8512 72.6307C99.8512 72.3097 99.7717 72.027 99.6126 71.7827C99.4535 71.5355 99.2205 71.3423 98.9137 71.2031C98.6069 71.0639 98.2319 70.9943 97.7887 70.9943H97.0898V70.0568H97.7887C98.1353 70.0568 98.4393 69.9943 98.7006 69.8693C98.9648 69.7443 99.1708 69.5682 99.3185 69.3409C99.4691 69.1136 99.5444 68.8466 99.5444 68.5398C99.5444 68.2443 99.479 67.9872 99.3484 67.7685C99.2177 67.5497 99.033 67.3793 98.7944 67.2571C98.5586 67.1349 98.2802 67.0739 97.9592 67.0739C97.658 67.0739 97.3739 67.1293 97.1069 67.2401C96.8427 67.348 96.6268 67.5057 96.4592 67.7131C96.2915 67.9176 96.2006 68.1648 96.1864 68.4545H95.1637C95.1808 67.9972 95.3185 67.5966 95.5771 67.2528C95.8356 66.9062 96.1737 66.6364 96.5913 66.4432C97.0117 66.25 97.4734 66.1534 97.9762 66.1534C98.516 66.1534 98.979 66.2628 99.3654 66.4815C99.7518 66.6974 100.049 66.983 100.256 67.3381C100.463 67.6932 100.567 68.0767 100.567 68.4886C100.567 68.9801 100.438 69.3991 100.179 69.7457C99.9237 70.0923 99.5756 70.3324 99.1353 70.4659V70.5341C99.6864 70.625 100.117 70.8594 100.426 71.2372C100.736 71.6122 100.891 72.0767 100.891 72.6307C100.891 73.1051 100.762 73.5312 100.503 73.9091C100.248 74.2841 99.8981 74.5795 99.4549 74.7955C99.0117 75.0114 98.5075 75.1193 97.9421 75.1193Z" fill="white"/>
<rect x="176" y="33" width="216" height="75" fill="#6C9658"/>
<path d="M273.012 75.1364C272.399 75.1364 271.87 74.9915 271.427 74.7017C270.984 74.4119 270.643 74.0128 270.404 73.5043C270.166 72.9957 270.046 72.4148 270.046 71.7614C270.046 71.0966 270.168 70.5099 270.413 70.0014C270.66 69.4901 271.004 69.0909 271.444 68.804C271.887 68.5142 272.404 68.3693 272.995 68.3693C273.455 68.3693 273.87 68.4545 274.239 68.625C274.609 68.7955 274.911 69.0341 275.147 69.3409C275.383 69.6477 275.529 70.0057 275.586 70.4148H274.58C274.504 70.1165 274.333 69.8523 274.069 69.6222C273.808 69.3892 273.455 69.2727 273.012 69.2727C272.62 69.2727 272.276 69.375 271.981 69.5795C271.688 69.7812 271.46 70.0668 271.295 70.4361C271.133 70.8026 271.052 71.233 271.052 71.7273C271.052 72.233 271.131 72.6733 271.291 73.0483C271.453 73.4233 271.68 73.7145 271.972 73.9219C272.268 74.1293 272.614 74.233 273.012 74.233C273.274 74.233 273.511 74.1875 273.724 74.0966C273.937 74.0057 274.117 73.875 274.265 73.7045C274.413 73.5341 274.518 73.3295 274.58 73.0909H275.586C275.529 73.4773 275.389 73.8253 275.164 74.1349C274.943 74.4418 274.649 74.6861 274.282 74.8679C273.918 75.0469 273.495 75.1364 273.012 75.1364ZM279.715 75.1364C279.124 75.1364 278.606 74.9957 278.16 74.7145C277.717 74.4332 277.37 74.0398 277.12 73.5341C276.873 73.0284 276.749 72.4375 276.749 71.7614C276.749 71.0795 276.873 70.4844 277.12 69.9759C277.37 69.4673 277.717 69.0724 278.16 68.7912C278.606 68.5099 279.124 68.3693 279.715 68.3693C280.306 68.3693 280.823 68.5099 281.266 68.7912C281.712 69.0724 282.059 69.4673 282.306 69.9759C282.556 70.4844 282.681 71.0795 282.681 71.7614C282.681 72.4375 282.556 73.0284 282.306 73.5341C282.059 74.0398 281.712 74.4332 281.266 74.7145C280.823 74.9957 280.306 75.1364 279.715 75.1364ZM279.715 74.233C280.164 74.233 280.533 74.1179 280.823 73.8878C281.113 73.6577 281.328 73.3551 281.467 72.9801C281.606 72.6051 281.676 72.1989 281.676 71.7614C281.676 71.3239 281.606 70.9162 281.467 70.5384C281.328 70.1605 281.113 69.8551 280.823 69.6222C280.533 69.3892 280.164 69.2727 279.715 69.2727C279.266 69.2727 278.897 69.3892 278.607 69.6222C278.318 69.8551 278.103 70.1605 277.964 70.5384C277.825 70.9162 277.755 71.3239 277.755 71.7614C277.755 72.1989 277.825 72.6051 277.964 72.9801C278.103 73.3551 278.318 73.6577 278.607 73.8878C278.897 74.1179 279.266 74.233 279.715 74.233ZM285.222 66.2727V75H284.216V66.2727H285.222ZM290.814 70.7898V71.7273H286.996V70.7898H290.814ZM295.294 75.1193C294.794 75.1193 294.343 75.0199 293.943 74.821C293.542 74.6222 293.221 74.3494 292.98 74.0028C292.738 73.6562 292.606 73.2614 292.584 72.8182H293.606C293.646 73.2131 293.825 73.5398 294.143 73.7983C294.464 74.054 294.848 74.1818 295.294 74.1818C295.652 74.1818 295.97 74.098 296.248 73.9304C296.53 73.7628 296.75 73.5327 296.909 73.2401C297.071 72.9446 297.152 72.6108 297.152 72.2386C297.152 71.858 297.068 71.5185 296.9 71.2202C296.736 70.919 296.508 70.6818 296.218 70.5085C295.929 70.3352 295.598 70.2472 295.226 70.2443C294.959 70.2415 294.684 70.2827 294.403 70.3679C294.122 70.4503 293.89 70.5568 293.709 70.6875L292.72 70.5682L293.248 66.2727H297.782V67.2102H294.135L293.828 69.7841H293.879C294.058 69.642 294.282 69.5241 294.552 69.4304C294.822 69.3366 295.103 69.2898 295.396 69.2898C295.93 69.2898 296.406 69.4176 296.824 69.6733C297.244 69.9261 297.574 70.2727 297.812 70.7131C298.054 71.1534 298.174 71.6562 298.174 72.2216C298.174 72.7784 298.049 73.2756 297.799 73.7131C297.552 74.1477 297.211 74.4915 296.777 74.7443C296.342 74.9943 295.848 75.1193 295.294 75.1193Z" fill="white"/>
<rect x="4" y="125" width="345" height="75" fill="#7E5896"/>
<path d="M156.812 167.136C156.198 167.136 155.67 166.991 155.227 166.702C154.784 166.412 154.443 166.013 154.204 165.504C153.965 164.996 153.846 164.415 153.846 163.761C153.846 163.097 153.968 162.51 154.213 162.001C154.46 161.49 154.803 161.091 155.244 160.804C155.687 160.514 156.204 160.369 156.795 160.369C157.255 160.369 157.67 160.455 158.039 160.625C158.409 160.795 158.711 161.034 158.947 161.341C159.183 161.648 159.329 162.006 159.386 162.415H158.38C158.303 162.116 158.133 161.852 157.869 161.622C157.607 161.389 157.255 161.273 156.812 161.273C156.42 161.273 156.076 161.375 155.781 161.58C155.488 161.781 155.259 162.067 155.095 162.436C154.933 162.803 154.852 163.233 154.852 163.727C154.852 164.233 154.931 164.673 155.09 165.048C155.252 165.423 155.48 165.714 155.772 165.922C156.068 166.129 156.414 166.233 156.812 166.233C157.073 166.233 157.311 166.188 157.524 166.097C157.737 166.006 157.917 165.875 158.065 165.705C158.213 165.534 158.318 165.33 158.38 165.091H159.386C159.329 165.477 159.188 165.825 158.964 166.135C158.742 166.442 158.448 166.686 158.082 166.868C157.718 167.047 157.295 167.136 156.812 167.136ZM163.515 167.136C162.924 167.136 162.406 166.996 161.96 166.714C161.517 166.433 161.17 166.04 160.92 165.534C160.673 165.028 160.549 164.437 160.549 163.761C160.549 163.08 160.673 162.484 160.92 161.976C161.17 161.467 161.517 161.072 161.96 160.791C162.406 160.51 162.924 160.369 163.515 160.369C164.106 160.369 164.623 160.51 165.066 160.791C165.512 161.072 165.859 161.467 166.106 161.976C166.356 162.484 166.481 163.08 166.481 163.761C166.481 164.437 166.356 165.028 166.106 165.534C165.859 166.04 165.512 166.433 165.066 166.714C164.623 166.996 164.106 167.136 163.515 167.136ZM163.515 166.233C163.964 166.233 164.333 166.118 164.623 165.888C164.913 165.658 165.127 165.355 165.267 164.98C165.406 164.605 165.475 164.199 165.475 163.761C165.475 163.324 165.406 162.916 165.267 162.538C165.127 162.161 164.913 161.855 164.623 161.622C164.333 161.389 163.964 161.273 163.515 161.273C163.066 161.273 162.697 161.389 162.407 161.622C162.117 161.855 161.903 162.161 161.764 162.538C161.624 162.916 161.555 163.324 161.555 163.761C161.555 164.199 161.624 164.605 161.764 164.98C161.903 165.355 162.117 165.658 162.407 165.888C162.697 166.118 163.066 166.233 163.515 166.233ZM169.022 158.273V167H168.016V158.273H169.022ZM174.614 162.79V163.727H170.796V162.79H174.614ZM176.369 167L180.273 159.278V159.21H175.773V158.273H181.364V159.261L177.477 167H176.369Z" fill="white"/>
<path d="M26.9716 11.2727V20H25.9148V12.3807H25.8636L23.733 13.7955V12.7216L25.9148 11.2727H26.9716Z" fill="black"/>
<path d="M203.631 20.1193C203.131 20.1193 202.68 20.0199 202.28 19.821C201.879 19.6222 201.558 19.3494 201.317 19.0028C201.075 18.6562 200.943 18.2614 200.92 17.8182H201.943C201.983 18.2131 202.162 18.5398 202.48 18.7983C202.801 19.054 203.185 19.1818 203.631 19.1818C203.989 19.1818 204.307 19.098 204.585 18.9304C204.866 18.7628 205.087 18.5327 205.246 18.2401C205.408 17.9446 205.489 17.6108 205.489 17.2386C205.489 16.858 205.405 16.5185 205.237 16.2202C205.072 15.919 204.845 15.6818 204.555 15.5085C204.266 15.3352 203.935 15.2472 203.562 15.2443C203.295 15.2415 203.021 15.2827 202.74 15.3679C202.459 15.4503 202.227 15.5568 202.045 15.6875L201.057 15.5682L201.585 11.2727H206.119V12.2102H202.472L202.165 14.7841H202.216C202.395 14.642 202.619 14.5241 202.889 14.4304C203.159 14.3366 203.44 14.2898 203.733 14.2898C204.267 14.2898 204.743 14.4176 205.161 14.6733C205.581 14.9261 205.911 15.2727 206.149 15.7131C206.391 16.1534 206.511 16.6562 206.511 17.2216C206.511 17.7784 206.386 18.2756 206.136 18.7131C205.889 19.1477 205.548 19.4915 205.114 19.7443C204.679 19.9943 204.185 20.1193 203.631 20.1193Z" fill="black"/>
<path d="M374.682 11.1534C375.04 11.1562 375.398 11.2244 375.756 11.358C376.114 11.4915 376.44 11.7131 376.736 12.0227C377.031 12.3295 377.268 12.7486 377.447 13.2798C377.626 13.8111 377.716 14.4773 377.716 15.2784C377.716 16.054 377.642 16.7429 377.494 17.3452C377.349 17.9446 377.139 18.4503 376.864 18.8622C376.591 19.2741 376.259 19.5866 375.866 19.7997C375.477 20.0128 375.037 20.1193 374.545 20.1193C374.057 20.1193 373.621 20.0227 373.237 19.8295C372.857 19.6335 372.544 19.3622 372.3 19.0156C372.058 18.6662 371.903 18.2614 371.835 17.8011H372.875C372.969 18.2017 373.155 18.5327 373.433 18.794C373.714 19.0526 374.085 19.1818 374.545 19.1818C375.219 19.1818 375.75 18.8878 376.139 18.2997C376.531 17.7116 376.727 16.8807 376.727 15.8068H376.659C376.5 16.0455 376.311 16.2514 376.092 16.4247C375.874 16.598 375.631 16.7315 375.364 16.8253C375.097 16.919 374.813 16.9659 374.511 16.9659C374.011 16.9659 373.553 16.8423 373.135 16.5952C372.72 16.3452 372.388 16.0028 372.138 15.5682C371.891 15.1307 371.767 14.6307 371.767 14.0682C371.767 13.5341 371.886 13.0455 372.125 12.6023C372.366 12.1562 372.705 11.8011 373.139 11.5369C373.577 11.2727 374.091 11.1449 374.682 11.1534ZM374.682 12.0909C374.324 12.0909 374.001 12.1804 373.714 12.3594C373.43 12.5355 373.205 12.7741 373.037 13.0753C372.872 13.3736 372.79 13.7045 372.79 14.0682C372.79 14.4318 372.869 14.7628 373.028 15.0611C373.19 15.3565 373.411 15.5923 373.689 15.7685C373.97 15.9418 374.29 16.0284 374.648 16.0284C374.918 16.0284 375.169 15.9759 375.402 15.8707C375.635 15.7628 375.838 15.6165 376.011 15.4318C376.188 15.2443 376.325 15.0327 376.425 14.7969C376.524 14.5582 376.574 14.3097 376.574 14.0511C376.574 13.7102 376.491 13.3906 376.327 13.0923C376.165 12.794 375.94 12.5526 375.653 12.3679C375.369 12.1832 375.045 12.0909 374.682 12.0909Z" fill="black"/>
<path d="M66.9034 20V19.233L69.7841 16.0795C70.1222 15.7102 70.4006 15.3892 70.6193 15.1165C70.8381 14.8409 71 14.5824 71.1051 14.3409C71.2131 14.0966 71.267 13.8409 71.267 13.5739C71.267 13.267 71.1932 13.0014 71.0455 12.777C70.9006 12.5526 70.7017 12.3793 70.4489 12.2571C70.196 12.1349 69.9119 12.0739 69.5966 12.0739C69.2614 12.0739 68.9688 12.1435 68.7188 12.2827C68.4716 12.419 68.2798 12.6108 68.1435 12.858C68.0099 13.1051 67.9432 13.3949 67.9432 13.7273H66.9375C66.9375 13.2159 67.0554 12.767 67.2912 12.3807C67.527 11.9943 67.848 11.6932 68.2543 11.4773C68.6634 11.2614 69.1222 11.1534 69.6307 11.1534C70.142 11.1534 70.5952 11.2614 70.9901 11.4773C71.3849 11.6932 71.6946 11.9844 71.919 12.3509C72.1435 12.7173 72.2557 13.125 72.2557 13.5739C72.2557 13.8949 72.1974 14.2088 72.081 14.5156C71.9673 14.8196 71.7685 15.1591 71.4844 15.5341C71.2031 15.9062 70.8125 16.3608 70.3125 16.8977L68.3523 18.9943V19.0625H72.4091V20H66.9034Z" fill="black"/>
<path d="M246.801 20.1193C246.443 20.1136 246.085 20.0455 245.727 19.9148C245.369 19.7841 245.043 19.5639 244.747 19.2543C244.452 18.9418 244.214 18.5199 244.036 17.9886C243.857 17.4545 243.767 16.7841 243.767 15.9773C243.767 15.2045 243.839 14.5199 243.984 13.9233C244.129 13.3239 244.339 12.8196 244.615 12.4105C244.891 11.9986 245.223 11.6861 245.612 11.473C246.004 11.2599 246.446 11.1534 246.938 11.1534C247.426 11.1534 247.861 11.2514 248.241 11.4474C248.625 11.6406 248.938 11.9105 249.179 12.2571C249.42 12.6037 249.577 13.0028 249.648 13.4545H248.608C248.511 13.0625 248.324 12.7372 248.045 12.4787C247.767 12.2202 247.398 12.0909 246.938 12.0909C246.261 12.0909 245.729 12.3849 245.339 12.973C244.953 13.5611 244.759 14.3864 244.756 15.4489H244.824C244.983 15.2074 245.172 15.0014 245.391 14.831C245.612 14.6577 245.857 14.5241 246.124 14.4304C246.391 14.3366 246.673 14.2898 246.972 14.2898C247.472 14.2898 247.929 14.4148 248.344 14.6648C248.759 14.9119 249.091 15.2543 249.341 15.6918C249.591 16.1264 249.716 16.625 249.716 17.1875C249.716 17.7273 249.595 18.2216 249.354 18.6705C249.112 19.1165 248.773 19.4716 248.335 19.7358C247.901 19.9972 247.389 20.125 246.801 20.1193ZM246.801 19.1818C247.159 19.1818 247.48 19.0923 247.764 18.9134C248.051 18.7344 248.277 18.4943 248.442 18.1932C248.609 17.892 248.693 17.5568 248.693 17.1875C248.693 16.8267 248.612 16.4986 248.45 16.2031C248.291 15.9048 248.071 15.6676 247.79 15.4915C247.511 15.3153 247.193 15.2273 246.835 15.2273C246.565 15.2273 246.314 15.2812 246.081 15.3892C245.848 15.4943 245.643 15.6392 245.467 15.8239C245.294 16.0085 245.158 16.2202 245.058 16.4588C244.959 16.6946 244.909 16.9432 244.909 17.2045C244.909 17.5511 244.99 17.875 245.152 18.1761C245.317 18.4773 245.541 18.7202 245.825 18.9048C246.112 19.0895 246.438 19.1818 246.801 19.1818Z" fill="black"/>
<path d="M409.972 11.2727V20H408.915V12.3807H408.864L406.733 13.7955V12.7216L408.915 11.2727H409.972ZM415.328 20.1193C414.686 20.1193 414.139 19.9446 413.688 19.5952C413.236 19.2429 412.891 18.733 412.652 18.0653C412.413 17.3949 412.294 16.5852 412.294 15.6364C412.294 14.6932 412.413 13.8878 412.652 13.2202C412.893 12.5497 413.24 12.0384 413.692 11.6861C414.146 11.331 414.692 11.1534 415.328 11.1534C415.964 11.1534 416.509 11.331 416.96 11.6861C417.415 12.0384 417.761 12.5497 418 13.2202C418.241 13.8878 418.362 14.6932 418.362 15.6364C418.362 16.5852 418.243 17.3949 418.004 18.0653C417.766 18.733 417.42 19.2429 416.969 19.5952C416.517 19.9446 415.97 20.1193 415.328 20.1193ZM415.328 19.1818C415.964 19.1818 416.459 18.875 416.811 18.2614C417.163 17.6477 417.339 16.7727 417.339 15.6364C417.339 14.8807 417.259 14.2372 417.097 13.706C416.938 13.1747 416.707 12.7699 416.406 12.4915C416.108 12.2131 415.749 12.0739 415.328 12.0739C414.697 12.0739 414.205 12.3849 413.849 13.0071C413.494 13.6264 413.317 14.5028 413.317 15.6364C413.317 16.392 413.396 17.0341 413.555 17.5625C413.714 18.0909 413.943 18.4929 414.241 18.7685C414.543 19.044 414.905 19.1818 415.328 19.1818Z" fill="black"/>
<path d="M111.852 20.1193C111.29 20.1193 110.788 20.0227 110.348 19.8295C109.911 19.6364 109.563 19.3679 109.304 19.0241C109.048 18.6776 108.909 18.2756 108.886 17.8182H109.96C109.983 18.0994 110.08 18.3423 110.25 18.5469C110.42 18.7486 110.643 18.9048 110.919 19.0156C111.195 19.1264 111.5 19.1818 111.835 19.1818C112.21 19.1818 112.543 19.1165 112.832 18.9858C113.122 18.8551 113.349 18.6733 113.514 18.4403C113.679 18.2074 113.761 17.9375 113.761 17.6307C113.761 17.3097 113.682 17.027 113.523 16.7827C113.364 16.5355 113.131 16.3423 112.824 16.2031C112.517 16.0639 112.142 15.9943 111.699 15.9943H111V15.0568H111.699C112.045 15.0568 112.349 14.9943 112.611 14.8693C112.875 14.7443 113.081 14.5682 113.229 14.3409C113.379 14.1136 113.455 13.8466 113.455 13.5398C113.455 13.2443 113.389 12.9872 113.259 12.7685C113.128 12.5497 112.943 12.3793 112.705 12.2571C112.469 12.1349 112.19 12.0739 111.869 12.0739C111.568 12.0739 111.284 12.1293 111.017 12.2401C110.753 12.348 110.537 12.5057 110.369 12.7131C110.202 12.9176 110.111 13.1648 110.097 13.4545H109.074C109.091 12.9972 109.229 12.5966 109.487 12.2528C109.746 11.9062 110.084 11.6364 110.501 11.4432C110.922 11.25 111.384 11.1534 111.886 11.1534C112.426 11.1534 112.889 11.2628 113.276 11.4815C113.662 11.6974 113.959 11.983 114.166 12.3381C114.374 12.6932 114.477 13.0767 114.477 13.4886C114.477 13.9801 114.348 14.3991 114.089 14.7457C113.834 15.0923 113.486 15.3324 113.045 15.4659V15.5341C113.597 15.625 114.027 15.8594 114.337 16.2372C114.646 16.6122 114.801 17.0767 114.801 17.6307C114.801 18.1051 114.672 18.5312 114.413 18.9091C114.158 19.2841 113.808 19.5795 113.365 19.7955C112.922 20.0114 112.418 20.1193 111.852 20.1193Z" fill="black"/>
<path d="M286.176 20L290.08 12.2784V12.2102H285.58V11.2727H291.17V12.2614L287.284 20H286.176Z" fill="black"/>
<path d="M457.972 11.2727V20H456.915V12.3807H456.864L454.733 13.7955V12.7216L456.915 11.2727H457.972ZM463.55 11.2727V20H462.493V12.3807H462.442L460.311 13.7955V12.7216L462.493 11.2727H463.55Z" fill="black"/>
<path d="M152.699 18.2102V17.3409L156.534 11.2727H157.165V12.6193H156.739L153.841 17.2045V17.2727H159.006V18.2102H152.699ZM156.807 20V17.946V17.5412V11.2727H157.812V20H156.807Z" fill="black"/>
<path d="M332.699 20.1193C332.114 20.1193 331.597 20.0156 331.148 19.8082C330.702 19.598 330.354 19.3097 330.104 18.9432C329.854 18.5739 329.73 18.1534 329.733 17.6818C329.73 17.3125 329.803 16.9716 329.95 16.6591C330.098 16.3437 330.3 16.081 330.555 15.8707C330.814 15.6577 331.102 15.5227 331.42 15.4659V15.4148C331.003 15.3068 330.67 15.0724 330.423 14.7116C330.176 14.348 330.054 13.9347 330.057 13.4716C330.054 13.0284 330.166 12.6321 330.393 12.2827C330.621 11.9332 330.933 11.6577 331.331 11.456C331.732 11.2543 332.188 11.1534 332.699 11.1534C333.205 11.1534 333.656 11.2543 334.054 11.456C334.452 11.6577 334.764 11.9332 334.991 12.2827C335.222 12.6321 335.338 13.0284 335.341 13.4716C335.338 13.9347 335.212 14.348 334.962 14.7116C334.714 15.0724 334.386 15.3068 333.977 15.4148V15.4659C334.293 15.5227 334.577 15.6577 334.83 15.8707C335.082 16.081 335.284 16.3437 335.435 16.6591C335.585 16.9716 335.662 17.3125 335.665 17.6818C335.662 18.1534 335.534 18.5739 335.281 18.9432C335.031 19.3097 334.683 19.598 334.237 19.8082C333.794 20.0156 333.281 20.1193 332.699 20.1193ZM332.699 19.1818C333.094 19.1818 333.435 19.1179 333.722 18.9901C334.009 18.8622 334.23 18.6818 334.386 18.4489C334.543 18.2159 334.622 17.9432 334.625 17.6307C334.622 17.3011 334.537 17.0099 334.369 16.7571C334.202 16.5043 333.973 16.3054 333.683 16.1605C333.396 16.0156 333.068 15.9432 332.699 15.9432C332.327 15.9432 331.994 16.0156 331.702 16.1605C331.412 16.3054 331.183 16.5043 331.016 16.7571C330.851 17.0099 330.77 17.3011 330.773 17.6307C330.77 17.9432 330.845 18.2159 330.999 18.4489C331.155 18.6818 331.378 18.8622 331.668 18.9901C331.957 19.1179 332.301 19.1818 332.699 19.1818ZM332.699 15.0398C333.011 15.0398 333.288 14.9773 333.53 14.8523C333.774 14.7273 333.966 14.5526 334.105 14.3281C334.244 14.1037 334.315 13.8409 334.318 13.5398C334.315 13.2443 334.246 12.9872 334.109 12.7685C333.973 12.5469 333.784 12.3764 333.543 12.2571C333.301 12.1349 333.02 12.0739 332.699 12.0739C332.372 12.0739 332.087 12.1349 331.842 12.2571C331.598 12.3764 331.409 12.5469 331.276 12.7685C331.142 12.9872 331.077 13.2443 331.08 13.5398C331.077 13.8409 331.143 14.1037 331.28 14.3281C331.419 14.5526 331.611 14.7273 331.855 14.8523C332.099 14.9773 332.381 15.0398 332.699 15.0398Z" fill="black"/>
<path d="M499.972 11.2727V20H498.915V12.3807H498.864L496.733 13.7955V12.7216L498.915 11.2727H499.972ZM502.482 20V19.233L505.362 16.0795C505.7 15.7102 505.979 15.3892 506.197 15.1165C506.416 14.8409 506.578 14.5824 506.683 14.3409C506.791 14.0966 506.845 13.8409 506.845 13.5739C506.845 13.267 506.771 13.0014 506.624 12.777C506.479 12.5526 506.28 12.3793 506.027 12.2571C505.774 12.1349 505.49 12.0739 505.175 12.0739C504.839 12.0739 504.547 12.1435 504.297 12.2827C504.05 12.419 503.858 12.6108 503.722 12.858C503.588 13.1051 503.521 13.3949 503.521 13.7273H502.516C502.516 13.2159 502.634 12.767 502.869 12.3807C503.105 11.9943 503.426 11.6932 503.832 11.4773C504.241 11.2614 504.7 11.1534 505.209 11.1534C505.72 11.1534 506.173 11.2614 506.568 11.4773C506.963 11.6932 507.273 11.9844 507.497 12.3509C507.722 12.7173 507.834 13.125 507.834 13.5739C507.834 13.8949 507.776 14.2088 507.659 14.5156C507.545 14.8196 507.347 15.1591 507.062 15.5341C506.781 15.9062 506.391 16.3608 505.891 16.8977L503.93 18.9943V19.0625H507.987V20H502.482Z" fill="black"/>
<line x1="47.5" y1="4" x2="47.5" y2="230" stroke="black"/>
<line x1="90.5" y1="4" x2="90.5" y2="230" stroke="black"/>
<line x1="133.5" y1="4" x2="133.5" y2="230" stroke="black"/>
<line x1="176.5" y1="4" x2="176.5" y2="230" stroke="black"/>
<line x1="219.5" y1="4" x2="219.5" y2="230" stroke="black"/>
<line x1="262.5" y1="4" x2="262.5" y2="230" stroke="black"/>
<line x1="305.5" y1="4" x2="305.5" y2="230" stroke="black"/>
<line x1="348.5" y1="4" x2="348.5" y2="230" stroke="black"/>
<line x1="391.5" y1="4" x2="391.5" y2="230" stroke="black"/>
<line x1="434.5" y1="4" x2="434.5" y2="230" stroke="black"/>
<line x1="477.5" y1="4" x2="477.5" y2="230" stroke="black"/>
</g>
<defs>
<filter id="filter0_d_133_16" x="0" y="0" width="525" height="238" filterUnits="userSpaceOnUse" color-interpolation-filters="sRGB">
<feFlood flood-opacity="0" result="BackgroundImageFix"/>
<feColorMatrix in="SourceAlpha" type="matrix" values="0 0 0 0 0 0 0 0 0 0 0 0 0 0 0 0 0 0 127 0" result="hardAlpha"/>
<feOffset dy="4"/>
<feGaussianBlur stdDeviation="2"/>
<feComposite in2="hardAlpha" operator="out"/>
<feColorMatrix type="matrix" values="0 0 0 0 0 0 0 0 0 0 0 0 0 0 0 0 0 0 0.25 0"/>
<feBlend mode="normal" in2="BackgroundImageFix" result="effect1_dropShadow_133_16"/>
<feBlend mode="normal" in="SourceGraphic" in2="effect1_dropShadow_133_16" result="shape"/>
</filter>
</defs>
</svg>
