<svg width="551" height="246" viewBox="0 0 551 246" fill="none" xmlns="http://www.w3.org/2000/svg">
<path d="M11.3011 134.364V136.92H1.125V134.364H11.3011ZM4.09091 129.659H7.10795V148.375C7.10795 149.227 7.23153 149.866 7.47869 150.293C7.73438 150.71 8.05824 150.991 8.45028 151.136C8.85085 151.273 9.27273 151.341 9.71591 151.341C10.0483 151.341 10.321 151.324 10.5341 151.29C10.7472 151.247 10.9176 151.213 11.0455 151.188L11.6591 153.898C11.4545 153.974 11.169 154.051 10.8026 154.128C10.4361 154.213 9.97159 154.256 9.40909 154.256C8.55682 154.256 7.72159 154.072 6.90341 153.706C6.09375 153.339 5.42045 152.781 4.88352 152.031C4.35511 151.281 4.09091 150.335 4.09091 149.193V129.659ZM17.7827 161.364C17.2713 161.364 16.8153 161.321 16.4148 161.236C16.0142 161.159 15.7372 161.082 15.5838 161.006L16.3509 158.347C17.0838 158.534 17.7315 158.602 18.294 158.551C18.8565 158.5 19.3551 158.249 19.7898 157.797C20.233 157.354 20.6378 156.634 21.0043 155.636L21.5668 154.102L14.3054 134.364H17.5781L22.9986 150.011H23.2031L28.6236 134.364H31.8963L23.5611 156.864C23.1861 157.878 22.7216 158.717 22.1676 159.382C21.6136 160.055 20.9702 160.554 20.2372 160.878C19.5128 161.202 18.6946 161.364 17.7827 161.364ZM35.8786 161.364V134.364H38.7933V137.483H39.1513C39.3729 137.142 39.6797 136.707 40.0717 136.179C40.4723 135.642 41.0433 135.165 41.7848 134.747C42.5348 134.321 43.549 134.108 44.8274 134.108C46.4808 134.108 47.9382 134.521 49.1996 135.348C50.4609 136.175 51.4453 137.347 52.1527 138.864C52.8601 140.381 53.2138 142.17 53.2138 144.233C53.2138 146.312 52.8601 148.115 52.1527 149.641C51.4453 151.158 50.4652 152.334 49.2124 153.169C47.9595 153.996 46.5149 154.409 44.8786 154.409C43.6172 154.409 42.6072 154.2 41.8487 153.783C41.0902 153.357 40.5064 152.875 40.0973 152.338C39.6882 151.793 39.3729 151.341 39.1513 150.983H38.8956V161.364H35.8786ZM38.8445 144.182C38.8445 145.665 39.0618 146.973 39.4964 148.107C39.9311 149.232 40.5661 150.114 41.4013 150.753C42.2365 151.384 43.2592 151.699 44.4695 151.699C45.7308 151.699 46.7834 151.366 47.6271 150.702C48.4794 150.028 49.1186 149.125 49.5447 147.991C49.9794 146.849 50.1967 145.58 50.1967 144.182C50.1967 142.801 49.9837 141.557 49.5575 140.449C49.1399 139.332 48.505 138.45 47.6527 137.803C46.8089 137.146 45.7479 136.818 44.4695 136.818C43.2422 136.818 42.2109 137.129 41.3757 137.751C40.5405 138.365 39.9098 139.226 39.4837 140.334C39.0575 141.433 38.8445 142.716 38.8445 144.182ZM66.049 154.409C64.157 154.409 62.5249 153.991 61.1527 153.156C59.7891 152.312 58.7365 151.136 57.995 149.628C57.2621 148.111 56.8956 146.347 56.8956 144.335C56.8956 142.324 57.2621 140.551 57.995 139.017C58.7365 137.474 59.7678 136.273 61.0888 135.412C62.4183 134.543 63.9695 134.108 65.7422 134.108C66.7649 134.108 67.7749 134.278 68.772 134.619C69.7692 134.96 70.6768 135.514 71.495 136.281C72.3132 137.04 72.9652 138.045 73.451 139.298C73.9368 140.551 74.1797 142.094 74.1797 143.926V145.205H59.0433V142.597H71.1115C71.1115 141.489 70.8899 140.5 70.4467 139.631C70.0121 138.761 69.3899 138.075 68.5803 137.572C67.7791 137.07 66.8331 136.818 65.7422 136.818C64.5405 136.818 63.5007 137.116 62.6229 137.713C61.7536 138.301 61.0845 139.068 60.6158 140.014C60.147 140.96 59.9126 141.974 59.9126 143.057V144.795C59.9126 146.278 60.1683 147.536 60.6797 148.567C61.1996 149.589 61.9197 150.369 62.8402 150.906C63.7607 151.435 64.8303 151.699 66.049 151.699C66.8416 151.699 67.5575 151.588 68.1967 151.366C68.8445 151.136 69.4027 150.795 69.8714 150.344C70.3402 149.884 70.7024 149.312 70.9581 148.631L73.8729 149.449C73.5661 150.438 73.0504 151.307 72.326 152.057C71.6016 152.798 70.7067 153.378 69.6413 153.795C68.576 154.205 67.3786 154.409 66.049 154.409ZM79.9964 141.369V138.608H95.7465V141.369H79.9964ZM79.9964 148.938V146.176H95.7465V148.938H79.9964ZM105.159 127.818V130.119C105.159 130.818 105.031 131.564 104.775 132.357C104.528 133.141 104.162 133.903 103.676 134.645C103.199 135.378 102.619 136.017 101.937 136.562L100.301 135.233C100.838 134.466 101.302 133.669 101.694 132.842C102.095 132.007 102.295 131.116 102.295 130.17V127.818H105.159ZM114.871 154.409C113.031 154.409 111.445 153.974 110.116 153.105C108.786 152.236 107.763 151.038 107.048 149.513C106.332 147.987 105.974 146.244 105.974 144.284C105.974 142.29 106.34 140.53 107.073 139.004C107.815 137.47 108.846 136.273 110.167 135.412C111.496 134.543 113.048 134.108 114.82 134.108C116.201 134.108 117.445 134.364 118.553 134.875C119.661 135.386 120.569 136.102 121.276 137.023C121.984 137.943 122.423 139.017 122.593 140.244H119.576C119.346 139.349 118.835 138.557 118.042 137.866C117.258 137.168 116.201 136.818 114.871 136.818C113.695 136.818 112.664 137.125 111.778 137.739C110.9 138.344 110.214 139.2 109.719 140.308C109.234 141.408 108.991 142.699 108.991 144.182C108.991 145.699 109.229 147.02 109.707 148.145C110.192 149.27 110.874 150.143 111.752 150.766C112.638 151.388 113.678 151.699 114.871 151.699C115.656 151.699 116.367 151.562 117.006 151.29C117.646 151.017 118.187 150.625 118.63 150.114C119.073 149.602 119.388 148.989 119.576 148.273H122.593C122.423 149.432 122.001 150.476 121.327 151.405C120.663 152.325 119.781 153.058 118.681 153.604C117.59 154.141 116.32 154.409 114.871 154.409ZM130.021 142.188V154H127.004V127.818H130.021V137.432H130.276C130.737 136.418 131.427 135.612 132.347 135.016C133.276 134.411 134.512 134.108 136.055 134.108C137.393 134.108 138.565 134.376 139.57 134.913C140.576 135.442 141.356 136.256 141.91 137.355C142.472 138.446 142.754 139.835 142.754 141.523V154H139.737V141.727C139.737 140.168 139.332 138.962 138.522 138.109C137.721 137.249 136.609 136.818 135.185 136.818C134.197 136.818 133.31 137.027 132.526 137.445C131.751 137.862 131.137 138.472 130.685 139.273C130.242 140.074 130.021 141.045 130.021 142.188ZM156.506 154.409C154.614 154.409 152.982 153.991 151.61 153.156C150.246 152.312 149.194 151.136 148.452 149.628C147.719 148.111 147.353 146.347 147.353 144.335C147.353 142.324 147.719 140.551 148.452 139.017C149.194 137.474 150.225 136.273 151.546 135.412C152.875 134.543 154.426 134.108 156.199 134.108C157.222 134.108 158.232 134.278 159.229 134.619C160.226 134.96 161.134 135.514 161.952 136.281C162.77 137.04 163.422 138.045 163.908 139.298C164.394 140.551 164.637 142.094 164.637 143.926V145.205H149.5V142.597H161.569C161.569 141.489 161.347 140.5 160.904 139.631C160.469 138.761 159.847 138.075 159.037 137.572C158.236 137.07 157.29 136.818 156.199 136.818C154.998 136.818 153.958 137.116 153.08 137.713C152.211 138.301 151.542 139.068 151.073 140.014C150.604 140.96 150.37 141.974 150.37 143.057V144.795C150.37 146.278 150.625 147.536 151.137 148.567C151.657 149.589 152.377 150.369 153.297 150.906C154.218 151.435 155.287 151.699 156.506 151.699C157.299 151.699 158.015 151.588 158.654 151.366C159.301 151.136 159.86 150.795 160.328 150.344C160.797 149.884 161.159 149.312 161.415 148.631L164.33 149.449C164.023 150.438 163.507 151.307 162.783 152.057C162.059 152.798 161.164 153.378 160.098 153.795C159.033 154.205 157.836 154.409 156.506 154.409ZM177.203 154.409C175.363 154.409 173.777 153.974 172.448 153.105C171.118 152.236 170.096 151.038 169.38 149.513C168.664 147.987 168.306 146.244 168.306 144.284C168.306 142.29 168.672 140.53 169.405 139.004C170.147 137.47 171.178 136.273 172.499 135.412C173.828 134.543 175.38 134.108 177.152 134.108C178.533 134.108 179.777 134.364 180.885 134.875C181.993 135.386 182.901 136.102 183.608 137.023C184.316 137.943 184.755 139.017 184.925 140.244H181.908C181.678 139.349 181.167 138.557 180.374 137.866C179.59 137.168 178.533 136.818 177.203 136.818C176.027 136.818 174.996 137.125 174.11 137.739C173.232 138.344 172.546 139.2 172.051 140.308C171.566 141.408 171.323 142.699 171.323 144.182C171.323 145.699 171.561 147.02 172.039 148.145C172.525 149.27 173.206 150.143 174.084 150.766C174.971 151.388 176.01 151.699 177.203 151.699C177.988 151.699 178.699 151.562 179.338 151.29C179.978 151.017 180.519 150.625 180.962 150.114C181.405 149.602 181.721 148.989 181.908 148.273H184.925C184.755 149.432 184.333 150.476 183.659 151.405C182.995 152.325 182.113 153.058 181.013 153.604C179.922 154.141 178.652 154.409 177.203 154.409ZM192.148 146.841L192.097 143.108H192.711L201.301 134.364H205.034L195.881 143.619H195.625L192.148 146.841ZM189.336 154V127.818H192.353V154H189.336ZM201.813 154L194.142 144.284L196.29 142.188L205.648 154H201.813ZM209.327 154V127.818H212.344V137.483H212.599C212.821 137.142 213.128 136.707 213.52 136.179C213.92 135.642 214.491 135.165 215.233 134.747C215.983 134.321 216.997 134.108 218.276 134.108C219.929 134.108 221.386 134.521 222.648 135.348C223.909 136.175 224.893 137.347 225.601 138.864C226.308 140.381 226.662 142.17 226.662 144.233C226.662 146.312 226.308 148.115 225.601 149.641C224.893 151.158 223.913 152.334 222.661 153.169C221.408 153.996 219.963 154.409 218.327 154.409C217.065 154.409 216.055 154.2 215.297 153.783C214.538 153.357 213.955 152.875 213.545 152.338C213.136 151.793 212.821 151.341 212.599 150.983H212.241V154H209.327ZM212.293 144.182C212.293 145.665 212.51 146.973 212.945 148.107C213.379 149.232 214.014 150.114 214.849 150.753C215.685 151.384 216.707 151.699 217.918 151.699C219.179 151.699 220.232 151.366 221.075 150.702C221.928 150.028 222.567 149.125 222.993 147.991C223.428 146.849 223.645 145.58 223.645 144.182C223.645 142.801 223.432 141.557 223.006 140.449C222.588 139.332 221.953 138.45 221.101 137.803C220.257 137.146 219.196 136.818 217.918 136.818C216.69 136.818 215.659 137.129 214.824 137.751C213.989 138.365 213.358 139.226 212.932 140.334C212.506 141.433 212.293 142.716 212.293 144.182ZM239.254 154.409C237.482 154.409 235.926 153.987 234.588 153.143C233.259 152.3 232.219 151.119 231.469 149.602C230.727 148.085 230.357 146.312 230.357 144.284C230.357 142.239 230.727 140.453 231.469 138.928C232.219 137.402 233.259 136.217 234.588 135.374C235.926 134.53 237.482 134.108 239.254 134.108C241.027 134.108 242.578 134.53 243.908 135.374C245.246 136.217 246.286 137.402 247.027 138.928C247.777 140.453 248.152 142.239 248.152 144.284C248.152 146.312 247.777 148.085 247.027 149.602C246.286 151.119 245.246 152.3 243.908 153.143C242.578 153.987 241.027 154.409 239.254 154.409ZM239.254 151.699C240.601 151.699 241.709 151.354 242.578 150.663C243.447 149.973 244.091 149.065 244.509 147.94C244.926 146.815 245.135 145.597 245.135 144.284C245.135 142.972 244.926 141.749 244.509 140.615C244.091 139.482 243.447 138.565 242.578 137.866C241.709 137.168 240.601 136.818 239.254 136.818C237.908 136.818 236.8 137.168 235.93 137.866C235.061 138.565 234.418 139.482 234 140.615C233.582 141.749 233.374 142.972 233.374 144.284C233.374 145.597 233.582 146.815 234 147.94C234.418 149.065 235.061 149.973 235.93 150.663C236.8 151.354 237.908 151.699 239.254 151.699ZM254.199 134.364L258.903 142.392L263.608 134.364H267.085L260.744 144.182L267.085 154H263.608L258.903 146.381L254.199 154H250.722L256.96 144.182L250.722 134.364H254.199ZM274.049 127.818V130.119C274.049 130.818 273.922 131.564 273.666 132.357C273.419 133.141 273.052 133.903 272.566 134.645C272.089 135.378 271.51 136.017 270.828 136.562L269.191 135.233C269.728 134.466 270.193 133.669 270.585 132.842C270.985 132.007 271.186 131.116 271.186 130.17V127.818H274.049Z" fill="#FF0000"/>
<rect x="310.5" y="4.5" width="49" height="49" rx="3.5" fill="white" stroke="black"/>
<rect x="310.5" y="192.5" width="49" height="49" rx="3.5" fill="white" stroke="black"/>
<rect x="310.5" y="94.5" width="49" height="49" rx="3.5" fill="#3981EC" stroke="black"/>
<path d="M349.833 107.75L330.125 127.458L321.167 118.5" stroke="white" stroke-width="2" stroke-linecap="round" stroke-linejoin="round"/>
<path d="M396.659 46H392.227L405.045 11.0909H409.409L422.227 46H417.795L407.364 16.6136H407.091L396.659 46ZM398.295 32.3636H416.159V36.1136H398.295V32.3636ZM410.568 2.36364H414.318C414.318 4.20455 413.682 5.71023 412.409 6.88068C411.136 8.05114 409.409 8.63636 407.227 8.63636C405.08 8.63636 403.369 8.05114 402.097 6.88068C400.835 5.71023 400.205 4.20455 400.205 2.36364H403.955C403.955 3.25 404.199 4.02841 404.688 4.69886C405.188 5.36932 406.034 5.70454 407.227 5.70454C408.42 5.70454 409.273 5.36932 409.784 4.69886C410.307 4.02841 410.568 3.25 410.568 2.36364ZM431.142 30.25V46H427.119V19.8182H431.006V23.9091H431.347C431.96 22.5795 432.892 21.5114 434.142 20.7045C435.392 19.8864 437.006 19.4773 438.983 19.4773C440.756 19.4773 442.307 19.8409 443.636 20.5682C444.966 21.2841 446 22.375 446.739 23.8409C447.477 25.2955 447.847 27.1364 447.847 29.3636V46H443.824V29.6364C443.824 27.5795 443.29 25.9773 442.222 24.8295C441.153 23.6705 439.688 23.0909 437.824 23.0909C436.54 23.0909 435.392 23.3693 434.381 23.9261C433.381 24.483 432.591 25.2955 432.011 26.3636C431.432 27.4318 431.142 28.7273 431.142 30.25ZM472.72 30.25V46H468.697V19.8182H472.584V23.9091H472.925C473.538 22.5795 474.47 21.5114 475.72 20.7045C476.97 19.8864 478.584 19.4773 480.561 19.4773C482.334 19.4773 483.885 19.8409 485.214 20.5682C486.544 21.2841 487.578 22.375 488.317 23.8409C489.055 25.2955 489.425 27.1364 489.425 29.3636V46H485.402V29.6364C485.402 27.5795 484.868 25.9773 483.8 24.8295C482.732 23.6705 481.266 23.0909 479.402 23.0909C478.118 23.0909 476.97 23.3693 475.959 23.9261C474.959 24.483 474.169 25.2955 473.589 26.3636C473.01 27.4318 472.72 28.7273 472.72 30.25ZM507.412 46.5455C505.048 46.5455 502.974 45.983 501.19 44.858C499.418 43.733 498.031 42.1591 497.031 40.1364C496.043 38.1136 495.548 35.75 495.548 33.0455C495.548 30.3182 496.043 27.9375 497.031 25.9034C498.031 23.8693 499.418 22.2898 501.19 21.1648C502.974 20.0398 505.048 19.4773 507.412 19.4773C509.776 19.4773 511.844 20.0398 513.616 21.1648C515.401 22.2898 516.787 23.8693 517.776 25.9034C518.776 27.9375 519.276 30.3182 519.276 33.0455C519.276 35.75 518.776 38.1136 517.776 40.1364C516.787 42.1591 515.401 43.733 513.616 44.858C511.844 45.983 509.776 46.5455 507.412 46.5455ZM507.412 42.9318C509.207 42.9318 510.685 42.4716 511.844 41.5511C513.003 40.6307 513.861 39.4205 514.418 37.9205C514.974 36.4205 515.253 34.7955 515.253 33.0455C515.253 31.2955 514.974 29.6648 514.418 28.1534C513.861 26.642 513.003 25.4205 511.844 24.4886C510.685 23.5568 509.207 23.0909 507.412 23.0909C505.616 23.0909 504.139 23.5568 502.98 24.4886C501.821 25.4205 500.963 26.642 500.406 28.1534C499.849 29.6648 499.571 31.2955 499.571 33.0455C499.571 34.7955 499.849 36.4205 500.406 37.9205C500.963 39.4205 501.821 40.6307 502.98 41.5511C504.139 42.4716 505.616 42.9318 507.412 42.9318Z" fill="black"/>
<path d="M406 234H397.614V230.25H405.727C408.614 230.25 411.006 229.693 412.903 228.58C414.801 227.466 416.216 225.881 417.148 223.824C418.08 221.767 418.545 219.318 418.545 216.477C418.545 213.659 418.085 211.233 417.165 209.199C416.244 207.153 414.869 205.585 413.04 204.494C411.21 203.392 408.932 202.841 406.205 202.841H397.409V199.091H406.477C409.864 199.091 412.761 199.79 415.17 201.188C417.58 202.574 419.426 204.568 420.71 207.17C421.994 209.761 422.636 212.864 422.636 216.477C422.636 220.114 421.989 223.244 420.693 225.869C419.398 228.483 417.511 230.494 415.034 231.903C412.557 233.301 409.545 234 406 234ZM399.455 199.091V234H395.227V199.091H399.455ZM389.841 217.568V214.432H404.841V217.568H389.841ZM429.182 234V207.818H433.205V234H429.182ZM431.227 203.455C430.443 203.455 429.767 203.188 429.199 202.653C428.642 202.119 428.364 201.477 428.364 200.727C428.364 199.977 428.642 199.335 429.199 198.801C429.767 198.267 430.443 198 431.227 198C432.011 198 432.682 198.267 433.239 198.801C433.807 199.335 434.091 199.977 434.091 200.727C434.091 201.477 433.807 202.119 433.239 202.653C432.682 203.188 432.011 203.455 431.227 203.455ZM464.709 234.545C462.254 234.545 460.141 233.966 458.368 232.807C456.595 231.648 455.232 230.051 454.277 228.017C453.322 225.983 452.845 223.659 452.845 221.045C452.845 218.386 453.334 216.04 454.311 214.006C455.3 211.96 456.675 210.364 458.436 209.216C460.209 208.057 462.277 207.477 464.641 207.477C466.482 207.477 468.141 207.818 469.618 208.5C471.095 209.182 472.305 210.136 473.249 211.364C474.192 212.591 474.777 214.023 475.004 215.659H470.982C470.675 214.466 469.993 213.409 468.936 212.489C467.891 211.557 466.482 211.091 464.709 211.091C463.141 211.091 461.766 211.5 460.584 212.318C459.413 213.125 458.499 214.267 457.839 215.744C457.192 217.21 456.868 218.932 456.868 220.909C456.868 222.932 457.186 224.693 457.822 226.193C458.47 227.693 459.379 228.858 460.55 229.688C461.732 230.517 463.118 230.932 464.709 230.932C465.754 230.932 466.703 230.75 467.555 230.386C468.408 230.023 469.129 229.5 469.72 228.818C470.311 228.136 470.732 227.318 470.982 226.364H475.004C474.777 227.909 474.214 229.301 473.317 230.54C472.43 231.767 471.254 232.744 469.788 233.472C468.334 234.188 466.641 234.545 464.709 234.545ZM484.908 218.25V234H480.885V199.091H484.908V211.909H485.249C485.862 210.557 486.783 209.483 488.01 208.688C489.249 207.881 490.896 207.477 492.953 207.477C494.737 207.477 496.3 207.835 497.641 208.551C498.982 209.256 500.021 210.341 500.76 211.807C501.51 213.261 501.885 215.114 501.885 217.364V234H497.862V217.636C497.862 215.557 497.322 213.949 496.243 212.812C495.175 211.665 493.692 211.091 491.794 211.091C490.476 211.091 489.294 211.369 488.249 211.926C487.214 212.483 486.396 213.295 485.794 214.364C485.203 215.432 484.908 216.727 484.908 218.25ZM530.517 205.841H534.267C534.267 208.432 533.699 210.489 532.562 212.011C531.438 213.534 529.46 214.295 526.631 214.295V211.432C527.767 211.432 528.608 211.199 529.153 210.733C529.71 210.267 530.074 209.614 530.244 208.773C530.426 207.932 530.517 206.955 530.517 205.841ZM519.881 234.545C517.517 234.545 515.443 233.983 513.659 232.858C511.886 231.733 510.5 230.159 509.5 228.136C508.511 226.114 508.017 223.75 508.017 221.045C508.017 218.318 508.511 215.937 509.5 213.903C510.5 211.869 511.886 210.29 513.659 209.165C515.443 208.04 517.517 207.477 519.881 207.477C522.244 207.477 524.313 208.04 526.085 209.165C527.869 210.29 529.256 211.869 530.244 213.903C531.244 215.937 531.744 218.318 531.744 221.045C531.744 223.75 531.244 226.114 530.244 228.136C529.256 230.159 527.869 231.733 526.085 232.858C524.313 233.983 522.244 234.545 519.881 234.545ZM519.881 230.932C521.676 230.932 523.153 230.472 524.312 229.551C525.472 228.631 526.33 227.42 526.886 225.92C527.443 224.42 527.722 222.795 527.722 221.045C527.722 219.295 527.443 217.665 526.886 216.153C526.33 214.642 525.472 213.42 524.312 212.489C523.153 211.557 521.676 211.091 519.881 211.091C518.085 211.091 516.608 211.557 515.449 212.489C514.29 213.42 513.432 214.642 512.875 216.153C512.318 217.665 512.04 219.295 512.04 221.045C512.04 222.795 512.318 224.42 512.875 225.92C513.432 227.42 514.29 228.631 515.449 229.551C516.608 230.472 518.085 230.932 519.881 230.932ZM537.932 234V207.818H541.955V234H537.932ZM539.977 203.455C539.193 203.455 538.517 203.188 537.949 202.653C537.392 202.119 537.114 201.477 537.114 200.727C537.114 199.977 537.392 199.335 537.949 198.801C538.517 198.267 539.193 198 539.977 198C540.761 198 541.432 198.267 541.989 198.801C542.557 199.335 542.841 199.977 542.841 200.727C542.841 201.477 542.557 202.119 541.989 202.653C541.432 203.188 540.761 203.455 539.977 203.455Z" fill="black"/>
<path d="M422.909 101.091V136H418.818L399.795 108.591H399.455V136H395.227V101.091H399.318L418.409 128.568H418.75V101.091H422.909ZM441.391 146.364C439.447 146.364 437.777 146.114 436.379 145.614C434.982 145.125 433.817 144.477 432.885 143.67C431.964 142.875 431.232 142.023 430.686 141.114L433.891 138.864C434.254 139.341 434.714 139.886 435.271 140.5C435.828 141.125 436.589 141.665 437.555 142.119C438.533 142.585 439.811 142.818 441.391 142.818C443.504 142.818 445.249 142.307 446.624 141.284C447.999 140.261 448.686 138.659 448.686 136.477V131.159H448.345C448.05 131.636 447.629 132.227 447.084 132.932C446.55 133.625 445.777 134.244 444.766 134.79C443.766 135.324 442.413 135.591 440.709 135.591C438.595 135.591 436.697 135.091 435.016 134.091C433.345 133.091 432.021 131.636 431.044 129.727C430.078 127.818 429.595 125.5 429.595 122.773C429.595 120.091 430.067 117.756 431.01 115.767C431.953 113.767 433.266 112.222 434.947 111.131C436.629 110.028 438.572 109.477 440.777 109.477C442.482 109.477 443.834 109.761 444.834 110.33C445.845 110.886 446.618 111.523 447.152 112.239C447.697 112.943 448.118 113.523 448.413 113.977H448.822V109.818H452.709V136.75C452.709 139 452.197 140.83 451.175 142.239C450.163 143.659 448.8 144.699 447.084 145.358C445.379 146.028 443.482 146.364 441.391 146.364ZM441.254 131.977C442.868 131.977 444.232 131.608 445.345 130.869C446.459 130.131 447.305 129.068 447.885 127.682C448.464 126.295 448.754 124.636 448.754 122.705C448.754 120.818 448.47 119.153 447.902 117.71C447.334 116.267 446.493 115.136 445.379 114.318C444.266 113.5 442.891 113.091 441.254 113.091C439.55 113.091 438.129 113.523 436.993 114.386C435.868 115.25 435.021 116.409 434.453 117.864C433.896 119.318 433.618 120.932 433.618 122.705C433.618 124.523 433.902 126.131 434.47 127.528C435.05 128.915 435.902 130.006 437.027 130.801C438.163 131.585 439.572 131.977 441.254 131.977ZM476.572 125.295V109.818H480.595V136H476.572V131.568H476.3C475.686 132.898 474.732 134.028 473.436 134.96C472.141 135.881 470.504 136.341 468.527 136.341C466.891 136.341 465.436 135.983 464.163 135.267C462.891 134.54 461.891 133.449 461.163 131.994C460.436 130.528 460.072 128.682 460.072 126.455V109.818H464.095V126.182C464.095 128.091 464.629 129.614 465.697 130.75C466.777 131.886 468.152 132.455 469.822 132.455C470.822 132.455 471.839 132.199 472.874 131.688C473.919 131.176 474.794 130.392 475.499 129.335C476.214 128.278 476.572 126.932 476.572 125.295ZM472.141 106.273H468.8V102.591C469.993 102.523 470.834 102.358 471.322 102.097C471.822 101.835 472.072 101.432 472.072 100.886C472.072 100.273 471.714 99.8239 470.999 99.5398C470.283 99.2557 469.413 99.1136 468.391 99.1136L468.527 96.5227C470.879 96.5227 472.658 96.9318 473.862 97.75C475.078 98.5682 475.686 99.6591 475.686 101.023C475.686 102.182 475.317 103.028 474.578 103.562C473.839 104.097 473.027 104.432 472.141 104.568V106.273ZM505.213 126.455L505.145 121.477H505.963L517.418 109.818H522.395L510.19 122.159H509.849L505.213 126.455ZM501.463 136V101.091H505.486V136H501.463ZM518.099 136L507.872 123.045L510.736 120.25L523.213 136H518.099ZM530.163 145.818C529.482 145.818 528.874 145.761 528.339 145.648C527.805 145.545 527.436 145.443 527.232 145.341L528.254 141.795C529.232 142.045 530.095 142.136 530.845 142.068C531.595 142 532.26 141.665 532.839 141.062C533.43 140.472 533.97 139.511 534.459 138.182L535.209 136.136L525.527 109.818H529.891L537.118 130.682H537.391L544.618 109.818H548.982L537.868 139.818C537.368 141.17 536.749 142.29 536.01 143.176C535.271 144.074 534.413 144.739 533.436 145.17C532.47 145.602 531.379 145.818 530.163 145.818ZM532.004 106.682L528.868 106.545C528.868 104.807 529.362 103.386 530.351 102.284C531.351 101.17 532.584 100.614 534.05 100.614C534.697 100.614 535.271 100.727 535.771 100.955C536.271 101.17 536.749 101.42 537.203 101.705C537.658 101.989 538.124 102.244 538.601 102.472C539.089 102.687 539.641 102.795 540.254 102.795C540.902 102.795 541.447 102.545 541.891 102.045C542.345 101.534 542.572 100.92 542.572 100.205L545.641 100.477C545.641 102.25 545.141 103.659 544.141 104.705C543.152 105.75 541.925 106.273 540.459 106.273C539.675 106.273 539.027 106.165 538.516 105.949C538.004 105.722 537.55 105.466 537.152 105.182C536.754 104.898 536.334 104.648 535.891 104.432C535.447 104.205 534.902 104.091 534.254 104.091C533.607 104.091 533.067 104.347 532.635 104.858C532.214 105.358 532.004 105.966 532.004 106.682Z" fill="black"/>
<path d="M310.2 22.4802C301.207 13.4878 278.387 16.0336 267.029 16.5744C249.567 17.406 227.661 22.6703 215.125 35.2067C212.004 38.3281 211.021 40.092 211.382 44.606C211.642 47.85 222.388 46.6272 224.857 46.3528C237.828 44.9116 244.141 27.8792 231.927 20.8998C200.386 2.87639 168.938 28.3473 158.646 58.0812C154.35 70.4903 152.99 81.0275 152.99 94.3476" stroke="#FF0000" stroke-width="3" stroke-linecap="round"/>
<path d="M138.017 85.3644C145.554 86.3064 141.66 106.326 150.744 106.326C164.599 106.326 171.481 95.7686 175.448 83.8672" stroke="#FF0000" stroke-width="3" stroke-linecap="round"/>
</svg>
