<svg width="500" height="250" viewBox="0 0 500 250" fill="none" xmlns="http://www.w3.org/2000/svg">
<rect width="500" height="250" rx="12" fill="#334155"/>
<path d="M42 25.5H80C83.0376 25.5 85.5 27.9624 85.5 31V74.5H36.5V31C36.5 27.9624 38.9624 25.5 42 25.5Z" fill="#15353E" stroke="#E76F5F"/>
<path d="M49.5057 57V55.7216L54.3068 50.4659C54.8703 49.8504 55.3343 49.3153 55.6989 48.8608C56.0634 48.4015 56.3333 47.9706 56.5085 47.5682C56.6884 47.161 56.7784 46.7348 56.7784 46.2898C56.7784 45.7784 56.6553 45.3357 56.4091 44.9616C56.1676 44.5876 55.8362 44.2988 55.4148 44.0952C54.9934 43.8916 54.5199 43.7898 53.9943 43.7898C53.4356 43.7898 52.9479 43.9058 52.5312 44.1378C52.1193 44.3651 51.7997 44.6847 51.5724 45.0966C51.3499 45.5085 51.2386 45.9915 51.2386 46.5455H49.5625C49.5625 45.6932 49.759 44.9451 50.152 44.3011C50.545 43.6572 51.08 43.1553 51.7571 42.7955C52.4389 42.4356 53.2036 42.2557 54.0511 42.2557C54.9034 42.2557 55.6586 42.4356 56.3168 42.7955C56.9749 43.1553 57.491 43.6406 57.8651 44.2514C58.2391 44.8622 58.4261 45.5417 58.4261 46.2898C58.4261 46.8248 58.3291 47.348 58.1349 47.8594C57.9455 48.366 57.6141 48.9318 57.1406 49.5568C56.6719 50.1771 56.0208 50.9347 55.1875 51.8295L51.9205 55.3239V55.4375H58.6818V57H49.5057ZM66.3594 57.1989C65.2893 57.1989 64.3778 56.9077 63.625 56.3253C62.8722 55.7382 62.2969 54.8883 61.8991 53.7756C61.5014 52.6581 61.3026 51.3087 61.3026 49.7273C61.3026 48.1553 61.5014 46.813 61.8991 45.7003C62.3016 44.5829 62.8793 43.7306 63.6321 43.1435C64.3897 42.5516 65.2988 42.2557 66.3594 42.2557C67.42 42.2557 68.3267 42.5516 69.0795 43.1435C69.8371 43.7306 70.4148 44.5829 70.8125 45.7003C71.215 46.813 71.4162 48.1553 71.4162 49.7273C71.4162 51.3087 71.2173 52.6581 70.8196 53.7756C70.4219 54.8883 69.8466 55.7382 69.0938 56.3253C68.3409 56.9077 67.4295 57.1989 66.3594 57.1989ZM66.3594 55.6364C67.42 55.6364 68.2438 55.125 68.831 54.1023C69.4181 53.0795 69.7116 51.6212 69.7116 49.7273C69.7116 48.4678 69.5767 47.3954 69.3068 46.5099C69.0417 45.6245 68.6581 44.9498 68.1562 44.4858C67.6591 44.0218 67.0601 43.7898 66.3594 43.7898C65.3082 43.7898 64.4867 44.3082 63.8949 45.3452C63.303 46.3774 63.0071 47.8381 63.0071 49.7273C63.0071 50.9867 63.1397 52.0568 63.4048 52.9375C63.67 53.8182 64.0511 54.4882 64.5483 54.9474C65.0502 55.4067 65.6539 55.6364 66.3594 55.6364Z" fill="white"/>
<rect x="36.5" y="75.5" width="49" height="49" fill="#15353E" stroke="#E76F5F"/>
<path d="M60.0511 107.199C59.2178 107.199 58.4673 107.033 57.7997 106.702C57.1321 106.37 56.5971 105.916 56.1946 105.338C55.7921 104.76 55.572 104.102 55.5341 103.364H57.2386C57.3049 104.022 57.6032 104.566 58.1335 104.997C58.6686 105.423 59.3078 105.636 60.0511 105.636C60.6477 105.636 61.178 105.497 61.642 105.217C62.1108 104.938 62.4777 104.554 62.7429 104.067C63.0128 103.574 63.1477 103.018 63.1477 102.398C63.1477 101.763 63.008 101.197 62.7287 100.7C62.4541 100.198 62.0753 99.803 61.5923 99.5142C61.1094 99.2254 60.5578 99.0786 59.9375 99.0739C59.4924 99.0691 59.0355 99.1378 58.5668 99.2798C58.098 99.4171 57.7121 99.5947 57.4091 99.8125L55.7614 99.6136L56.642 92.4545H64.1989V94.017H58.1193L57.608 98.3068H57.6932C57.9915 98.0701 58.3655 97.8736 58.8153 97.7173C59.2652 97.5611 59.7339 97.483 60.2216 97.483C61.1117 97.483 61.9048 97.696 62.6009 98.1222C63.3016 98.5436 63.8509 99.1212 64.2486 99.8551C64.651 100.589 64.8523 101.427 64.8523 102.369C64.8523 103.297 64.6439 104.126 64.2273 104.855C63.8153 105.58 63.2472 106.152 62.5227 106.574C61.7983 106.991 60.9744 107.199 60.0511 107.199Z" fill="white"/>
<rect x="36.5" y="125.5" width="49" height="49" fill="#15353E" stroke="#E76F5F"/>
<path d="M49.5057 157V155.722L54.3068 150.466C54.8703 149.85 55.3343 149.315 55.6989 148.861C56.0634 148.402 56.3333 147.971 56.5085 147.568C56.6884 147.161 56.7784 146.735 56.7784 146.29C56.7784 145.778 56.6553 145.336 56.4091 144.962C56.1676 144.588 55.8362 144.299 55.4148 144.095C54.9934 143.892 54.5199 143.79 53.9943 143.79C53.4356 143.79 52.9479 143.906 52.5312 144.138C52.1193 144.365 51.7997 144.685 51.5724 145.097C51.3499 145.509 51.2386 145.991 51.2386 146.545H49.5625C49.5625 145.693 49.759 144.945 50.152 144.301C50.545 143.657 51.08 143.155 51.7571 142.795C52.4389 142.436 53.2036 142.256 54.0511 142.256C54.9034 142.256 55.6586 142.436 56.3168 142.795C56.9749 143.155 57.491 143.641 57.8651 144.251C58.2391 144.862 58.4261 145.542 58.4261 146.29C58.4261 146.825 58.3291 147.348 58.1349 147.859C57.9455 148.366 57.6141 148.932 57.1406 149.557C56.6719 150.177 56.0208 150.935 55.1875 151.83L51.9205 155.324V155.438H58.6818V157H49.5057ZM60.9616 154.017V152.568L67.3537 142.455H68.4048V144.699H67.6946L62.8651 152.341V152.455H71.473V154.017H60.9616ZM67.8082 157V153.577V152.902V142.455H69.4844V157H67.8082Z" fill="white"/>
<path d="M36.5 175.5H85.5V219C85.5 222.038 83.0376 224.5 80 224.5H42C38.9624 224.5 36.5 222.038 36.5 219V175.5Z" fill="#15353E" stroke="#E76F5F"/>
<path d="M54.1364 192.256C54.733 192.26 55.3295 192.374 55.9261 192.597C56.5227 192.819 57.0672 193.188 57.5597 193.705C58.0521 194.216 58.4474 194.914 58.7457 195.8C59.044 196.685 59.1932 197.795 59.1932 199.131C59.1932 200.423 59.0701 201.571 58.8239 202.575C58.5824 203.574 58.232 204.417 57.7727 205.104C57.3182 205.79 56.7642 206.311 56.1108 206.666C55.4621 207.021 54.7282 207.199 53.9091 207.199C53.0947 207.199 52.3679 207.038 51.7287 206.716C51.0942 206.389 50.5734 205.937 50.1662 205.359C49.7637 204.777 49.5057 204.102 49.392 203.335H51.125C51.2812 204.003 51.5914 204.554 52.0554 204.99C52.5241 205.421 53.142 205.636 53.9091 205.636C55.0313 205.636 55.9167 205.146 56.5653 204.166C57.2188 203.186 57.5455 201.801 57.5455 200.011H57.4318C57.1667 200.409 56.8518 200.752 56.4872 201.041C56.1226 201.33 55.7178 201.553 55.2727 201.709C54.8277 201.865 54.3542 201.943 53.8523 201.943C53.0189 201.943 52.2543 201.737 51.5582 201.325C50.867 200.909 50.313 200.338 49.8963 199.614C49.4844 198.884 49.2784 198.051 49.2784 197.114C49.2784 196.223 49.4773 195.409 49.875 194.67C50.2775 193.927 50.8409 193.335 51.5653 192.895C52.2945 192.455 53.1515 192.241 54.1364 192.256ZM54.1364 193.818C53.5398 193.818 53.0024 193.967 52.5241 194.266C52.0507 194.559 51.6742 194.957 51.3949 195.459C51.1203 195.956 50.983 196.508 50.983 197.114C50.983 197.72 51.1155 198.271 51.3807 198.768C51.6506 199.261 52.0175 199.654 52.4815 199.947C52.9503 200.236 53.483 200.381 54.0795 200.381C54.5294 200.381 54.9484 200.293 55.3366 200.118C55.7249 199.938 56.0634 199.694 56.3523 199.386C56.6458 199.074 56.8755 198.721 57.0412 198.328C57.2069 197.93 57.2898 197.516 57.2898 197.085C57.2898 196.517 57.1525 195.984 56.8778 195.487C56.608 194.99 56.2339 194.588 55.7557 194.28C55.2822 193.972 54.7424 193.818 54.1364 193.818ZM66.6168 192.256C67.2134 192.26 67.81 192.374 68.4066 192.597C69.0032 192.819 69.5477 193.188 70.0401 193.705C70.5326 194.216 70.9279 194.914 71.2262 195.8C71.5245 196.685 71.6737 197.795 71.6737 199.131C71.6737 200.423 71.5505 201.571 71.3043 202.575C71.0629 203.574 70.7125 204.417 70.2532 205.104C69.7987 205.79 69.2447 206.311 68.5913 206.666C67.9426 207.021 67.2087 207.199 66.3896 207.199C65.5752 207.199 64.8484 207.038 64.2092 206.716C63.5747 206.389 63.0539 205.937 62.6467 205.359C62.2442 204.777 61.9862 204.102 61.8725 203.335H63.6055C63.7617 204.003 64.0719 204.554 64.5359 204.99C65.0046 205.421 65.6225 205.636 66.3896 205.636C67.5117 205.636 68.3971 205.146 69.0458 204.166C69.6992 203.186 70.0259 201.801 70.0259 200.011H69.9123C69.6471 200.409 69.3323 200.752 68.9677 201.041C68.6031 201.33 68.1983 201.553 67.7532 201.709C67.3081 201.865 66.8346 201.943 66.3327 201.943C65.4994 201.943 64.7347 201.737 64.0387 201.325C63.3474 200.909 62.7934 200.338 62.3768 199.614C61.9648 198.884 61.7589 198.051 61.7589 197.114C61.7589 196.223 61.9577 195.409 62.3555 194.67C62.7579 193.927 63.3214 193.335 64.0458 192.895C64.775 192.455 65.632 192.241 66.6168 192.256ZM66.6168 193.818C66.0202 193.818 65.4828 193.967 65.0046 194.266C64.5311 194.559 64.1547 194.957 63.8754 195.459C63.6007 195.956 63.4634 196.508 63.4634 197.114C63.4634 197.72 63.596 198.271 63.8612 198.768C64.131 199.261 64.498 199.654 64.962 199.947C65.4308 200.236 65.9634 200.381 66.56 200.381C67.0098 200.381 67.4289 200.293 67.8171 200.118C68.2054 199.938 68.5439 199.694 68.8327 199.386C69.1263 199.074 69.3559 198.721 69.5217 198.328C69.6874 197.93 69.7702 197.516 69.7702 197.085C69.7702 196.517 69.6329 195.984 69.3583 195.487C69.0884 194.99 68.7144 194.588 68.2362 194.28C67.7627 193.972 67.2229 193.818 66.6168 193.818Z" fill="white"/>
<path d="M420 25.5H458C461.038 25.5 463.5 27.9624 463.5 31V74.5H414.5V31C414.5 27.9624 416.962 25.5 420 25.5Z" fill="#15353E" stroke="#E76F5F"/>
<path d="M427.165 54.017V52.5682L433.557 42.4545H434.608V44.6989H433.898L429.068 52.3409V52.4545H437.676V54.017H427.165ZM434.011 57V53.5767V52.902V42.4545H435.688V57H434.011ZM445.082 57.1989C444.012 57.1989 443.1 56.9077 442.348 56.3253C441.595 55.7382 441.02 54.8883 440.622 53.7756C440.224 52.6581 440.025 51.3087 440.025 49.7273C440.025 48.1553 440.224 46.813 440.622 45.7003C441.024 44.5829 441.602 43.7306 442.355 43.1435C443.112 42.5516 444.021 42.2557 445.082 42.2557C446.143 42.2557 447.049 42.5516 447.802 43.1435C448.56 43.7306 449.137 44.5829 449.535 45.7003C449.938 46.813 450.139 48.1553 450.139 49.7273C450.139 51.3087 449.94 52.6581 449.542 53.7756C449.145 54.8883 448.569 55.7382 447.816 56.3253C447.064 56.9077 446.152 57.1989 445.082 57.1989ZM445.082 55.6364C446.143 55.6364 446.967 55.125 447.554 54.1023C448.141 53.0795 448.434 51.6212 448.434 49.7273C448.434 48.4678 448.299 47.3954 448.029 46.5099C447.764 45.6245 447.381 44.9498 446.879 44.4858C446.382 44.0218 445.783 43.7898 445.082 43.7898C444.031 43.7898 443.209 44.3082 442.618 45.3452C442.026 46.3774 441.73 47.8381 441.73 49.7273C441.73 50.9867 441.862 52.0568 442.127 52.9375C442.393 53.8182 442.774 54.4882 443.271 54.9474C443.773 55.4067 444.377 55.6364 445.082 55.6364Z" fill="white"/>
<rect x="414.5" y="75.5" width="49" height="49" fill="#15353E" stroke="#E76F5F"/>
<path d="M434.619 92.4545V107H432.858V94.3011H432.773L429.222 96.6591V94.8693L432.858 92.4545H434.619ZM443.547 107.199C442.477 107.199 441.565 106.908 440.812 106.325C440.06 105.738 439.484 104.888 439.087 103.776C438.689 102.658 438.49 101.309 438.49 99.7273C438.49 98.1553 438.689 96.813 439.087 95.7003C439.489 94.5829 440.067 93.7306 440.82 93.1435C441.577 92.5516 442.486 92.2557 443.547 92.2557C444.607 92.2557 445.514 92.5516 446.267 93.1435C447.025 93.7306 447.602 94.5829 448 95.7003C448.402 96.813 448.604 98.1553 448.604 99.7273C448.604 101.309 448.405 102.658 448.007 103.776C447.609 104.888 447.034 105.738 446.281 106.325C445.528 106.908 444.617 107.199 443.547 107.199ZM443.547 105.636C444.607 105.636 445.431 105.125 446.018 104.102C446.606 103.08 446.899 101.621 446.899 99.7273C446.899 98.4678 446.764 97.3954 446.494 96.5099C446.229 95.6245 445.846 94.9498 445.344 94.4858C444.847 94.0218 444.248 93.7898 443.547 93.7898C442.496 93.7898 441.674 94.3082 441.082 95.3452C440.491 96.3774 440.195 97.8381 440.195 99.7273C440.195 100.987 440.327 102.057 440.592 102.938C440.857 103.818 441.239 104.488 441.736 104.947C442.238 105.407 442.841 105.636 443.547 105.636Z" fill="white"/>
<rect x="414.5" y="125.5" width="49" height="49" fill="#15353E" stroke="#E76F5F"/>
<path d="M427.165 154.017V152.568L433.557 142.455H434.608V144.699H433.898L429.068 152.341V152.455H437.676V154.017H427.165ZM434.011 157V153.577V152.902V142.455H435.688V157H434.011ZM444.997 157.199C444.021 157.199 443.16 157.026 442.412 156.68C441.668 156.33 441.088 155.849 440.672 155.239C440.255 154.623 440.049 153.922 440.054 153.136C440.049 152.521 440.17 151.953 440.416 151.432C440.662 150.906 440.998 150.468 441.424 150.118C441.855 149.763 442.336 149.538 442.866 149.443V149.358C442.17 149.178 441.616 148.787 441.204 148.186C440.792 147.58 440.589 146.891 440.593 146.119C440.589 145.381 440.776 144.72 441.154 144.138C441.533 143.555 442.054 143.096 442.717 142.76C443.385 142.424 444.145 142.256 444.997 142.256C445.84 142.256 446.592 142.424 447.255 142.76C447.918 143.096 448.439 143.555 448.818 144.138C449.201 144.72 449.395 145.381 449.4 146.119C449.395 146.891 449.185 147.58 448.768 148.186C448.356 148.787 447.809 149.178 447.127 149.358V149.443C447.653 149.538 448.127 149.763 448.548 150.118C448.969 150.468 449.306 150.906 449.556 151.432C449.807 151.953 449.935 152.521 449.94 153.136C449.935 153.922 449.722 154.623 449.301 155.239C448.884 155.849 448.304 156.33 447.561 156.68C446.822 157.026 445.967 157.199 444.997 157.199ZM444.997 155.636C445.655 155.636 446.223 155.53 446.701 155.317C447.18 155.104 447.549 154.803 447.809 154.415C448.07 154.027 448.202 153.572 448.207 153.051C448.202 152.502 448.06 152.017 447.781 151.595C447.502 151.174 447.12 150.842 446.637 150.601C446.159 150.359 445.612 150.239 444.997 150.239C444.377 150.239 443.823 150.359 443.335 150.601C442.852 150.842 442.471 151.174 442.191 151.595C441.917 152.017 441.782 152.502 441.787 153.051C441.782 153.572 441.907 154.027 442.163 154.415C442.423 154.803 442.795 155.104 443.278 155.317C443.761 155.53 444.334 155.636 444.997 155.636ZM444.997 148.733C445.518 148.733 445.979 148.629 446.382 148.42C446.789 148.212 447.109 147.921 447.341 147.547C447.573 147.173 447.691 146.735 447.696 146.233C447.691 145.741 447.575 145.312 447.348 144.947C447.12 144.578 446.806 144.294 446.403 144.095C446.001 143.892 445.532 143.79 444.997 143.79C444.452 143.79 443.976 143.892 443.569 144.095C443.162 144.294 442.847 144.578 442.625 144.947C442.402 145.312 442.293 145.741 442.298 146.233C442.293 146.735 442.404 147.173 442.632 147.547C442.864 147.921 443.183 148.212 443.591 148.42C443.998 148.629 444.467 148.733 444.997 148.733Z" fill="white"/>
<path d="M414.5 175.5H463.5V219C463.5 222.038 461.038 224.5 458 224.5H420C416.962 224.5 414.5 222.038 414.5 219V175.5Z" fill="#15353E" stroke="#E76F5F"/>
<path d="M427.619 192.455V207H425.858V194.301H425.773L422.222 196.659V194.869L425.858 192.455H427.619ZM436.433 192.256C437.03 192.26 437.626 192.374 438.223 192.597C438.82 192.819 439.364 193.188 439.857 193.705C440.349 194.216 440.744 194.914 441.043 195.8C441.341 196.685 441.49 197.795 441.49 199.131C441.49 200.423 441.367 201.571 441.121 202.575C440.879 203.574 440.529 204.417 440.07 205.104C439.615 205.79 439.061 206.311 438.408 206.666C437.759 207.021 437.025 207.199 436.206 207.199C435.392 207.199 434.665 207.038 434.026 206.716C433.391 206.389 432.87 205.937 432.463 205.359C432.061 204.777 431.803 204.102 431.689 203.335H433.422C433.578 204.003 433.888 204.554 434.352 204.99C434.821 205.421 435.439 205.636 436.206 205.636C437.328 205.636 438.214 205.146 438.862 204.166C439.516 203.186 439.842 201.801 439.842 200.011H439.729C439.464 200.409 439.149 200.752 438.784 201.041C438.42 201.33 438.015 201.553 437.57 201.709C437.125 201.865 436.651 201.943 436.149 201.943C435.316 201.943 434.551 201.737 433.855 201.325C433.164 200.909 432.61 200.338 432.193 199.614C431.781 198.884 431.575 198.051 431.575 197.114C431.575 196.223 431.774 195.409 432.172 194.67C432.574 193.927 433.138 193.335 433.862 192.895C434.591 192.455 435.448 192.241 436.433 192.256ZM436.433 193.818C435.837 193.818 435.299 193.967 434.821 194.266C434.348 194.559 433.971 194.957 433.692 195.459C433.417 195.956 433.28 196.508 433.28 197.114C433.28 197.72 433.412 198.271 433.678 198.768C433.947 199.261 434.314 199.654 434.778 199.947C435.247 200.236 435.78 200.381 436.376 200.381C436.826 200.381 437.245 200.293 437.634 200.118C438.022 199.938 438.36 199.694 438.649 199.386C438.943 199.074 439.172 198.721 439.338 198.328C439.504 197.93 439.587 197.516 439.587 197.085C439.587 196.517 439.449 195.984 439.175 195.487C438.905 194.99 438.531 194.588 438.053 194.28C437.579 193.972 437.039 193.818 436.433 193.818ZM448.942 207.199C447.967 207.199 447.105 207.026 446.357 206.68C445.614 206.33 445.033 205.849 444.617 205.239C444.2 204.623 443.994 203.922 443.999 203.136C443.994 202.521 444.115 201.953 444.361 201.432C444.607 200.906 444.944 200.468 445.37 200.118C445.801 199.763 446.281 199.538 446.811 199.443V199.358C446.115 199.178 445.561 198.787 445.15 198.186C444.738 197.58 444.534 196.891 444.539 196.119C444.534 195.381 444.721 194.72 445.1 194.138C445.479 193.555 445.999 193.096 446.662 192.76C447.33 192.424 448.09 192.256 448.942 192.256C449.785 192.256 450.538 192.424 451.201 192.76C451.864 193.096 452.384 193.555 452.763 194.138C453.147 194.72 453.341 195.381 453.346 196.119C453.341 196.891 453.13 197.58 452.713 198.186C452.301 198.787 451.755 199.178 451.073 199.358V199.443C451.598 199.538 452.072 199.763 452.493 200.118C452.915 200.468 453.251 200.906 453.502 201.432C453.753 201.953 453.881 202.521 453.885 203.136C453.881 203.922 453.667 204.623 453.246 205.239C452.829 205.849 452.249 206.33 451.506 206.68C450.767 207.026 449.913 207.199 448.942 207.199ZM448.942 205.636C449.6 205.636 450.168 205.53 450.647 205.317C451.125 205.104 451.494 204.803 451.755 204.415C452.015 204.027 452.148 203.572 452.152 203.051C452.148 202.502 452.006 202.017 451.726 201.595C451.447 201.174 451.066 200.842 450.583 200.601C450.105 200.359 449.558 200.239 448.942 200.239C448.322 200.239 447.768 200.359 447.28 200.601C446.797 200.842 446.416 201.174 446.137 201.595C445.862 202.017 445.727 202.502 445.732 203.051C445.727 203.572 445.853 204.027 446.108 204.415C446.369 204.803 446.74 205.104 447.223 205.317C447.706 205.53 448.279 205.636 448.942 205.636ZM448.942 198.733C449.463 198.733 449.925 198.629 450.327 198.42C450.734 198.212 451.054 197.921 451.286 197.547C451.518 197.173 451.636 196.735 451.641 196.233C451.636 195.741 451.52 195.312 451.293 194.947C451.066 194.578 450.751 194.294 450.348 194.095C449.946 193.892 449.477 193.79 448.942 193.79C448.398 193.79 447.922 193.892 447.515 194.095C447.107 194.294 446.792 194.578 446.57 194.947C446.347 195.312 446.239 195.741 446.243 196.233C446.239 196.735 446.35 197.173 446.577 197.547C446.809 197.921 447.129 198.212 447.536 198.42C447.943 198.629 448.412 198.733 448.942 198.733Z" fill="white"/>
<path d="M101.024 115.18C100.568 115.18 100.196 115.03 99.908 114.73C99.62 114.418 99.476 114.058 99.476 113.65C99.476 113.218 99.62 112.852 99.908 112.552C100.196 112.252 100.568 112.102 101.024 112.102C101.456 112.102 101.816 112.252 102.104 112.552C102.404 112.852 102.554 113.218 102.554 113.65C102.554 114.07 102.404 114.43 102.104 114.73C101.816 115.03 101.456 115.18 101.024 115.18ZM105.073 115V105.46H107.809V106.756H107.899C108.103 106.408 108.409 106.078 108.817 105.766C109.225 105.442 109.783 105.28 110.491 105.28C111.211 105.28 111.787 105.448 112.219 105.784C112.663 106.12 112.987 106.534 113.191 107.026H113.227C113.383 106.75 113.587 106.48 113.839 106.216C114.103 105.94 114.427 105.718 114.811 105.55C115.207 105.37 115.669 105.28 116.197 105.28C116.857 105.28 117.403 105.43 117.835 105.73C118.267 106.03 118.585 106.426 118.789 106.918C119.005 107.398 119.113 107.914 119.113 108.466V115H116.377V109.15C116.377 108.682 116.257 108.298 116.017 107.998C115.789 107.686 115.441 107.53 114.973 107.53C114.613 107.53 114.319 107.62 114.091 107.8C113.875 107.98 113.713 108.214 113.605 108.502C113.509 108.778 113.461 109.066 113.461 109.366V115H110.725V109.15C110.725 108.682 110.605 108.298 110.365 107.998C110.137 107.686 109.789 107.53 109.321 107.53C108.961 107.53 108.667 107.62 108.439 107.8C108.223 107.98 108.061 108.214 107.953 108.502C107.857 108.778 107.809 109.066 107.809 109.366V115H105.073ZM125.173 105.28C125.785 105.28 126.289 105.382 126.685 105.586C127.081 105.778 127.381 105.988 127.585 106.216C127.801 106.444 127.933 106.6 127.981 106.684H128.125V105.46H130.861V115H128.125V113.776H127.981C127.933 113.86 127.801 114.016 127.585 114.244C127.381 114.472 127.081 114.688 126.685 114.892C126.289 115.084 125.785 115.18 125.173 115.18C124.465 115.18 123.847 115.042 123.319 114.766C122.803 114.478 122.371 114.1 122.023 113.632C121.675 113.152 121.411 112.618 121.231 112.03C121.063 111.442 120.979 110.842 120.979 110.23C120.979 109.618 121.063 109.018 121.231 108.43C121.411 107.842 121.675 107.314 122.023 106.846C122.371 106.366 122.803 105.988 123.319 105.712C123.847 105.424 124.465 105.28 125.173 105.28ZM125.965 107.494C125.473 107.494 125.059 107.632 124.723 107.908C124.399 108.172 124.153 108.514 123.985 108.934C123.829 109.354 123.751 109.786 123.751 110.23C123.751 110.674 123.829 111.106 123.985 111.526C124.153 111.946 124.399 112.294 124.723 112.57C125.059 112.834 125.473 112.966 125.965 112.966C126.457 112.966 126.865 112.834 127.189 112.57C127.525 112.294 127.771 111.946 127.927 111.526C128.095 111.106 128.179 110.674 128.179 110.23C128.179 109.786 128.095 109.354 127.927 108.934C127.771 108.514 127.525 108.172 127.189 107.908C126.865 107.632 126.457 107.494 125.965 107.494ZM133.185 118.51V105.46H135.921V106.684H136.047C136.107 106.6 136.239 106.444 136.443 106.216C136.659 105.988 136.965 105.778 137.361 105.586C137.757 105.382 138.261 105.28 138.873 105.28C139.581 105.28 140.193 105.424 140.709 105.712C141.237 105.988 141.675 106.366 142.023 106.846C142.371 107.314 142.629 107.842 142.797 108.43C142.977 109.018 143.067 109.618 143.067 110.23C143.067 110.842 142.977 111.442 142.797 112.03C142.629 112.618 142.371 113.152 142.023 113.632C141.675 114.1 141.237 114.478 140.709 114.766C140.193 115.042 139.581 115.18 138.873 115.18C138.261 115.18 137.757 115.084 137.361 114.892C136.965 114.688 136.659 114.472 136.443 114.244C136.239 114.016 136.107 113.86 136.047 113.776H135.921V118.51H133.185ZM135.867 110.23C135.867 110.674 135.945 111.106 136.101 111.526C136.269 111.946 136.515 112.294 136.839 112.57C137.175 112.834 137.589 112.966 138.081 112.966C138.573 112.966 138.981 112.834 139.305 112.57C139.641 112.294 139.887 111.946 140.043 111.526C140.211 111.106 140.295 110.674 140.295 110.23C140.295 109.786 140.211 109.354 140.043 108.934C139.887 108.514 139.641 108.172 139.305 107.908C138.981 107.632 138.573 107.494 138.081 107.494C137.589 107.494 137.175 107.632 136.839 107.908C136.515 108.172 136.269 108.514 136.101 108.934C135.945 109.354 135.867 109.786 135.867 110.23ZM151.438 119.05C150.334 118.918 149.362 118.57 148.522 118.006C147.682 117.442 146.974 116.716 146.398 115.828C145.822 114.952 145.384 113.974 145.084 112.894C144.796 111.814 144.652 110.698 144.652 109.546C144.652 108.394 144.796 107.278 145.084 106.198C145.384 105.118 145.822 104.14 146.398 103.264C146.974 102.376 147.682 101.65 148.522 101.086C149.362 100.522 150.334 100.174 151.438 100.042V102.526C150.85 102.634 150.31 102.904 149.818 103.336C149.326 103.756 148.9 104.29 148.54 104.938C148.192 105.586 147.916 106.306 147.712 107.098C147.52 107.89 147.424 108.706 147.424 109.546C147.424 110.386 147.52 111.202 147.712 111.994C147.916 112.786 148.192 113.506 148.54 114.154C148.9 114.802 149.326 115.336 149.818 115.756C150.31 116.188 150.85 116.458 151.438 116.566V119.05ZM163.742 119.05C162.638 118.918 161.666 118.57 160.826 118.006C159.986 117.442 159.278 116.716 158.702 115.828C158.126 114.952 157.688 113.974 157.388 112.894C157.1 111.814 156.956 110.698 156.956 109.546C156.956 108.394 157.1 107.278 157.388 106.198C157.688 105.118 158.126 104.14 158.702 103.264C159.278 102.376 159.986 101.65 160.826 101.086C161.666 100.522 162.638 100.174 163.742 100.042V102.526C163.154 102.634 162.614 102.904 162.122 103.336C161.63 103.756 161.204 104.29 160.844 104.938C160.496 105.586 160.22 106.306 160.016 107.098C159.824 107.89 159.728 108.706 159.728 109.546C159.728 110.386 159.824 111.202 160.016 111.994C160.22 112.786 160.496 113.506 160.844 114.154C161.204 114.802 161.63 115.336 162.122 115.756C162.614 116.188 163.154 116.458 163.742 116.566V119.05ZM167.057 104.164C166.577 104.164 166.187 104.014 165.887 103.714C165.587 103.402 165.437 103.036 165.437 102.616C165.437 102.172 165.587 101.8 165.887 101.5C166.187 101.188 166.577 101.032 167.057 101.032C167.513 101.032 167.897 101.188 168.209 101.5C168.521 101.8 168.677 102.172 168.677 102.616C168.677 103.036 168.521 103.402 168.209 103.714C167.897 104.014 167.513 104.164 167.057 104.164ZM165.689 115V105.46H168.425V115H165.689ZM175.209 115.18C174.465 115.18 173.871 115.072 173.427 114.856C172.983 114.628 172.647 114.346 172.419 114.01C172.191 113.662 172.041 113.296 171.969 112.912C171.897 112.528 171.861 112.174 171.861 111.85V107.638H170.241V105.46H171.861V103.102H174.597V105.46H176.631V107.638H174.597V111.778C174.597 112.174 174.699 112.48 174.903 112.696C175.119 112.912 175.473 113.02 175.965 113.02C176.181 113.02 176.379 113.002 176.559 112.966C176.739 112.93 176.829 112.912 176.829 112.912V115.018C176.829 115.018 176.667 115.042 176.343 115.09C176.019 115.15 175.641 115.18 175.209 115.18ZM183.267 115.18C182.427 115.18 181.701 115.042 181.089 114.766C180.477 114.478 179.973 114.1 179.577 113.632C179.181 113.152 178.881 112.618 178.677 112.03C178.485 111.442 178.389 110.836 178.389 110.212C178.389 109.612 178.479 109.024 178.659 108.448C178.851 107.86 179.139 107.326 179.523 106.846C179.919 106.366 180.417 105.988 181.017 105.712C181.629 105.424 182.349 105.28 183.177 105.28C184.053 105.28 184.827 105.472 185.499 105.856C186.183 106.24 186.717 106.81 187.101 107.566C187.485 108.31 187.677 109.216 187.677 110.284V110.95H181.143C181.179 111.526 181.377 112.024 181.737 112.444C182.109 112.864 182.619 113.074 183.267 113.074C183.639 113.074 183.939 113.02 184.167 112.912C184.407 112.792 184.593 112.66 184.725 112.516C184.857 112.36 184.947 112.222 184.995 112.102C185.043 111.982 185.067 111.922 185.067 111.922H187.587C187.587 111.922 187.557 112.036 187.497 112.264C187.449 112.48 187.341 112.75 187.173 113.074C187.005 113.398 186.759 113.722 186.435 114.046C186.123 114.37 185.709 114.64 185.193 114.856C184.677 115.072 184.035 115.18 183.267 115.18ZM181.143 109.294H185.049C185.013 108.634 184.815 108.142 184.455 107.818C184.095 107.494 183.651 107.332 183.123 107.332C182.595 107.332 182.145 107.506 181.773 107.854C181.401 108.19 181.191 108.67 181.143 109.294ZM189.536 115V105.46H192.272V106.756H192.362C192.566 106.408 192.872 106.078 193.28 105.766C193.688 105.442 194.246 105.28 194.954 105.28C195.674 105.28 196.25 105.448 196.682 105.784C197.126 106.12 197.45 106.534 197.654 107.026H197.69C197.846 106.75 198.05 106.48 198.302 106.216C198.566 105.94 198.89 105.718 199.274 105.55C199.67 105.37 200.132 105.28 200.66 105.28C201.32 105.28 201.866 105.43 202.298 105.73C202.73 106.03 203.048 106.426 203.252 106.918C203.468 107.398 203.576 107.914 203.576 108.466V115H200.84V109.15C200.84 108.682 200.72 108.298 200.48 107.998C200.252 107.686 199.904 107.53 199.436 107.53C199.076 107.53 198.782 107.62 198.554 107.8C198.338 107.98 198.176 108.214 198.068 108.502C197.972 108.778 197.924 109.066 197.924 109.366V115H195.188V109.15C195.188 108.682 195.068 108.298 194.828 107.998C194.6 107.686 194.252 107.53 193.784 107.53C193.424 107.53 193.13 107.62 192.902 107.8C192.686 107.98 192.524 108.214 192.416 108.502C192.32 108.778 192.272 109.066 192.272 109.366V115H189.536ZM206.159 117.61L207.635 115.162C207.227 115.126 206.885 114.964 206.609 114.676C206.345 114.388 206.213 114.04 206.213 113.632C206.213 113.188 206.363 112.822 206.663 112.534C206.963 112.246 207.335 112.102 207.779 112.102C208.223 112.102 208.601 112.246 208.913 112.534C209.225 112.822 209.381 113.212 209.381 113.704C209.381 113.98 209.315 114.28 209.183 114.604C209.051 114.916 208.835 115.294 208.535 115.738C208.247 116.194 207.869 116.752 207.401 117.412L207.275 117.61H206.159ZM217.664 104.164C217.184 104.164 216.794 104.014 216.494 103.714C216.194 103.402 216.044 103.036 216.044 102.616C216.044 102.172 216.194 101.8 216.494 101.5C216.794 101.188 217.184 101.032 217.664 101.032C218.12 101.032 218.504 101.188 218.816 101.5C219.128 101.8 219.284 102.172 219.284 102.616C219.284 103.036 219.128 103.402 218.816 103.714C218.504 104.014 218.12 104.164 217.664 104.164ZM216.296 115V105.46H219.032V115H216.296ZM221.37 115V105.46H224.106V106.828H224.196C224.304 106.636 224.46 106.42 224.664 106.18C224.88 105.94 225.162 105.73 225.51 105.55C225.87 105.37 226.326 105.28 226.878 105.28C227.622 105.28 228.228 105.454 228.696 105.802C229.164 106.138 229.506 106.576 229.722 107.116C229.938 107.644 230.046 108.202 230.046 108.79V115H227.31V109.258C227.31 108.802 227.184 108.4 226.932 108.052C226.692 107.704 226.302 107.53 225.762 107.53C225.354 107.53 225.03 107.626 224.79 107.818C224.55 108.01 224.376 108.256 224.268 108.556C224.16 108.856 224.106 109.174 224.106 109.51V115H221.37ZM236.091 115.18C235.383 115.18 234.765 115.042 234.237 114.766C233.721 114.478 233.289 114.1 232.941 113.632C232.593 113.152 232.329 112.618 232.149 112.03C231.981 111.442 231.897 110.842 231.897 110.23C231.897 109.618 231.981 109.018 232.149 108.43C232.329 107.842 232.593 107.314 232.941 106.846C233.289 106.366 233.721 105.988 234.237 105.712C234.765 105.424 235.383 105.28 236.091 105.28C236.703 105.28 237.207 105.382 237.603 105.586C237.999 105.778 238.299 105.988 238.503 106.216C238.719 106.444 238.851 106.6 238.899 106.684H239.043V101.32H241.779V115H239.043V113.776H238.899C238.851 113.86 238.719 114.016 238.503 114.244C238.299 114.472 237.999 114.688 237.603 114.892C237.207 115.084 236.703 115.18 236.091 115.18ZM236.883 112.966C237.375 112.966 237.783 112.834 238.107 112.57C238.443 112.294 238.689 111.946 238.845 111.526C239.013 111.106 239.097 110.674 239.097 110.23C239.097 109.786 239.013 109.354 238.845 108.934C238.689 108.514 238.443 108.172 238.107 107.908C237.783 107.632 237.375 107.494 236.883 107.494C236.391 107.494 235.977 107.632 235.641 107.908C235.317 108.172 235.071 108.514 234.903 108.934C234.747 109.354 234.669 109.786 234.669 110.23C234.669 110.674 234.747 111.106 234.903 111.526C235.071 111.946 235.317 112.294 235.641 112.57C235.977 112.834 236.391 112.966 236.883 112.966ZM248.692 115.18C247.852 115.18 247.126 115.042 246.514 114.766C245.902 114.478 245.398 114.1 245.002 113.632C244.606 113.152 244.306 112.618 244.102 112.03C243.91 111.442 243.814 110.836 243.814 110.212C243.814 109.612 243.904 109.024 244.084 108.448C244.276 107.86 244.564 107.326 244.948 106.846C245.344 106.366 245.842 105.988 246.442 105.712C247.054 105.424 247.774 105.28 248.602 105.28C249.478 105.28 250.252 105.472 250.924 105.856C251.608 106.24 252.142 106.81 252.526 107.566C252.91 108.31 253.102 109.216 253.102 110.284V110.95H246.568C246.604 111.526 246.802 112.024 247.162 112.444C247.534 112.864 248.044 113.074 248.692 113.074C249.064 113.074 249.364 113.02 249.592 112.912C249.832 112.792 250.018 112.66 250.15 112.516C250.282 112.36 250.372 112.222 250.42 112.102C250.468 111.982 250.492 111.922 250.492 111.922H253.012C253.012 111.922 252.982 112.036 252.922 112.264C252.874 112.48 252.766 112.75 252.598 113.074C252.43 113.398 252.184 113.722 251.86 114.046C251.548 114.37 251.134 114.64 250.618 114.856C250.102 115.072 249.46 115.18 248.692 115.18ZM246.568 109.294H250.474C250.438 108.634 250.24 108.142 249.88 107.818C249.52 107.494 249.076 107.332 248.548 107.332C248.02 107.332 247.57 107.506 247.198 107.854C246.826 108.19 246.616 108.67 246.568 109.294ZM254.199 115L257.097 110.248L254.199 105.46H257.043L258.933 108.61L260.859 105.46H263.703L260.697 110.248L263.685 115H260.859L258.933 111.85L257.061 115H254.199ZM265.096 100.042C266.188 100.174 267.154 100.522 267.994 101.086C268.846 101.65 269.554 102.376 270.118 103.264C270.694 104.14 271.126 105.118 271.414 106.198C271.714 107.278 271.864 108.394 271.864 109.546C271.864 110.698 271.714 111.814 271.414 112.894C271.126 113.974 270.694 114.952 270.118 115.828C269.554 116.716 268.846 117.442 267.994 118.006C267.154 118.57 266.188 118.918 265.096 119.05V116.566C265.684 116.458 266.218 116.188 266.698 115.756C267.19 115.336 267.616 114.802 267.976 114.154C268.336 113.506 268.612 112.786 268.804 111.994C268.996 111.202 269.092 110.386 269.092 109.546C269.092 108.706 268.996 107.89 268.804 107.098C268.612 106.306 268.336 105.586 267.976 104.938C267.616 104.29 267.19 103.756 266.698 103.336C266.218 102.904 265.684 102.634 265.096 102.526V100.042ZM274.674 108.592V106.36H284.034V108.592H274.674ZM274.674 112.678V110.446H284.034V112.678H274.674ZM287.453 113.092V110.824L292.115 108.88L287.453 106.972V104.704L295.103 108.106V109.69L287.453 113.092ZM302.415 118.834C301.251 118.834 300.357 118.522 299.733 117.898C299.121 117.286 298.815 116.398 298.815 115.234V111.526C298.815 110.782 298.443 110.41 297.699 110.41H296.907V108.088H297.699C298.443 108.088 298.815 107.71 298.815 106.954V103.246C298.815 102.094 299.121 101.212 299.733 100.6C300.357 99.976 301.251 99.664 302.415 99.664H304.359V102.004H302.739C301.983 102.004 301.605 102.376 301.605 103.12V106.954C301.605 107.578 301.509 108.064 301.317 108.412C301.125 108.748 300.741 109.006 300.165 109.186V109.294C300.741 109.486 301.125 109.756 301.317 110.104C301.509 110.452 301.605 110.932 301.605 111.544V115.36C301.605 116.104 301.983 116.476 302.739 116.476H304.359V118.834H302.415ZM119.786 138V128.46H122.504V129.846H122.594C122.702 129.594 122.852 129.348 123.044 129.108C123.236 128.868 123.5 128.67 123.836 128.514C124.172 128.358 124.604 128.28 125.132 128.28C125.396 128.28 125.606 128.298 125.762 128.334C125.918 128.358 125.996 128.37 125.996 128.37V131.07C125.996 131.07 125.906 131.052 125.726 131.016C125.558 130.98 125.336 130.962 125.06 130.962C124.208 130.962 123.572 131.196 123.152 131.664C122.732 132.12 122.522 132.87 122.522 133.914V138H119.786ZM131.851 138.18C131.011 138.18 130.285 138.042 129.673 137.766C129.061 137.478 128.557 137.1 128.161 136.632C127.765 136.152 127.465 135.618 127.261 135.03C127.069 134.442 126.973 133.836 126.973 133.212C126.973 132.612 127.063 132.024 127.243 131.448C127.435 130.86 127.723 130.326 128.107 129.846C128.503 129.366 129.001 128.988 129.601 128.712C130.213 128.424 130.933 128.28 131.761 128.28C132.637 128.28 133.411 128.472 134.083 128.856C134.767 129.24 135.301 129.81 135.685 130.566C136.069 131.31 136.261 132.216 136.261 133.284V133.95H129.727C129.763 134.526 129.961 135.024 130.321 135.444C130.693 135.864 131.203 136.074 131.851 136.074C132.223 136.074 132.523 136.02 132.751 135.912C132.991 135.792 133.177 135.66 133.309 135.516C133.441 135.36 133.531 135.222 133.579 135.102C133.627 134.982 133.651 134.922 133.651 134.922H136.171C136.171 134.922 136.141 135.036 136.081 135.264C136.033 135.48 135.925 135.75 135.757 136.074C135.589 136.398 135.343 136.722 135.019 137.046C134.707 137.37 134.293 137.64 133.777 137.856C133.261 138.072 132.619 138.18 131.851 138.18ZM129.727 132.294H133.633C133.597 131.634 133.399 131.142 133.039 130.818C132.679 130.494 132.235 130.332 131.707 130.332C131.179 130.332 130.729 130.506 130.357 130.854C129.985 131.19 129.775 131.67 129.727 132.294ZM142.496 138.18C141.752 138.18 141.158 138.072 140.714 137.856C140.27 137.628 139.934 137.346 139.706 137.01C139.478 136.662 139.328 136.296 139.256 135.912C139.184 135.528 139.148 135.174 139.148 134.85V130.638H137.528V128.46H139.148V126.102H141.884V128.46H143.918V130.638H141.884V134.778C141.884 135.174 141.986 135.48 142.19 135.696C142.406 135.912 142.76 136.02 143.252 136.02C143.468 136.02 143.666 136.002 143.846 135.966C144.026 135.93 144.116 135.912 144.116 135.912V138.018C144.116 138.018 143.954 138.042 143.63 138.09C143.306 138.15 142.928 138.18 142.496 138.18ZM148.912 138.18C148.24 138.18 147.682 138.036 147.238 137.748C146.806 137.46 146.482 137.076 146.266 136.596C146.05 136.104 145.942 135.552 145.942 134.94V128.46H148.66V134.4C148.66 134.856 148.78 135.228 149.02 135.516C149.26 135.792 149.614 135.93 150.082 135.93C150.478 135.93 150.79 135.834 151.018 135.642C151.258 135.45 151.432 135.204 151.54 134.904C151.648 134.604 151.702 134.286 151.702 133.95V128.46H154.438V138H151.702V136.65H151.594C151.39 137.022 151.072 137.37 150.64 137.694C150.22 138.018 149.644 138.18 148.912 138.18ZM156.524 138V128.46H159.242V129.846H159.332C159.44 129.594 159.59 129.348 159.782 129.108C159.974 128.868 160.238 128.67 160.574 128.514C160.91 128.358 161.342 128.28 161.87 128.28C162.134 128.28 162.344 128.298 162.5 128.334C162.656 128.358 162.734 128.37 162.734 128.37V131.07C162.734 131.07 162.644 131.052 162.464 131.016C162.296 130.98 162.074 130.962 161.798 130.962C160.946 130.962 160.31 131.196 159.89 131.664C159.47 132.12 159.26 132.87 159.26 133.914V138H156.524ZM164.241 138V128.46H166.977V129.828H167.067C167.175 129.636 167.331 129.42 167.535 129.18C167.751 128.94 168.033 128.73 168.381 128.55C168.741 128.37 169.197 128.28 169.749 128.28C170.493 128.28 171.099 128.454 171.567 128.802C172.035 129.138 172.377 129.576 172.593 130.116C172.809 130.644 172.917 131.202 172.917 131.79V138H170.181V132.258C170.181 131.802 170.055 131.4 169.803 131.052C169.563 130.704 169.173 130.53 168.633 130.53C168.225 130.53 167.901 130.626 167.661 130.818C167.421 131.01 167.247 131.256 167.139 131.556C167.031 131.856 166.977 132.174 166.977 132.51V138H164.241ZM180.768 127.164C180.288 127.164 179.898 127.014 179.598 126.714C179.298 126.402 179.148 126.036 179.148 125.616C179.148 125.172 179.298 124.8 179.598 124.5C179.898 124.188 180.288 124.032 180.768 124.032C181.224 124.032 181.608 124.188 181.92 124.5C182.232 124.8 182.388 125.172 182.388 125.616C182.388 126.036 182.232 126.402 181.92 126.714C181.608 127.014 181.224 127.164 180.768 127.164ZM179.4 138V128.46H182.136V138H179.4ZM188.92 138.18C188.176 138.18 187.582 138.072 187.138 137.856C186.694 137.628 186.358 137.346 186.13 137.01C185.902 136.662 185.752 136.296 185.68 135.912C185.608 135.528 185.572 135.174 185.572 134.85V130.638H183.952V128.46H185.572V126.102H188.308V128.46H190.342V130.638H188.308V134.778C188.308 135.174 188.41 135.48 188.614 135.696C188.83 135.912 189.184 136.02 189.676 136.02C189.892 136.02 190.09 136.002 190.27 135.966C190.45 135.93 190.54 135.912 190.54 135.912V138.018C190.54 138.018 190.378 138.042 190.054 138.09C189.73 138.15 189.352 138.18 188.92 138.18ZM196.978 138.18C196.138 138.18 195.412 138.042 194.8 137.766C194.188 137.478 193.684 137.1 193.288 136.632C192.892 136.152 192.592 135.618 192.388 135.03C192.196 134.442 192.1 133.836 192.1 133.212C192.1 132.612 192.19 132.024 192.37 131.448C192.562 130.86 192.85 130.326 193.234 129.846C193.63 129.366 194.128 128.988 194.728 128.712C195.34 128.424 196.06 128.28 196.888 128.28C197.764 128.28 198.538 128.472 199.21 128.856C199.894 129.24 200.428 129.81 200.812 130.566C201.196 131.31 201.388 132.216 201.388 133.284V133.95H194.854C194.89 134.526 195.088 135.024 195.448 135.444C195.82 135.864 196.33 136.074 196.978 136.074C197.35 136.074 197.65 136.02 197.878 135.912C198.118 135.792 198.304 135.66 198.436 135.516C198.568 135.36 198.658 135.222 198.706 135.102C198.754 134.982 198.778 134.922 198.778 134.922H201.298C201.298 134.922 201.268 135.036 201.208 135.264C201.16 135.48 201.052 135.75 200.884 136.074C200.716 136.398 200.47 136.722 200.146 137.046C199.834 137.37 199.42 137.64 198.904 137.856C198.388 138.072 197.746 138.18 196.978 138.18ZM194.854 132.294H198.76C198.724 131.634 198.526 131.142 198.166 130.818C197.806 130.494 197.362 130.332 196.834 130.332C196.306 130.332 195.856 130.506 195.484 130.854C195.112 131.19 194.902 131.67 194.854 132.294ZM203.247 138V128.46H205.983V129.756H206.073C206.277 129.408 206.583 129.078 206.991 128.766C207.399 128.442 207.957 128.28 208.665 128.28C209.385 128.28 209.961 128.448 210.393 128.784C210.837 129.12 211.161 129.534 211.365 130.026H211.401C211.557 129.75 211.761 129.48 212.013 129.216C212.277 128.94 212.601 128.718 212.985 128.55C213.381 128.37 213.843 128.28 214.371 128.28C215.031 128.28 215.577 128.43 216.009 128.73C216.441 129.03 216.759 129.426 216.963 129.918C217.179 130.398 217.287 130.914 217.287 131.466V138H214.551V132.15C214.551 131.682 214.431 131.298 214.191 130.998C213.963 130.686 213.615 130.53 213.147 130.53C212.787 130.53 212.493 130.62 212.265 130.8C212.049 130.98 211.887 131.214 211.779 131.502C211.683 131.778 211.635 132.066 211.635 132.366V138H208.899V132.15C208.899 131.682 208.779 131.298 208.539 130.998C208.311 130.686 207.963 130.53 207.495 130.53C207.135 130.53 206.841 130.62 206.613 130.8C206.397 130.98 206.235 131.214 206.127 131.502C206.031 131.778 205.983 132.066 205.983 132.366V138H203.247ZM225.674 132.096L224.09 130.962L225.62 128.946L223.208 128.208L223.802 126.354L226.178 127.2L226.124 124.68H228.068L228.014 127.2L230.408 126.354L231.002 128.208L228.59 128.946L230.12 130.962L228.536 132.096L227.096 130.044L225.674 132.096ZM236.909 138V136.092L239.213 134.13C240.173 133.326 240.995 132.642 241.679 132.078C242.363 131.514 242.885 130.986 243.245 130.494C243.605 130.002 243.785 129.474 243.785 128.91C243.785 128.478 243.683 128.118 243.479 127.83C243.275 127.53 243.011 127.308 242.687 127.164C242.375 127.008 242.045 126.93 241.697 126.93C241.277 126.93 240.923 127.008 240.635 127.164C240.359 127.32 240.137 127.524 239.969 127.776C239.813 128.016 239.699 128.268 239.627 128.532C239.555 128.796 239.519 129.024 239.519 129.216H236.855C236.855 128.712 236.951 128.19 237.143 127.65C237.335 127.098 237.629 126.588 238.025 126.12C238.421 125.64 238.931 125.25 239.555 124.95C240.179 124.65 240.923 124.5 241.787 124.5C242.663 124.5 243.461 124.674 244.181 125.022C244.901 125.358 245.477 125.844 245.909 126.48C246.353 127.116 246.575 127.866 246.575 128.73C246.575 129.546 246.371 130.29 245.963 130.962C245.567 131.622 245.009 132.27 244.289 132.906C243.569 133.53 242.741 134.208 241.805 134.94L241.049 135.57H246.755V138H236.909ZM100.664 145.664C101.828 145.664 102.716 145.976 103.328 146.6C103.952 147.212 104.264 148.094 104.264 149.246V152.954C104.264 153.71 104.636 154.088 105.38 154.088H106.172V156.41H105.38C104.636 156.41 104.264 156.782 104.264 157.526V161.234C104.264 162.398 103.952 163.286 103.328 163.898C102.716 164.522 101.828 164.834 100.664 164.834H98.72V162.476H100.34C101.096 162.476 101.474 162.104 101.474 161.36V157.544C101.474 156.908 101.57 156.422 101.762 156.086C101.954 155.75 102.338 155.486 102.914 155.294V155.186C102.338 154.994 101.954 154.724 101.762 154.376C101.57 154.028 101.474 153.554 101.474 152.954V149.12C101.474 148.376 101.096 148.004 100.34 148.004H98.72V145.664H100.664ZM111.463 146.042C112.555 146.174 113.521 146.522 114.361 147.086C115.213 147.65 115.921 148.376 116.485 149.264C117.061 150.14 117.493 151.118 117.781 152.198C118.081 153.278 118.231 154.394 118.231 155.546C118.231 156.698 118.081 157.814 117.781 158.894C117.493 159.974 117.061 160.952 116.485 161.828C115.921 162.716 115.213 163.442 114.361 164.006C113.521 164.57 112.555 164.918 111.463 165.05V162.566C112.051 162.458 112.585 162.188 113.065 161.756C113.557 161.336 113.983 160.802 114.343 160.154C114.703 159.506 114.979 158.786 115.171 157.994C115.363 157.202 115.459 156.386 115.459 155.546C115.459 154.706 115.363 153.89 115.171 153.098C114.979 152.306 114.703 151.586 114.343 150.938C113.983 150.29 113.557 149.756 113.065 149.336C112.585 148.904 112.051 148.634 111.463 148.526V146.042Z" fill="#E76F5F"/>
<path d="M352.497 135.835L369.007 128.473C370.331 127.882 370.331 126.118 369.007 125.528L352.497 118.165C351.002 117.498 349.45 118.979 350.191 120.367L353.343 126.271C353.588 126.73 353.588 127.27 353.343 127.729L350.191 133.633C349.45 135.021 351.002 136.502 352.497 135.835Z" fill="#E76F5F"/>
</svg>
