<svg width="88" height="88" viewBox="0 0 88 88" fill="none" xmlns="http://www.w3.org/2000/svg">
<rect width="88" height="88" rx="44" fill="#CEE0FD"/>
<path opacity="0.6" d="M39.5893 25.3333C39.4026 26.0333 39.3327 26.8033 39.3327 27.6666V34.6666H27.666V30C27.666 27.4333 29.766 25.3333 32.3327 25.3333H39.5893Z" fill="#006838"/>
<path d="M39.3327 60.3334V34.6667H27.666C22.9993 34.6667 20.666 37 20.666 41.6667V60.3334C20.666 65 22.9993 67.3334 27.666 67.3334H46.3327C41.666 67.3334 39.3327 65 39.3327 60.3334ZM31.7493 55.6667C31.7493 56.6234 30.956 57.4167 29.9993 57.4167C29.0427 57.4167 28.2493 56.6234 28.2493 55.6667V46.3334C28.2493 45.3767 29.0427 44.5834 29.9993 44.5834C30.956 44.5834 31.7493 45.3767 31.7493 46.3334V55.6667Z" fill="#006838"/>
<path opacity="0.4" d="M48.6673 67.3334H46.334C41.6673 67.3334 39.334 65 39.334 60.3334V27.6667C39.334 23 41.6673 20.6667 46.334 20.6667H60.334C65.0007 20.6667 67.334 23 67.334 27.6667V60.3334C67.334 65 65.0007 67.3334 60.334 67.3334H58.0007" fill="#006838"/>
<path d="M57.9993 58V67.3334H48.666V58C48.666 56.7167 49.716 55.6667 50.9993 55.6667H55.666C56.9493 55.6667 57.9993 56.7167 57.9993 58Z" fill="#006838"/>
<path d="M48.666 48.0834C47.7093 48.0834 46.916 47.29 46.916 46.3334V34.6667C46.916 33.71 47.7093 32.9167 48.666 32.9167C49.6227 32.9167 50.416 33.71 50.416 34.6667V46.3334C50.416 47.29 49.6227 48.0834 48.666 48.0834Z" fill="#006838"/>
<path d="M58 48.0834C57.0433 48.0834 56.25 47.29 56.25 46.3334V34.6667C56.25 33.71 57.0433 32.9167 58 32.9167C58.9567 32.9167 59.75 33.71 59.75 34.6667V46.3334C59.75 47.29 58.9567 48.0834 58 48.0834Z" fill="#006838"/>
</svg>
