<svg width="188" height="64" viewBox="0 0 188 64" fill="none" xmlns="http://www.w3.org/2000/svg">
<mask id="mask0_30_13915" style="mask-type:luminance" maskUnits="userSpaceOnUse" x="0" y="0" width="64" height="64">
<path d="M64 0H0V64H64V0Z" fill="white"/>
</mask>
<g mask="url(#mask0_30_13915)">
<path d="M6.26433 28.065C6.0044 27.0952 6.00436 26.074 6.26423 25.1041C6.52409 24.1343 7.03469 23.2499 7.74471 22.54L22.5398 7.74486C23.2498 7.03484 24.1341 6.52425 25.104 6.26438C26.0738 6.00452 27.095 6.00455 28.0649 6.26449L41.9094 9.97411C42.0535 8.07746 42.7138 6.25636 43.8189 4.70807L27.1441 0.240555C25.9473 -0.0801103 24.6871 -0.0801037 23.4903 0.240576C22.2934 0.561256 21.202 1.19131 20.3258 2.06742L2.0676 20.3257C1.19149 21.2019 0.561437 22.2932 0.240759 23.4901C-0.0799205 24.6869 -0.0799274 25.9471 0.240738 27.1439L4.88012 44.4582C6.39674 43.3 8.2024 42.5806 10.1 42.3789L6.26433 28.065Z" fill="#FFBE00"/>
<path d="M53.7733 21.1426L57.737 35.9349C57.9971 36.9049 57.9967 37.926 57.737 38.8957C57.477 39.8657 56.9663 40.75 56.2563 41.46L41.4612 56.2554C40.7512 56.9654 39.8669 57.4758 38.8969 57.7358C37.9272 57.9955 36.9058 57.9955 35.9362 57.7358L21.6222 53.9001C21.4206 55.7978 20.7013 57.6035 19.543 59.12L36.8572 63.7594C38.054 64.0802 39.3142 64.0802 40.511 63.7594C41.708 63.4386 42.7992 62.8088 43.6755 61.9325L61.9337 43.6743C62.81 42.798 63.4398 41.7068 63.7606 40.5097C64.0814 39.313 64.0814 38.0527 63.7606 36.856L58.9463 18.8936C57.4617 20.1053 55.6716 20.8835 53.7733 21.1426Z" fill="#FFBE00"/>
<path d="M5.29637 46.8461C4.12377 48.0186 3.32521 49.5128 3.00169 51.139C2.67817 52.7656 2.84421 54.4515 3.47881 55.9836C4.11339 57.5154 5.18805 58.8249 6.56684 59.7463C7.94567 60.6674 9.5667 61.1594 11.225 61.1594C12.8833 61.1594 14.5043 60.6674 15.8831 59.7463C17.262 58.8249 18.3366 57.5154 18.9712 55.9836C19.6058 54.4515 19.7718 52.7656 19.4483 51.139C19.1248 49.5128 18.3262 48.0186 17.1536 46.8461C15.58 45.2762 13.4479 44.3943 11.225 44.3943C9.00211 44.3943 6.86997 45.2762 5.29637 46.8461Z" fill="#330000"/>
<path d="M46.4127 4.86398C45.2403 6.03655 44.4414 7.5305 44.1182 9.15694C43.7946 10.7833 43.9606 12.4692 44.5952 14.0013C45.2299 15.5333 46.3044 16.8428 47.6831 17.7641C49.0621 18.6854 50.683 19.1771 52.3412 19.1771C53.9997 19.1771 55.6206 18.6854 56.9997 17.7641C58.3783 16.8428 59.4528 15.5333 60.0875 14.0013C60.7221 12.4692 60.8881 10.7833 60.5645 9.15694C60.2413 7.5305 59.4424 6.03655 58.27 4.86398C56.6966 3.29392 54.5642 2.41217 52.3412 2.41217C50.1185 2.41217 47.9861 3.29392 46.4127 4.86398Z" fill="#330000"/>
<path d="M36.9218 54.2251C36.585 54.2251 36.25 54.1811 35.9247 54.0939L22.8221 50.5829C22.3852 48.2498 21.2533 46.1032 19.575 44.4249C17.8965 42.7467 15.75 41.6145 13.417 41.1777L9.90629 28.0762C9.73224 27.4227 9.73273 26.7349 9.90778 26.0817C10.0828 25.4285 10.4263 24.8326 10.9037 24.3537L24.3521 10.905C24.8305 10.4265 25.4264 10.0825 26.0799 9.90741C26.7334 9.73233 27.4215 9.73236 28.075 9.90751L40.8102 13.32C41.3154 15.6386 42.509 17.7505 44.2348 19.3793C45.9607 21.008 48.1382 22.0775 50.482 22.4477L54.0927 35.9259C54.2666 36.5797 54.2663 37.2674 54.0909 37.9205C53.916 38.5739 53.5726 39.1696 53.0949 39.6488L39.6465 53.0972C39.2896 53.4558 38.8646 53.7405 38.397 53.9339C37.9293 54.1276 37.428 54.2265 36.9218 54.2251Z" fill="#330000"/>
</g>
<path d="M80.9315 49V14.92H87.6995V43H102.868V49H80.9315ZM117.727 49.384C110.287 49.384 105.295 44.296 105.295 37.288C105.295 30.28 110.287 25.192 117.727 25.192C125.023 25.192 130.207 30.088 130.207 37.288C130.207 44.488 125.023 49.384 117.727 49.384ZM117.727 43.768C121.135 43.768 123.823 41.08 123.823 37.288C123.823 33.448 121.231 30.808 117.727 30.808C114.079 30.808 111.631 33.592 111.631 37.288C111.631 40.936 114.175 43.768 117.727 43.768ZM150.887 25.576H157.127V46.312C157.127 53.608 153.911 58.888 144.935 58.888C141.239 58.888 138.071 58.072 135.287 56.536L136.775 51.208C139.079 52.504 141.383 53.416 144.359 53.416C148.775 53.416 151.031 51.064 151.031 48.184V45.832H150.887C149.255 47.608 146.903 48.568 144.071 48.568C137.591 48.568 132.887 43.864 132.887 37.048C132.887 30.136 137.447 25.192 143.734 25.192C146.375 25.192 148.871 26.104 150.743 27.976H150.887V25.576ZM145.223 42.904C148.679 42.904 151.127 40.36 151.127 36.808C151.127 33.208 148.535 30.904 145.223 30.904C141.719 30.904 139.271 33.304 139.271 36.856C139.271 40.552 141.863 42.904 145.223 42.904ZM173.477 49.384C166.037 49.384 161.045 44.296 161.045 37.288C161.045 30.28 166.037 25.192 173.477 25.192C180.773 25.192 185.957 30.088 185.957 37.288C185.957 44.488 180.773 49.384 173.477 49.384ZM173.477 43.768C176.885 43.768 179.573 41.08 179.573 37.288C179.573 33.448 176.981 30.808 173.477 30.808C169.829 30.808 167.381 33.592 167.381 37.288C167.381 40.936 169.925 43.768 173.477 43.768Z" fill="#F59E0B"/>
</svg>
