<svg width="80" height="80" viewBox="0 0 80 80" fill="none" xmlns="http://www.w3.org/2000/svg">
<g id="logo 1" clip-path="url(#clip0_121_3426)">
<path id="Vector" d="M40 0C17.9462 0 0 17.9462 0 40C0 62.0538 17.9462 80 40 80C62.0538 80 80 62.0538 80 40C80.012 17.9462 62.0538 0 40 0ZM40 1.32029C61.3325 1.32029 78.68 18.6675 78.68 40C78.68 61.3325 61.3325 78.68 40 78.68C18.6675 78.68 1.32029 61.3325 1.32029 40C1.32029 18.6675 18.6675 1.32029 40 1.32029Z" fill="#D4AF34"/>
<path id="Vector_2" d="M76.1227 40.0883C76.1227 59.9894 59.9899 76.1226 40.0888 76.1226C20.1877 76.1226 4.05469 59.9894 4.05469 40.0883C4.05469 20.1872 20.1877 4.0542 40.0888 4.0542C59.9899 4.0542 76.1227 20.1872 76.1227 40.0883Z" fill="#0B8E52" stroke="#D4AF34" stroke-width="2.00175"/>
<path id="Vector_3" d="M55.1753 38.7165C54.7339 38.8094 54.2693 38.8675 53.8046 38.8675C50.3431 38.8675 47.5321 36.0565 47.5321 32.5949C47.5321 29.1334 50.3431 26.3224 53.8046 26.3224C54.246 26.3224 54.6874 26.3689 55.1056 26.4618L57.5333 24.0341C56.3833 23.5346 55.1288 23.2559 53.8046 23.2559C49.5649 23.2559 45.9872 26.0901 44.8488 29.9698H35.2425C34.0926 26.1017 30.5149 23.2675 26.2868 23.2675C24.9625 23.2675 23.7081 23.5462 22.5581 24.0457L24.9858 26.4734C25.4039 26.3805 25.8453 26.334 26.2868 26.334C29.7483 26.334 32.5593 29.1451 32.5593 32.6065C32.5593 36.0681 29.7483 38.8791 26.2868 38.8791C25.8105 38.8791 25.3575 38.821 24.9161 38.7281L22.5 41.1442C23.6616 41.6553 24.9393 41.9573 26.2868 41.9573C30.573 41.9573 34.1855 39.0533 35.2774 35.1039H44.8023C45.8943 39.0417 49.5067 41.9457 53.793 41.9457C55.1404 41.9457 56.4298 41.6553 57.5797 41.1325L55.1753 38.7165ZM35.6143 33.1873C35.6259 32.9899 35.6491 32.804 35.6491 32.6065C35.6491 32.3626 35.6259 32.1187 35.6143 31.8747H44.5236C44.5003 32.1187 44.4887 32.351 44.4887 32.6065C44.4887 32.804 44.5119 33.0015 44.5236 33.1989H35.6143V33.1873Z" fill="white"/>
<path id="Vector_4" d="M34.6172 38.3215H45.4896C45.0831 37.7291 44.7346 37.0902 44.4558 36.4165H35.651C35.3606 37.0902 35.0238 37.7291 34.6172 38.3215Z" fill="#FFEB89"/>
<path id="Vector_5" d="M46.5688 39.6455H33.5243C32.7808 40.4006 31.9213 41.051 30.9688 41.5505H49.1127C48.1718 41.051 47.3122 40.4122 46.5688 39.6455Z" fill="#FFEB89"/>
<path id="Vector_6" d="M59.4613 43.0259H20.5832L16.75 46.801H63.2481L59.4613 43.0259Z" fill="#FFEB89"/>
<path id="Vector_7" d="M16.1709 53.248L17.9133 56.21H15.9037L14.9977 54.5025H14.928L14.022 56.21H12.1054L13.7665 53.248L12.0938 50.3208H14.2079L15.0209 52.098H15.0907L15.9037 50.3208H17.9133L16.1709 53.248Z" fill="white"/>
<path id="Vector_8" d="M19.98 53.9217C19.98 54.5722 20.3169 54.8277 20.7699 54.8277C21.2229 54.8277 21.5598 54.5606 21.5598 53.9217V50.3208H23.3718V54.1773C23.3718 55.4782 22.3729 56.3145 20.7699 56.3145C19.1553 56.3145 18.168 55.4782 18.168 54.1773V50.3208H19.98V53.9217Z" fill="white"/>
<path id="Vector_9" d="M23.8125 56.2098L25.6014 50.3206H27.9013L29.6669 56.2098H27.7386L27.4831 55.0947H25.8685L25.613 56.2098H23.8125ZM26.1124 48.7524H27.4018L28.4472 49.8443H27.216L26.7862 49.3681H26.6932L26.2286 49.8443H25.009L26.1124 48.7524ZM26.6352 51.8074L26.1589 53.8169H27.1811L26.7164 51.8074H26.6352Z" fill="white"/>
<path id="Vector_10" d="M30.1445 56.21V50.3208H31.5035L33.5131 53.1667H33.5828V50.3208H35.2439V56.21H33.8964L31.8753 53.3061H31.8056V56.21H30.1445Z" fill="white"/>
<path id="Vector_11" d="M39.5422 53.5383C39.5422 54.3863 39.8559 54.8393 40.4018 54.8393C40.9362 54.8393 41.2149 54.4095 41.2149 53.8403H42.934V54.0959C42.934 55.4317 41.877 56.2913 40.3902 56.2913C38.6478 56.2913 37.6953 55.1994 37.6953 53.5035V52.9808C37.6953 51.2965 38.6478 50.2046 40.3902 50.2046C41.877 50.2046 42.934 51.0642 42.934 52.4V52.6555H41.2149C41.2149 52.098 40.9362 51.6682 40.4018 51.6682C39.8559 51.6682 39.5422 52.1212 39.5422 52.9692V53.5383Z" fill="white"/>
<path id="Vector_12" d="M43.5938 54.1539V50.3091H45.4058V53.8984C45.4058 54.5489 45.7427 54.8044 46.1957 54.8044C46.6487 54.8044 46.9855 54.5373 46.9855 53.8984V50.3091H48.7976C49.0532 50.3091 49.1461 50.2045 49.1461 49.949V49.2637H50.4587V50.2278C50.4587 50.9363 49.994 51.5287 49.2274 51.5287H48.7976V54.1539C48.7976 55.4549 47.7987 56.2913 46.1957 56.2913C44.5927 56.2913 43.5938 55.4549 43.5938 54.1539Z" fill="white"/>
<path id="Vector_13" d="M52.9441 56.3144C51.1436 56.3144 50.1562 55.2225 50.1562 53.5614V52.9806C50.1562 51.308 51.1436 50.2161 52.9441 50.2161C53.6759 50.2161 54.1869 50.4252 54.7677 50.4252C55.2904 50.4252 55.3253 50.2045 55.3253 49.9373V49.252H56.6378V50.2161C56.6378 50.9246 56.1732 51.5171 55.4066 51.5171H55.395C55.6041 51.9236 55.7203 52.4231 55.7203 52.9806V53.5614C55.7319 55.2225 54.7445 56.3144 52.9441 56.3144ZM52.0148 53.5847C52.0148 54.4326 52.3633 54.8856 52.9441 54.8856C53.5249 54.8856 53.8733 54.4326 53.8733 53.5847V52.9574C53.8733 52.1095 53.5133 51.6564 52.9441 51.6564C52.3749 51.6564 52.0148 52.1095 52.0148 52.9574V53.5847Z" fill="white"/>
<path id="Vector_14" d="M56.7305 56.21V50.3208H58.0895L60.0874 53.1667H60.1571V50.3208H61.8182V56.21H60.4707L58.4496 53.3061H58.3799V56.21H56.7305Z" fill="white"/>
<path id="Vector_15" d="M66.1635 52.3532C66.1287 52.0047 65.8499 51.6795 65.3271 51.6795C64.7231 51.6795 64.4096 52.1325 64.4096 52.9456V53.5729C64.4096 54.235 64.5838 54.8739 65.3736 54.8739C65.9428 54.8739 66.21 54.5021 66.21 54.1653V54.0956H65.4782V52.8991H67.9059V54.0027C67.9059 55.1643 67.1972 56.3258 65.3271 56.3258C63.3409 56.3258 62.5742 55.0249 62.5742 53.5845V52.9224C62.5742 51.3775 63.5267 50.2275 65.3388 50.2275C67.1046 50.2275 67.9059 51.3194 67.9059 52.3648H66.1635V52.3532Z" fill="white"/>
</g>
<defs>
<clipPath id="clip0_121_3426">
<rect width="80" height="80" fill="white"/>
</clipPath>
</defs>
</svg>
