<svg width="144" height="40" viewBox="0 0 144 40" fill="none" xmlns="http://www.w3.org/2000/svg">
<mask id="mask0_192_741" style="mask-type:luminance" maskUnits="userSpaceOnUse" x="24" y="0" width="40" height="40">
<path d="M64 0H24V40H64V0Z" fill="white"/>
</mask>
<g mask="url(#mask0_192_741)">
<path d="M27.9153 17.5406C27.7528 16.9344 27.7528 16.2962 27.9152 15.6901C28.0776 15.0839 28.3968 14.5312 28.8405 14.0874L38.0875 4.8405C38.5312 4.39674 39.0839 4.07762 39.6901 3.9152C40.2962 3.75278 40.9345 3.75281 41.5406 3.91527L50.1935 6.23378C50.2835 5.04838 50.6962 3.91019 51.3869 2.94251L40.9652 0.150308C40.2171 -0.0501071 39.4295 -0.050103 38.6815 0.150322C37.9335 0.350747 37.2514 0.744532 36.7037 1.2921L25.2923 12.7035C24.7448 13.2511 24.351 13.9332 24.1506 14.6813C23.9501 15.4293 23.9501 16.2169 24.1506 16.9649L27.0502 27.7863C27.9981 27.0625 29.1266 26.6129 30.3126 26.4868L27.9153 17.5406Z" fill="#FFBE00"/>
<path d="M57.6083 13.214L60.0856 22.4592C60.2482 23.0655 60.2479 23.7036 60.0856 24.3097C59.9231 24.9159 59.6039 25.4686 59.1602 25.9124L49.9132 35.1595C49.4695 35.6033 48.9168 35.9222 48.3106 36.0847C47.7045 36.2471 47.0661 36.2471 46.4601 36.0847L37.5139 33.6875C37.3878 34.8735 36.9383 36.0021 36.2144 36.9499L47.0358 39.8495C47.7837 40.05 48.5714 40.05 49.3193 39.8495C50.0675 39.649 50.7495 39.2554 51.2972 38.7077L62.7086 27.2963C63.2563 26.7486 63.6499 26.0666 63.8504 25.3185C64.0509 24.5705 64.0509 23.7828 63.8504 23.0349L60.8414 11.8083C59.9136 12.5657 58.7948 13.0521 57.6083 13.214Z" fill="#FFBE00"/>
<path d="M27.3103 29.2787C26.5774 30.0115 26.0783 30.9454 25.8761 31.9618C25.6739 32.9784 25.7777 34.032 26.1743 34.9896C26.5709 35.947 27.2426 36.7654 28.1043 37.3413C28.9661 37.917 29.9792 38.2245 31.0157 38.2245C32.0521 38.2245 33.0652 37.917 33.927 37.3413C34.7888 36.7654 35.4604 35.947 35.857 34.9896C36.2537 34.032 36.3574 32.9784 36.1552 31.9618C35.953 30.9454 35.4539 30.0115 34.7211 29.2787C33.7376 28.2975 32.405 27.7463 31.0157 27.7463C29.6263 27.7463 28.2938 28.2975 27.3103 29.2787Z" fill="#330000"/>
<path d="M53.0079 3.03995C52.2752 3.77281 51.7759 4.70653 51.5739 5.72305C51.3716 6.73955 51.4754 7.7932 51.872 8.75075C52.2687 9.70827 52.9402 10.5267 53.8019 11.1025C54.6638 11.6783 55.6769 11.9857 56.7132 11.9857C57.7498 11.9857 58.7629 11.6783 59.6248 11.1025C60.4864 10.5267 61.158 9.70827 61.5547 8.75075C61.9513 7.7932 62.055 6.73955 61.8528 5.72305C61.6508 4.70653 61.1515 3.77281 60.4187 3.03995C59.4354 2.05866 58.1026 1.50757 56.7132 1.50757C55.3241 1.50757 53.9913 2.05866 53.0079 3.03995Z" fill="#330000"/>
<path d="M47.0762 33.8907C46.8657 33.8907 46.6563 33.8632 46.453 33.8087L38.2638 31.6143C37.9908 30.1562 37.2834 28.8145 36.2344 27.7656C35.1854 26.7167 33.8438 26.0091 32.3856 25.7361L30.1915 17.5476C30.0827 17.1392 30.083 16.7094 30.1924 16.3011C30.3018 15.8928 30.5164 15.5204 30.8149 15.2211L39.2201 6.81563C39.5191 6.51662 39.8915 6.30161 40.3 6.19216C40.7084 6.08273 41.1385 6.08276 41.5469 6.19223L49.5064 8.325C49.8221 9.77413 50.5682 11.0941 51.6468 12.1121C52.7254 13.13 54.0864 13.7985 55.5513 14.0298L57.808 22.4537C57.9167 22.8623 57.9164 23.2922 57.8069 23.7003C57.6975 24.1087 57.4829 24.4811 57.1843 24.7805L48.7791 33.1858C48.556 33.4099 48.2904 33.5878 47.9981 33.7087C47.7059 33.8298 47.3925 33.8916 47.0762 33.8907Z" fill="#330000"/>
</g>
<path d="M73.56 27V12.8H76.38V24.5H82.7V27H73.56ZM89.3081 27.16C86.2081 27.16 84.1281 25.04 84.1281 22.12C84.1281 19.2 86.2081 17.08 89.3081 17.08C92.3481 17.08 94.5081 19.12 94.5081 22.12C94.5081 25.12 92.3481 27.16 89.3081 27.16ZM89.3081 24.82C90.7281 24.82 91.8481 23.7 91.8481 22.12C91.8481 20.52 90.7681 19.42 89.3081 19.42C87.7881 19.42 86.7681 20.58 86.7681 22.12C86.7681 23.64 87.8281 24.82 89.3081 24.82ZM103.541 17.24H106.141V25.88C106.141 28.92 104.801 31.12 101.061 31.12C99.5213 31.12 98.2013 30.78 97.0413 30.14L97.6613 27.92C98.6213 28.46 99.5813 28.84 100.821 28.84C102.661 28.84 103.601 27.86 103.601 26.66V25.68H103.541C102.861 26.42 101.881 26.82 100.701 26.82C98.0013 26.82 96.0413 24.86 96.0413 22.02C96.0413 19.14 97.9413 17.08 100.561 17.08C101.661 17.08 102.701 17.46 103.481 18.24H103.541V17.24ZM101.181 24.46C102.621 24.46 103.641 23.4 103.641 21.92C103.641 20.42 102.561 19.46 101.181 19.46C99.7213 19.46 98.7013 20.46 98.7013 21.94C98.7013 23.48 99.7813 24.46 101.181 24.46ZM113.371 27.16C110.271 27.16 108.191 25.04 108.191 22.12C108.191 19.2 110.271 17.08 113.371 17.08C116.411 17.08 118.571 19.12 118.571 22.12C118.571 25.12 116.411 27.16 113.371 27.16ZM113.371 24.82C114.791 24.82 115.911 23.7 115.911 22.12C115.911 20.52 114.831 19.42 113.371 19.42C111.851 19.42 110.831 20.58 110.831 22.12C110.831 23.64 111.891 24.82 113.371 24.82Z" fill="white"/>
</svg>
