<svg width="40" height="40" viewBox="0 0 40 40" fill="none" xmlns="http://www.w3.org/2000/svg">
<mask id="mask0_192_16773" style="mask-type:luminance" maskUnits="userSpaceOnUse" x="0" y="0" width="40" height="40">
<path d="M40 0H0V40H40V0Z" fill="white"/>
</mask>
<g mask="url(#mask0_192_16773)">
<path d="M3.9153 17.5406C3.75284 16.9344 3.75282 16.2962 3.91523 15.6901C4.07765 15.0839 4.39677 14.5312 4.84053 14.0874L14.0875 4.8405C14.5312 4.39674 15.0839 4.07762 15.6901 3.9152C16.2962 3.75278 16.9345 3.75281 17.5406 3.91527L26.1935 6.23378C26.2835 5.04838 26.6962 3.91019 27.3869 2.94251L16.9652 0.150308C16.2171 -0.0501071 15.4295 -0.050103 14.6815 0.150322C13.9335 0.350747 13.2514 0.744532 12.7037 1.2921L1.29234 12.7035C0.744773 13.2511 0.35099 13.9332 0.150566 14.6813C-0.0498587 15.4293 -0.0498631 16.2169 0.150553 16.9649L3.05017 27.7863C3.99806 27.0625 5.12659 26.6129 6.31258 26.4868L3.9153 17.5406Z" fill="#FFBE00"/>
<path d="M33.6083 13.2142L36.0856 22.4594C36.2482 23.0657 36.2479 23.7039 36.0856 24.3099C35.9231 24.9162 35.6039 25.4689 35.1602 25.9126L25.9132 35.1598C25.4695 35.6035 24.9168 35.9225 24.3106 36.085C23.7045 36.2473 23.0661 36.2473 22.4601 36.085L13.5139 33.6877C13.3878 34.8738 12.9383 36.0023 12.2144 36.9501L23.0358 39.8497C23.7837 40.0502 24.5714 40.0502 25.3193 39.8497C26.0675 39.6492 26.7495 39.2556 27.2972 38.7079L38.7086 27.2965C39.2563 26.7489 39.6499 26.0669 39.8504 25.3187C40.0509 24.5707 40.0509 23.7831 39.8504 23.0351L36.8414 11.8086C35.9136 12.5659 34.7948 13.0523 33.6083 13.2142Z" fill="#FFBE00"/>
<path d="M3.31026 29.279C2.57739 30.0117 2.07829 30.9456 1.87609 31.962C1.67388 32.9786 1.77766 34.0323 2.17429 34.9899C2.5709 35.9472 3.24256 36.7657 4.10431 37.3416C4.96608 37.9172 5.97922 38.2247 7.01566 38.2247C8.05208 38.2247 9.06524 37.9172 9.92699 37.3416C10.7888 36.7657 11.4604 35.9472 11.857 34.9899C12.2537 34.0323 12.3574 32.9786 12.1552 31.962C11.953 30.9456 11.4539 30.0117 10.7211 29.279C9.73756 28.2977 8.40497 27.7466 7.01566 27.7466C5.62635 27.7466 4.29376 28.2977 3.31026 29.279Z" fill="#330000"/>
<path d="M29.0079 3.03971C28.2752 3.77256 27.7759 4.70628 27.5739 5.72281C27.3716 6.73931 27.4754 7.79296 27.872 8.7505C28.2687 9.70803 28.9402 10.5265 29.8019 11.1023C30.6638 11.6781 31.6769 11.9854 32.7132 11.9854C33.7498 11.9854 34.7629 11.6781 35.6248 11.1023C36.4864 10.5265 37.158 9.70803 37.5547 8.7505C37.9513 7.79296 38.055 6.73931 37.8528 5.72281C37.6508 4.70628 37.1515 3.77256 36.4187 3.03971C35.4354 2.05842 34.1026 1.50732 32.7132 1.50732C31.3241 1.50732 29.9913 2.05842 29.0079 3.03971Z" fill="#330000"/>
<path d="M23.0762 33.8905C22.8657 33.8905 22.6563 33.8629 22.453 33.8085L14.2638 31.6141C13.9908 30.1559 13.2834 28.8143 12.2344 27.7654C11.1854 26.7164 9.8438 26.0088 8.38564 25.7359L6.19146 17.5474C6.08268 17.139 6.08299 16.7091 6.19239 16.3009C6.3018 15.8926 6.51644 15.5202 6.81487 15.2209L15.2201 6.81539C15.5191 6.51638 15.8915 6.30137 16.3 6.19192C16.7084 6.08249 17.1385 6.08251 17.5469 6.19198L25.5064 8.32476C25.8221 9.77389 26.5682 11.0939 27.6468 12.1118C28.7254 13.1298 30.0864 13.7982 31.5513 14.0296L33.808 22.4535C33.9167 22.8621 33.9164 23.2919 33.8069 23.7001C33.6975 24.1085 33.4829 24.4808 33.1843 24.7803L24.7791 33.1855C24.556 33.4097 24.2904 33.5876 23.9981 33.7085C23.7059 33.8295 23.3925 33.8914 23.0762 33.8905Z" fill="#330000"/>
</g>
</svg>
