<svg width="16" height="16" viewBox="0 0 16 16" fill="none" xmlns="http://www.w3.org/2000/svg">
<path d="M4.09814 0H9.45161L13.9833 4.72797V13.9186C13.9833 15.0682 13.0515 16 11.9019 16H4.09814C2.9485 16 2.01672 15.0682 2.01672 13.9186V2.08141C2.01672 0.931794 2.9485 0 4.09814 0Z" fill="#2BBC6E"/>
<path opacity="0.302" fill-rule="evenodd" clip-rule="evenodd" d="M9.44513 0V4.68913H13.9833L9.44513 0Z" fill="white"/>
<path d="M4 12.68V7H7.632V8.008H5.104V9.368H7.128V10.36H5.104V11.68H7.8V12.68H4Z" fill="white"/>
<path d="M11.0849 12.68L10.2929 11.56H10.2769L9.48488 12.68H8.34088L9.69287 10.688L8.35687 8.776H9.54887L10.2769 9.896H10.2849L11.0209 8.776H12.2049L10.8769 10.68L12.2289 12.68H11.0849Z" fill="white"/>
</svg>
