<svg width="17" height="16" viewBox="0 0 17 16" fill="none" xmlns="http://www.w3.org/2000/svg">
<path d="M13.5 0.5H3.5C2.39543 0.5 1.5 1.39543 1.5 2.5V13.5C1.5 14.6046 2.39543 15.5 3.5 15.5H13.5C14.6046 15.5 15.5 14.6046 15.5 13.5V2.5C15.5 1.39543 14.6046 0.5 13.5 0.5Z" fill="#DDEBFD"/>
<path d="M12.25 7.22883C12.1553 7.13987 12.0297 7.09127 11.8998 7.09332C11.7699 7.09538 11.6458 7.14792 11.554 7.23983L9.398 9.39633C9.30427 9.49009 9.25161 9.61725 9.25161 9.74983C9.25161 9.88241 9.30427 10.0096 9.398 10.1033L14.5095 15.2163C14.81 15.0415 15.0595 14.7911 15.2333 14.49C15.4071 14.1888 15.499 13.8475 15.5 13.4998V10.2833L12.25 7.22883Z" fill="#4071F7"/>
<path d="M10 7C10.8284 7 11.5 6.32843 11.5 5.5C11.5 4.67157 10.8284 4 10 4C9.17157 4 8.5 4.67157 8.5 5.5C8.5 6.32843 9.17157 7 10 7Z" fill="#5392F9"/>
<path d="M7.3535 6.64653C7.25797 6.55619 7.13148 6.50586 7 6.50586C6.86852 6.50586 6.74203 6.55619 6.6465 6.64653L1.5 11.793V13.5C1.5 14.0305 1.71071 14.5392 2.08579 14.9142C2.46086 15.2893 2.96957 15.5 3.5 15.5H13.5C13.8477 15.499 14.189 15.4071 14.4901 15.2333C14.7913 15.0596 15.0417 14.81 15.2165 14.5095L7.3535 6.64653Z" fill="#5392F9"/>
</svg>
