<svg width="16" height="16" viewBox="0 0 16 16" fill="none" xmlns="http://www.w3.org/2000/svg">
<path fill-rule="evenodd" clip-rule="evenodd" d="M4.09998 0H9.4493L13.983 4.72564V13.917C13.983 15.0685 13.0515 16 11.9041 16H4.09998C2.94856 16 2.01703 15.0685 2.01703 13.917V2.08295C2.01701 0.931531 2.94854 0 4.09998 0Z" fill="#E5252A"/>
<path opacity="0.302" fill-rule="evenodd" clip-rule="evenodd" d="M9.44531 0V4.68966H13.983L9.44531 0Z" fill="white"/>
<path d="M4.33185 11.9382V9.01562H5.57523C5.88308 9.01562 6.12696 9.09958 6.31087 9.2715C6.49477 9.43941 6.58674 9.66731 6.58674 9.95116C6.58674 10.235 6.49477 10.4629 6.31087 10.6308C6.12696 10.8027 5.88308 10.8867 5.57523 10.8867H5.07947V11.9382H4.33185ZM5.07947 10.251H5.49127C5.60321 10.251 5.69117 10.227 5.75115 10.1711C5.81111 10.1191 5.84311 10.0471 5.84311 9.95118C5.84311 9.85523 5.81113 9.78326 5.75115 9.73129C5.69119 9.67531 5.60323 9.65134 5.49127 9.65134H5.07947V10.251ZM6.89456 11.9382V9.01562H7.93005C8.13394 9.01562 8.32585 9.0436 8.50576 9.10358C8.68566 9.16354 8.84959 9.24752 8.99351 9.36346C9.13744 9.4754 9.25338 9.62732 9.33734 9.81923C9.41729 10.0111 9.46128 10.231 9.46128 10.4789C9.46128 10.7228 9.41731 10.9427 9.33734 11.1346C9.25338 11.3265 9.13744 11.4784 8.99351 11.5903C8.84957 11.7063 8.68566 11.7902 8.50576 11.8502C8.32585 11.9102 8.13394 11.9382 7.93005 11.9382H6.89456ZM7.6262 11.3025H7.84209C7.95802 11.3025 8.06598 11.2905 8.16593 11.2625C8.26187 11.2345 8.35383 11.1905 8.44179 11.1306C8.52575 11.0706 8.59372 10.9866 8.64169 10.8747C8.68966 10.7628 8.71366 10.6308 8.71366 10.4789C8.71366 10.323 8.68966 10.191 8.64169 10.0791C8.59372 9.96717 8.52575 9.88321 8.44179 9.82323C8.35383 9.76327 8.26189 9.71928 8.16593 9.6913C8.06598 9.66332 7.95802 9.65132 7.84209 9.65132H7.6262V11.3025ZM9.8371 11.9382V9.01562H11.9161V9.65132H10.5847V10.1191H11.6482V10.7508H10.5847V11.9382H9.8371Z" fill="white"/>
</svg>
