<svg width="40" height="40" viewBox="0 0 40 40" fill="none" xmlns="http://www.w3.org/2000/svg">
<path d="M20.0007 3.3335C10.817 3.3335 3.33398 10.8165 3.33398 20.0002C3.33398 29.1838 10.817 36.6668 20.0007 36.6668C29.1843 36.6668 36.6673 29.1838 36.6673 20.0002C36.6673 10.8165 29.1843 3.3335 20.0007 3.3335ZM25.953 17.4491L19.1503 24.2519C18.8102 24.4219 18.6401 24.592 18.3 24.592C17.9598 24.592 17.6197 24.4219 17.4496 24.2519L14.0483 20.8505C13.5381 20.3403 13.5381 19.49 14.0483 18.9798C14.5585 18.4696 15.4088 18.4696 15.919 18.9798L18.47 21.5308L24.4224 15.5784C24.9326 15.0682 25.783 15.0682 26.2932 15.5784C26.4632 16.2587 26.4632 16.9389 25.953 17.4491Z" fill="#2AD168"/>
</svg>
