<svg width="40" height="40" viewBox="0 0 40 40" fill="none" xmlns="http://www.w3.org/2000/svg">
<path d="M20.0007 3.3335C10.8173 3.3335 3.33398 10.8168 3.33398 20.0002C3.33398 29.1835 10.8173 36.6668 20.0007 36.6668C29.184 36.6668 36.6673 29.1835 36.6673 20.0002C36.6673 10.8168 29.184 3.3335 20.0007 3.3335ZM25.6007 23.8335C26.084 24.3168 26.084 25.1168 25.6007 25.6002C25.3507 25.8502 25.034 25.9668 24.7173 25.9668C24.4007 25.9668 24.084 25.8502 23.834 25.6002L20.0007 21.7668L16.1673 25.6002C15.9173 25.8502 15.6007 25.9668 15.284 25.9668C14.9673 25.9668 14.6507 25.8502 14.4007 25.6002C13.9173 25.1168 13.9173 24.3168 14.4007 23.8335L18.234 20.0002L14.4007 16.1668C13.9173 15.6835 13.9173 14.8835 14.4007 14.4002C14.884 13.9168 15.684 13.9168 16.1673 14.4002L20.0007 18.2335L23.834 14.4002C24.3173 13.9168 25.1173 13.9168 25.6007 14.4002C26.084 14.8835 26.084 15.6835 25.6007 16.1668L21.7673 20.0002L25.6007 23.8335Z" fill="#EF5944"/>
</svg>
