<svg width="40" height="40" viewBox="0 0 40 40" fill="none" xmlns="http://www.w3.org/2000/svg">
<path d="M32.5172 9.75016L22.6172 4.0335C21.0005 3.10016 19.0005 3.10016 17.3672 4.0335L7.48385 9.75016C5.86719 10.6835 4.86719 12.4168 4.86719 14.3002V25.7002C4.86719 27.5668 5.86719 29.3002 7.48385 30.2502L17.3839 35.9668C19.0005 36.9002 21.0005 36.9002 22.6339 35.9668L32.5339 30.2502C34.1505 29.3168 35.1505 27.5835 35.1505 25.7002V14.3002C35.1339 12.4168 34.1339 10.7002 32.5172 9.75016ZM18.7505 12.9168C18.7505 12.2335 19.3172 11.6668 20.0005 11.6668C20.6839 11.6668 21.2505 12.2335 21.2505 12.9168V21.6668C21.2505 22.3502 20.6839 22.9168 20.0005 22.9168C19.3172 22.9168 18.7505 22.3502 18.7505 21.6668V12.9168ZM21.5339 27.7168C21.4505 27.9168 21.3339 28.1002 21.1839 28.2668C20.8672 28.5835 20.4505 28.7502 20.0005 28.7502C19.7839 28.7502 19.5672 28.7002 19.3672 28.6168C19.1505 28.5335 18.9839 28.4168 18.8172 28.2668C18.6672 28.1002 18.5505 27.9168 18.4505 27.7168C18.3672 27.5168 18.3339 27.3002 18.3339 27.0835C18.3339 26.6502 18.5005 26.2168 18.8172 25.9002C18.9839 25.7502 19.1505 25.6335 19.3672 25.5502C19.9839 25.2835 20.7172 25.4335 21.1839 25.9002C21.3339 26.0668 21.4505 26.2335 21.5339 26.4502C21.6172 26.6502 21.6672 26.8668 21.6672 27.0835C21.6672 27.3002 21.6172 27.5168 21.5339 27.7168Z" fill="#F59E0B"/>
</svg>
