<svg width="16" height="16" viewBox="0 0 16 16" fill="none" xmlns="http://www.w3.org/2000/svg">
<path d="M4.09814 0H9.45161L13.9833 4.72797V13.9186C13.9833 15.0682 13.0515 16 11.9019 16H4.09814C2.9485 16 2.01672 15.0682 2.01672 13.9186V2.08141C2.01672 0.931794 2.9485 0 4.09814 0Z" fill="#0263D1"/>
<path opacity="0.302" fill-rule="evenodd" clip-rule="evenodd" d="M9.44513 0V4.68913H13.9833L9.44513 0Z" fill="white"/>
<path d="M10.648 7.31982H11.848L10.056 12.9998H9.016L7.952 8.95982H7.928L6.824 12.9998H5.792L4 7.31982H5.2L6.304 11.1598H6.32L7.328 7.31982H8.52L9.528 11.1598H9.536L10.648 7.31982Z" fill="white"/>
</svg>
